<mxfile host="65bd71144e">
    <diagram id="dumlYmlif58_HwaSEwoz" name="Page-1">
        <mxGraphModel dx="1055" dy="1175" grid="0" gridSize="10" guides="1" tooltips="1" connect="1" arrows="1" fold="1" page="0" pageScale="1" pageWidth="827" pageHeight="1169" math="0" shadow="0">
            <root>
                <mxCell id="0"/>
                <mxCell id="1" parent="0"/>
                <mxCell id="2" value="" style="shape=image;verticalLabelPosition=bottom;labelBackgroundColor=default;verticalAlign=top;aspect=fixed;imageAspect=0;image=data:image/png,iVBORw0KGgoAAAANSUhEUgAAAT4AAACfCAMAAABX0UX9AAAAxlBMVEX///8zMzPKJycrKyswMDDHCwseHh4tLS12dnYdHR0kJCQZGRknJychISHrwMDuwMDHAADq6uoWFhbMzMz39/fIGho4ODhAQEDJISHx8fGCgoLf39/U1NTJHR34+PhaWlrc3Nybm5utra28vLxKSkqRkZGkpKSHh4cODg5vb2+4uLjGxsbknZ1lZWVSUlJHR0f56OgAAADeh4fxz8/XaGj129vNMzPSUlLadXXQRUXwy8vrtrbfiorhk5POOzvnqanVXl7RS0tbsiYtAAAPQ0lEQVR4nO1daXubuhIORmEntYF4wY4N3pfaTrM0Oenpcv7/n7ogwNYGyEBvn6R6vyUGGQ2jWd4ZyVdXAgICAgICAgICAgICAgICAgICAgICAgICAgICAgICAhUwGPzpJ3jPmJpfVn/6Gd4xesCe/ulnqILx/f3jt5//n+/y3O1C07TV1O0Qn3QcSXmHq3fw+vW63b5uP/7+rxqGB0exLVmWLVsxu4sR+mFoyNpFo40HnQSDgVd42Wg2DcPQ17T9JMVe0/xFGC637rDoVh68XPdbEe6eao5Tiu1EMYB0BrDM43KcfTqQgLLjHiuYLfZzyTadCKYl9w6baY7m+l3DtA3Dil+aekL8Bi3LsHWnu681qft2K0H7vtY4JRhPLUWVSABjvUgXsWaBLt9Qg9nGNG1LBed3AYBsrDcj1tWjTc/E3hr2AvWuxryLGz+vU/HdvtYapxjbnpIzBcvwh9EFO0eyQp6Rhj5QZOZIsukzNdAbTucO4xZg9ha7MeuOC/Cr38rk99vUbzTXc4QHp73eBB0VSCbpTBgI9ms5fyjZCXPEMdzY1MXzenoH8Zyt3Uh83+sPx4Sv08sWn4ndA5JaboQ6+7KR7OMw596tjl8JenWdRoyH25P4+q26msyEC6ziKcPJRDOflQw0DtfsVYtCdfKG0fCbFbeJyZ2Vr9W6/h2xX2imiw3E7g6194QA1ZKBRkdq/TGh55jQLXY76DWhKyfHAdXvawMj4hgc4ENHMYp12Gu+tj9Ium6xVqC1KB4pXGeCB3Hckf8eJIctvyEmPnXTxPR+9Fuo+n1qYkwEIyleMcCWFqPMKXqDXXiwbcoBmHlGC2IwSSYPrCh2nGx8bXOQDcVgW0Kdmft5XfQr+dx8CT6hyhep30sDYyKYQY2RJWo6g5mm4l6g2HGMADRcqjkPT+/hqjMK9wozpFszfeoBvbTU0vLgH0z5otC50cxtasYPauyZLs7b7RXrPCGlaDpbGDSq+p4SS2cp2bQA2V51g74vvQHP8djGpde6+1V/0BOmayi9/ES2swDGya8UDBQ6cMITdpw2YwSVls+4cIW6XjO4aC5MPN0R4mtdP9cfNUUSaMmTomu8JTDgbIwCU7SIlRiwDVryTSoVGjkBfdnSQC/giNFLcA8t3y26gJvL3HZQZYBUwkGNF3asFHb+bPz4NQCraLF5mkmIj2VKscjFqc+NwZD5+jNmAJsiDoJkWXIQoB1NkQuoqkR6SkmCtSRTaiWgrtkpyOfr2mGfF1u+/j9X31ALePtv3WGTsaVkOgrPxcHmS650NDhnvZTKcgkXbNG8v4umbWueByvEd6h8ka/9D1W/uyZSwatNYqZllglnIHfpruCUjZKQOsZIxeQHLOqKAF3hDt+D5WMcJbmtu9jWvaHR3/XnugNfZSFLSTjCAeg1JAB4VtoI5wRMSqGHqPj0eg+W5muJqXvB1K9+MjjIAjq9nn+bQffDY0Bj4JwKnVZ0HORjo9aDRYiVL3W0bw0TB34WSKi1xJe6H6ByekkfjV9o3+uh4pPrPFiEb7HyZQwpav36P2qOjKwS3omz0UvSBO4Kkocm0uBIraI1Kt06D3aV5Gu3D+kfN5j1+1Zz6LMWWHW0L0zjNIO7+rtEIzta8xHbB0CNB4vwqY0FeWjsF8UytTA++0C9kEYpxjAzZWUx3xkYqaJQ4kPiPiBVf7AYP1DlS5fyKXS+qTW0e37MwtLjzj/MN8tc/dxkKarC/w4WiPWjs1qrMfHdoJYvRgtVv3q8VXh+zAJWzZ3rMgCqobDLY0iURqtRLtDYhOZUEMqAtyiag5c+kd9itPN1Ld7KPz8mmOdc4/lORh9ZKtO2nRXpAvFd9c6rlxYfQljVE98jbvkieFjo96vO4Ij4pDV76lj5COgT+qrxWRAXLF70u3XKZEpIXb2W+F7uKHLl31tEfu06vBVqgNhE1MLEE1RZpmxkcA7S+F1H3ChzFh8l9V5D4nuOVypB7d2joXOthhcX9XCMglZWt0AAHDKrnZ7lYG/5vxshpWRKpZsSX0yT3pHMHsad1qFNPZTVtZfkx8Meq1qrEOTC6qzC8gVNk+fEl/Hi0LCmRtYBOwuo9fmIOo9atOkGlY9OMDg7RqcQvG6VNwY48H91cBKfStPcqPhqUAZQ+X5R/35pijbdodQGkXKFSWEC0GVaE1uje0TIxTVMDMFp8TIIP1R81QkryNEzQuNvjanfEZWNiZBW4w3UDlXvzrtUuwoWoKDiMygDkIuz+BiVSNCI+F4jH9v/j/EBXjKvoX5Y7omIpTOPLZq63rvelTeaEAUKTE/9ajFucHJbjJAJtSmVxQeVj8lKYbELktFdjDHG/KpZ1dW1Y5XS90F62ZYoUKDqh5XF+FnXk+sAPfpDrNJWdW6vkKNnffKM9RzUsX4L9EklK6HelrHZUx0kxxhZmPzQRTpD6zoqt/M4lYNYLTNN1Dqg8uWoFlb0qKN+A7yFxY7NOCwmGgdsTQVYiwDqLDsYdWzyqt9JaRmVNozvqyq+pDr5xvzsO7p6a3Wbhpj6SfrWm8T/McnSEVb9wmoaWEcKt/XLMh5WsOM1IL77dIH+8/L09Prw8P0zxMPDw+vT08vXFia+Gt2mY6KDypLUuFpLkwMzlEFfI+RLiHUO8NTaYmR9LCxnPcC+qtq8sm7Sfv/u7u4WQfQn0S/UatcoGk1R2yXB9lGV2SngI3rqIAFegBfODL7YLwvtWE0Enfriu79t8aNWs/OBDOusI5t9QYJErPFkjumvyvCkNDrp+mTEzESdt1qXAVS+/nU+MPHe1bB+LhHV2ew+tchZntXMRC/Z4vpr8RSMZmnAabN0FSsEO1W6AaDl67/cfMrDzQMW+9Xp2Fhh3sPMN16nXAoc0X+Pu7j5NDkqRmmwza7NYT0ulVqEoHDabLebAF/ddWK/ce+8fIFZQDqdvDSZHuPem6PRJXsTa6ahxELJKg1qUDYlhbRXlLeqE/tddU5dO8AqmvnJSRDJhUd0/QA7KPnGlGlkWj6yQa1EfENGCSaJ+YrLuM9Yx2mtnUaZVQNGUHTZICXRgUzYoyVBqwKpZM7J2gWAvTCnqDaXsTjdNRX6QEK5dPfBS1OpR5ymJbMuftRx6nvpjtojwWqpxfLzEnHnGQrMGJQ05+50OnJM2yEL7yN4q1a7VpsF3MlD9zoRSEMUujjhOhIpv6I3kchHzuvRR2swjEISBl+mCnX30Kpdl3rsVnPqF6+m0h6/QWLwWe3cGtm0rMr5TboDyOeB3MYQHyPBCzvrPQCowBBmtBziaC7zHcbaU7ZdKHUdQGboudclSWlW4pciaa1xcr0UtjGheOv1TqcILw8uSo4a0D3uPGqoX0IZl20STxYVO6wbrSUSTk7lKOlFV/Jf1gQVX/G2mIlKhY6QDOUqgOP7FarHflniYU+KBDiAV8k5e8ymOiU/48AygENI0VoFW9XwXUVF1c9AodpLkni4MGTOgDXr1lC/efa6VbMX5tp8WFPLb4Fc0PJTbbr47kLpyfOCVBbz44X1k8jjkeKFJDNn6+OPRqoeaLMsMOw5W4Ja7C6Bne8IN0TyASffnWJyGiwg7y8fC+IEpO1DKrbIsTEmPHMSDXNyKD9x9atYdCOiNmA488WI0I4AsqjSusgS0fvoY3l3V9nmwM5Ms6H5LJQe4YaK4oF41Ri4/07sGWfzwD2+0bJaxwuZM0hwO6m6nwZZ6OS5WlKtLNhwFUNj7YMGli33Jr6/6Vl2EpFYh8KYrIMTYPk7OGMGEnSxN5G0EHC3LWOJb7WOF5JvzmatGqY93/grf3Ow9WTe6zIuZbFmjgU3qJ+Kesq+mMLrYL0h+a0LIdzGhJE/afMttxe4IdSvQr8fyZeQ0z7Pm4OJmqklR0BIIG8P/gn4bvLczXY+pB3wFo/PiTj4m75x3r7CLv1BwXkh+LwL7V6GzqH4IAMLlO7PJdh/9maR2TF569jafk7zCP7N9q84qX99MW2vOWX6ks67F/ANGNr5A8r2qpx7d4kIiKIPvWB5OqwH9Szjr6ky3XJvuCJ26bfal55yMAoPa6VUA4GjcZPmwcFkD6euT30LRdgRxStJOaym7m7njtzdbLrQJhJyWBMSNd//lzmCfos3hHslN0pXOCXC2/lH3Sg4egUox4sO8pnNGafgWAr77CoCndmGuhfIhpLAti1ZZSYl4+/tsyHr335/Lldz79sPuiDXfqkSvgynmm7Sx2bAZ3d6F7SNJphN1tFg5xNJLNNYlFcwo/d40AvWPgOnPP0ffBnetr+W2bHP/Wuy4gvDl3bFvZbBVOvZunF+v9G0bbPnVzpCKnofB2Dqiq2YRm8fcoyxm3BYERIZm/qTPO2h1W8X+98n6o6TAlberTXujGLr0tPXEXRpstgGNUrwg+FoNtsFHS6zufjyxdT1SN6GkZ7ix4MvadLxs93GC7nR38Wr8KlN3pLdWFX9/jAiabuxd1gul+HC17hwIm4eH28QvL09lnuP5+e3GxJvb2/NHbIhIPBu0Qn3k4nG4zbysD1e7PQ/CsartREf3mqYpratWAdc2F/qH4PzLtGZn7kIWQH7ShLcKUXHFn1gjPDD/4BqrzcVzm+V+dulPxJcxnlpqt7jSD1wTNSy06E+Ilw2awCs9Tzv2Gs2QuuCrUofBUkjPlDx9D6RoA38CwQyNZo4wO99AbZiyfpxr23mhk7msUB2JtzbZ6ZGI8dHvitMZAkoqY55u1XXtggJqkov5FvDS+OSXcIfAgtFUrsB8o9h2DMJOhEYJheTs1H/NvEFtqRSzfmuZpCHv8rKYVrKxaiX/DzDh8BEVbus3RrTo0kwoaptlKjg1m7k8NJ3BNcBVo5rdTe0CtpFkUzcUVjrfKj3B80q6FLtLAAZTwNb1/LWZ+yDjjmffVD07MJAbTydUz/jISvdlUubwc7E4j/X8qOA+mko+grNISMZYOnGZoqt+UEIj2p3Gvixjo+Gjq/SObFs29Ik3O5cN3Bny70MCZu/kzEoxWA6J0NBKSntKYpu6nb2IwEljfV/MUYbg1zDFAzxc4T56CzU4h/lkfMOdhNIsNvbeb8uFhk+VvgtgGEYAoqUSaVXvMVOIMVM6zJ+2Mc+/F35Rg147upgOooR/7QRhGybf2eNqDo6u6W/P/S63W7voG1/y4+pfXx4g8FAiE5AQEBAQEBAQEBAQEBAQEBAQEBAQEBAQEBAQEBAQEBAQEBAQEBAQEBAQODD4n9zYBKWKyOsHQAAAABJRU5ErkJggg==;" vertex="1" parent="1">
                    <mxGeometry x="741" y="499" width="120" height="60" as="geometry"/>
                </mxCell>
                <mxCell id="5" value="ORM" style="rounded=1;whiteSpace=wrap;html=1;" vertex="1" parent="1">
                    <mxGeometry x="882" y="508" width="111" height="42" as="geometry"/>
                </mxCell>
                <mxCell id="26" style="edgeStyle=orthogonalEdgeStyle;html=1;entryX=0.445;entryY=1;entryDx=0;entryDy=0;entryPerimeter=0;" edge="1" parent="1" source="7" target="5">
                    <mxGeometry relative="1" as="geometry"/>
                </mxCell>
                <mxCell id="7" value="DF" style="rounded=1;whiteSpace=wrap;html=1;" vertex="1" parent="1">
                    <mxGeometry x="561" y="654.5" width="111" height="42" as="geometry"/>
                </mxCell>
                <mxCell id="15" value="Database" style="swimlane;whiteSpace=wrap;html=1;" vertex="1" parent="1">
                    <mxGeometry x="924" y="88" width="525" height="242" as="geometry"/>
                </mxCell>
                <mxCell id="9" value="" style="shape=image;verticalLabelPosition=bottom;labelBackgroundColor=default;verticalAlign=top;aspect=fixed;imageAspect=0;image=data:image/png,iVBORw0KGgoAAAANSUhEUgAAAN0AAADkCAMAAAArb9FNAAAAwFBMVEX///8zZ5EAAAAwZZAtZI8nYY0fXYsmYI0XWon5+fkUWYggXovy8vL8/Pzw8PDt7e3y9fiXl5d0dHSfn5+Sqb86OjqxsbHBwcHd5Ovn7PGoqKjS0tKTk5Pi4uKenp6Li4vG0t1kZGTKyspXV1dBQUEUFBSDg4NpaWm9vb1KSkooKCi8ytdVfaCtvs7V3uZOTk50k6+wwNCEnrdEcplZgKI0NDQRERHb29uessWKo7toiqkcHBwAToIiIiJXf6FKdpxuBn26AAAabElEQVR4nNVdCVvqOhMGu1AoCCKyimzKDiK4IF6P//9fXdrMZGnTNil65LzP991Hj9Bmktkzk2QyZ4dit1G/GldHN/OHiyNeP+b3g+r4etopl357aCch32mP718vovFSbb+dK4nlt0a9fX3V611dX7frjU63zP2xW6++xNDF4fGq8+1DK3amd+Pq48uH/4aH+WxQ7bUbnaLSVF4OryYf0qHeV6+mb8VpVY0wisk0/12E5Ru3j/KxebiZXDW6cV8fjhUXRZPA4TeQ9nZ7o/KuWW9aln29MfkJygBXlyeR1u09aLzstVoXF7F8m2rQ89H4qj7svJWL+VKplC9334bTu95oLvloNZZrYjGd6Y/sc9xAiejqL9vD5LpRjpSofHfaewx+ZZCOvnqcao7FY/vIpOUwba/3o+rt1d3d3dVVrzq6/xT/OrsdKmmKztW9+MWJVCRiMQ2pkdH4qCK7xXz+yC7H/1x67DKeyNjliPux+Pt8XO+Exp4vD9tE47yO1SgDXNbFJbzVo60r8uRxWqPl9zjEarzimUzjpL/UaaewX5d3/NI/6OjPO3FsKtPaaUcYtEFDf+hqGI6411RVXZgix9cvdQ2OObobQdp6+jLho9Rq9her1d7D6qm/blVkn3obcMunxgAd9o2RPsu83XFMfavvE+Zb/f12mSs4juu6OStnWZbr2rZTsJfbVT9EY5dbvyuFx9fppx/ftMfmo1gnr6wWZX8tVSqVaH5obf8r5CzTyIZgGFbOtnfbRYDCIdNro8TJvKKfnYb+VvG4ZV97f3+vHdllEcEuhMBZkFNK66f3w1fWLvjIZb8O2/2iGR5P5b1ghWmjNFpuYblvCd9gWuIjQQ6oczER31vp155ztmN73OIhl/PYxXZ3m+MQk0VzvV86js2tiZE1TMuyHee4GK3Ahysbx4ymL5s1c4XlEz+8MlMUsaJEV64ujK325Q1NNpVHdnEd62v71Ix+aKuWdXISXsPFOFLYF7/R/OPEkXck0M7VeMZhHl+MhqYyx3k3lf2uEDk2SqPtuIe9lML1cxynAYW2vREJXFhJX7IKW27RmSoMC1TgIy9MHVS2thtPGh2imXPMTVDm18t4LmMEOtk9/90jeyZ9x3K27BvFmwTyivDnOZOjmp00hSJM1+FlvrIpKNGGo93wq7+wE79r5Vbs89T2yZkTZPOTCmzfzGnR5sN+ZuNz9ObmyG0Hjr7K0k1+2xebS+raytwyVKxUq74X9GnLWn/oA7eOGk/zMJ0Nx5+1QuITTIctH9Ut4aCoC39BE57/kzxzkpftcOUrXykWPuvx554NapFMnuEcKLNRyxfyI4Av2zi4rCZXEdjIKK2shsSJw3V3azqqppH8GCtLuRNX7yZA3BScGUpcqsEV+khcghGJhVF4p+Oq7JJn2bDxtVT2qiJ1r8KSlnapiLNrSJyiGYmCu6PLUVoqMFFhgR9HzSnYhbbIl8+p2NJc0pU/jThPWdDxZp4VBLhAdQvaPd5VA0sHv+3tVEMq4IR/pZU5Bp47lch7gg+j1e4x4uqCHVynMQVHvkRlt0m18kG4z3T6VViJMid6XExvkhjpHn7bpeIrYwdff0r0odRg7ajpU5K9PnwYNMsdfrkjLN0qJV+CHm+lMOJymFTV51VUOFoj4M0HpI6kQz7IL6V0Vtg8IBudLnT0mRY1nwoPNbJ5YfEg1isJS7lPR53T/F6+JAM2kbymgi6wYILfCD2Q5WzwYlhKN/XWBnjoWzQKhUFXb6FAHgrHnHdYJryb8pRS6mDpat9L3VHeULW8J/u95kZgTcKo5GdINqSzVSh1lXTGJO7JX6gdlokjM+wSz4wdTmMSxmylG54DPLH95qXLMmnKVJK5ChzOLrdeV7yx26caHtq6yneqFAT1XhfJyQhwKAh1Y+/HR17DLFMZKxfcvFo6fZsA6oZskh6PgvfCNAlvHdLJjZEjop/SVCY+Hu10Kck7N0BISaTwkqHWgcjjIpXGRHOQUt8mwkQnr584+eRzVeqt1CmdntpNF5H3Qd9+lw8WhIsBQ4KDjkzUoytGfqqeMj6TfFnFn0gJdJErCbxvE+quqcEbcXFrxUpDnbUFnfL95gBhGLB4CS6+QyS0To0c2TIlOcBmKo2OjHlyRB6DHMxgQngWpC5PfiifoFTAQ1j/hLGjQB+yH/sWkbrLTJn3VFLZcvTCfsbY0begRxYbYQF1baSuw4d6qRwpTOanC+mVYUPmJDYv4gpapQgeJxiEQxoXGiK71o8y5hG5TPIgwSLcos6s8+FPOoNAvrtIk5nXQa6WvHgGUQFjtHfXvLlLs3Qodt+TCYuBAWwXGwqRT5CI9QONOWT/Uu367P+K2GXZ4kWrzZCfOeYihFIa6myiqlMGhjowwBOJnkjkI5J6mCF1pJIlVYRQIK/s/5AHzSMHbBKZ2LLAH71AcSPu9PUJ8/83rB0AHNrIVQDyIcnXQ+raqalDZkhlTHThLuJfJmYe2qdTZ4GonzZsRZiwKR/lMYLpHRLqGgHqUhhkmE6FlE5KGKbl2k7Bcezj//9rxb6tQJJ84Ii9nS53kA0TXGjDzB0HdIRtpwqpOFi2+1xb9JutyhGtdR/SpnJnE5NX1JgDdel1Jmhp5qlYdsGrHls3W61m/+l9WUivbgzbqLE9dB5yrYk6gOTBXjMn2zvDLHGv80qGgjWGrX025T6zu1tkIiC3P6gDHqh3OT7NV0Fm8KIL07bfpVO9Si4bkqCwlz2LYC2lziazAVtcXjqzR386Qn+SUYs9m6azjJzqFMUrphFTNhixdhDdgcr0UtHEix6QL+n7iphTyRYOcgkBHDR9bMMIlm0qUGeTP95RlQmFKqnjO2T1ZdxMe9Aro6AJWh+V5uJptVo9ebozhjrkowlGd7iMr+Tf9dOZVoRwVNb9xaK/ZuWCeS224Ao6+tusX9TrwXb+a0ZTh24oqb359H7sYpDuYaUdgbpPmRDW+0O24A3Iq0mlw4xP94ig29SZRdaxTCuXw9JeEC1pqAx+WJn60FTBdKOnJJ66oCZZb3MOV2VsOrTGUIPtca8zc3CMnLPc7le1AxkamFfpMsDfGtTLpOtIKo/0XTFWouXz436HNZnmceGO/7OOfguQp14GgwKUWeaMHJbcNsn7yC8ya46h6y1TKlh6RFyxvLbjxFNXeWdlxvahf3Semoute1xIHKvq4iG71+ysybSLn7AzuJ8DwOBuRv2wDLpikFjRNgk2tQOlmsPmBlWpN802ZgyUpRpYrOLwz/HHhqsq43Kw5RDczcgHydYrFAhsdE0CpW5h8tPpcAp9ZUO6R5Xv0f85zoaxpI/xi9fQvMpWAZIEYMvFeg54hK5JAOpKB1GoBHE0MdGq+EzcQfUWiO4frPypAQNUkjhVAbGD4ujuSUoTyAhqDFap4AVjmklBZEe/gtVdevPX3Nj862RcgN+658UOUyykSEw7wgOLEHqdi3PuLwHkQ1Zq3iYuEBmL6WSXO+xqcKKNOQSaRUHskFjo79KVO1Bv4cjQ3pDZyx9cKoaKu0SwMcGeydgwR5wfiX4yIBEPgkbb1aq8H61bwwbzLIl7LWO/bq1rvrKxtdITIeoYCaBvJB4jCis0ONJ2J5KFgLpa3f1T9O1kHO01fZHHoUyoGRyYsXz4mTEJOHSaLnglmQnUGunudeC44+VVLy2IzwzzcYxBcIg9gAqOAaWuyKtQXV8M35fg5IBaUauOxAKRMA3IKeFBopm/Y5Frhl9M4otlbD1vBUeS8LFCMLcUB6yND7sWkTqMVjuBPeBawEm0NyG/aKoV5LkEiZLlBWMAKx3SAWhdw4+BenqIfu4ZcZB8gABWU60gdQn7mtGTLgMakJCKhUkKmzt0VNoBe5ChntllxDdjgfyeUD2HAqPWQANLFDYgYMzDDI6M+cg7XgSnqBVKXTxDozVS27qmyZrgQ2FRw/Vo8IfLC54NAXN+OXfqpGXVqQNFoWYSkM9CgofUBdcOHw+MyfWRZNC+Q2WAXhBkQjdhgjLik7oKABUbKjyLog6DkFnAUeFJJr8ouroAxbXLQkJecQ8TPLeQJo7KGYEpBxH7EIhDA09kUa9WTFGrxGZ7wkArGlTgESECKm4pYwaq2rWUpqJFQHuk6uhZJSlrotkMDBFjZehOC55PQRQp5Fa07DkqwyRdhLpccepwvAHWhH8OspdFPgxx+GeAOIjWIUzQapVBPzNJ06MdVlw7nLRAOabcKUAD0gubch/p7Tmm2ZKE1ZbzVBQMl4SpFTGBIveisQXpImzKfYCymcITNajLKUVAzENUnTlMaYomhEZA/D+isRuGfUwAseewi6fTk5CLjM1Pow6HLOoV1GGCakDzMQgFP4gxL3g6jnRU1ihEXZT/GwXcSvjDE4JODJ9cM2yB/y4kp71Au3lRcwiRWiyESO8+CsiE4taRwe/SwwdBNiBuDXSa+4C4iKT98hrUqY5a0yJElbyBU8K70Zj2/pR5YQBB8DQsHniEIc8vRF14WAlA/Sg4AOissH9DURxKvTAAcaRhg1nD4rnwjQRRxSYPnUw+2GihESAsCA75F2irwPxJAILgqdfeq/v+5HM6W9fo+PMWHf6NxbU4ABCt8OkcPi55i5domylUU3nRiaBo0AZ27jtYokhjfLSL4KdMpMShUFbVBksRt+Mk+5xWWTkaMk5Y8Tk4PgMkAzbtIk/cIhYP+hKU9xFxLpP2bLFnQSv+oIvHJM8MpDqx5AKaR4LnqlA0eCdNObkCo5YkxUVg8bRe0gbrOlhLaCBYpmbjUxCsMMDUt8W5SQKwfeLGGBROaibc6OJRhkZnBWwWMioszUUmEiQnAckVVd2mSB0qFd09GJQ86rAgvaAY8MyT+4jYh+GOJ191kt3IzSgBaJl1e4bp4mHaRqQOly586EgIkFwhWc2SInUodwnyBP6aVmzlwwZthDvXyJmEOly6QbSLSXHBO2OKNkG15hs4Qr9VCBIsGBVgDYQvd5hbgnW5iD1fsspHQYoOIWroeJbDOUjRAOcCT4Nko/fgv88Rl47t2ckwTWETqA8SO26M1VJUEFOd/+77vrQcNMuWDs95iz+Gtij4oWpehQGubmyMgFOQqpkG6cn71PG7LSh1sFP+GEsc6lWohVD05iEkiW3GRl8wXQ8b8t/em0Cu+wHJVls6ahOIXlVMSaMjH7PSmBrIa27rAmitpuePwWR6QQyyLFTSSpJFIviDO1TdFTMiJ85BuwguAOxW9uN68uNREPCpuHTJp33Ped2j6FfgOQHRS53YNZf0BqyEyxq4jluLaptBgv/MwI5HyCifa4A58chsBao2ncphEQ6NhLAoZUctBdo6hXO7O4Knrdb6j6wZWTmL5iB9Cxu6XyULsjie8YMhw1byLKMAwSwq7rXBG6MWD2OWUzpHUXXtgTFXOVzOofrSBQ5zUtSaKN4Rw0c3/5QTj+jBQqBflhaKItznMsqoQDzyTlENWJD9rUmNNZTeVU46URMTXxmYduR2POBa8UR5gTUVE3+0dvlPTCn2/qRee3PJD/Ld2QrDjcwVBSGwpqqooDchOxQUd59OPJ2EX7x8Advq8Zha1UsYOoJB/6Om5qg30Qp5Iygxp55OQsPYjHfOMgR9mMMcKxKHjXngkarucjvYLtPMBeYDvd6TT1FD++bV8WPNNZ5Rq37HRI9f65JqiT13kLJIBpiLUjoXkwftAXiHRieab2hnlAG2/05vyo0szl/pwM9IUge1BqhiaeH5VHCpxZwbfaZU7nbjpJBkBqFuQFlcLHY6+1OOqVo0w99xYqhbEwd6HXCfuXvaHttR+aM7wfgre7452lPm3b2BaX47vj1cD/RgWh+oUkbFt079rjoL3Dw1lgsj372msC9H4TLyMvn9ruBaBu25SHkSbhBCP+XoIgFyCz/iFVFe3cUoCJzTWm2+DAf+6ZuOsjU5s9CIJ41jPxFCc566KudYk60hmaLKf7YdNBWpYG/ok5OJi0jekj+BKlKtibOWskfBOj71+/tn+5SD6T2YznKF0jSIouh1zu7nkvrWPWFh1biK3YsQTWMtVU89hf3MtXwPJfeavVTrHW+58kO8QUcmepCpAFdaKaRmZ+c2ZtGhVuU5vSttOIH24W59/Ehul3t5HPTaQ6F+CpKAwVJGH6BXwCoqHNPLjnX2nIH76JvJNqnJE2OgRHzy0iWiIVCefFosDQRogmrQjoi4dI8MoG+QNH7HAa5tkv4NTD4sQaJFp2YWLSyZuEFVUl6RLhIyOYUcefkXj0YMdeDkgLOZ5CTSqwnywQtG6QKu6ZDSZcZo/3nl6WBvFK7ka8dQhxUE8Gv8lgK7AyZ4aS3uYrd2BXbRTxrLTvvP9wXXNKzcPmL98nQWBzHUoVEAix4736wFNHhZKWqslnd0gEnPv0zhlaEzXoNkgeU8r9b8CpYqzf5+s/sPDy4A+X+RU4cClDzf9CTuTPAGVNyTgbsN8BAd3SYxDxDbcWdtmznH3j1vtu/v283h+ejzOXauwK5qmcVYhAw1GKAWotPSrDc5cAXqxRzNO95LgdF1iqwtNgWLy26Ypn8Xn+lfq2dyfm4vKPcRiwfLv43IjhkGMvp1gLgbdPK2aOIMSB/rdXP43wTvOWaHzHCe2QEvOJbobSHR2uejzl7DR04DxFFbwF0GAfylL3iJ/Sqm89VnQ6dXFEZ7Tbh44LDID9mmhq7DU/ZaZXe08bsLhdTUxXYwmq7zzNGWobeyxqXKQI5wq13GFfT6Ms6KTwQvpcLPdg4OS9f2xnAjJnz1imnZ9p8VH9SWqXsdu+eFRdSQtpAcAG9j+gas+E2vEUjYVPgLr1xZrawScI9slS3YvhY5ahPvsLnC7rDvi6ad3ef6EVOak6EJlgfQfc3gRTjMFngBx7wdTkUJ96jRvJL+UfUWNamtxb623WyOlmC/6ofvKi1zN+kmXewOeRis4Alce8LSAJ5fICuuW/GWzcTrbDRSNZS6muTpEvQYbZ/xK5dhe2OYUtvz5JnUFvTkQfBiJxDHzrjR3z7nb5eMRIm/+vpRIT2N4T3Ow57dJMhGW5fJ77pmCOkmkzv7TP++ITvyjDmK8i1Hm9rGAioWum3bhyOZDJtekeXZAtElaD5tzMB1mu4X5/bqn5Zux54ydyQtcJm74mXnqIFo8VzrUDgqLZveg+LbAhYBV/r7g+UE0yf8ZW+ZNGvHHyMUomw6/hRIu5go31mOKVF6H1mmud9uV3Ql8t6T0V1eLb3EXmiPy96JU69/fK9DpOh6dD3sUoEqvzWux7NgRKl1Sz1NG0bss/jJJxS79eEYfQVIswpfQaFJcUcE+SL10x9egzRRyJstooDlINKi3BJk1qila60OhuO6aHBtZ8efp1nMp6MOd38Sc+sXt8pMCWjjN8OFq+W57E+t/up9szkcNu/7viAvZdC9+tSBqyJJYQq406Utw5nIeSBaYk6PrKEvhCmGU9rUgTEvySiimGjIGw/qc19UOWfrTVDCieye9yL3lNRBZXn01sFLb6i+uRwEl1IY1L2Ub77bvg+8YBRfdkD4OyV1UIn2diHBfHA9THS64hFMKkhRDV/dDMij7KakTjjAezKYze5vZqNJ76o+jHylFu4iabrgFnHWlr1tyDibUKd9vio0JhI5P3GhpOgEiUIMA3tNg7tp9xKEoNhtXAlaPC115HE97hnfjFL1QoKB9y7JXz7m8/lH+J9TciZ/c5h03+Mb8BYypveQlamH6ZAjnb3DrIpv7iLyr9+A7phfjyozf5eRO6FS6jT9TIzM/UcoFAinx1t9PBnNJuPgBlZ4YaOp040RoBiLmLvEyvWfQflqHknVrJ45gTqohSZ5t6SWip9Dt14NU/gwqXtE+T+TRI5u9AqxK1Hb8b0+P43i2/SuOnl8mc9vRkcGpilAPw4jv+hSJ1yLFtuE9muYc9TpcaYBhckkfx61q/O7uGHUaebEcIuEmNXbX6QhGjNGnWa2FrdISEyiF3v/LYwYdZqZdjR3JNugEkn+ffjUESdblzrhcuGUMeoPw6eOuACadbaQqoWdcKWekb+OARua5v4dtDsPCXXfE9F9N6qMrTSpg7pxiIDTZxh+En54TzaK9FoT8BAO2Cf4RRJicMuo0zsFUbyN8KfCuxNxzdS53jkdYjJTrVfrr8MXG7jLWUvuMJn5esZuJvGB4SozLXsHRVRiL/y5wa8oJJuGpdA2USx1fPwTfTrM7+KN4yudpcMeBOGUhrOD72pAE6BOZzbeegAG4Seymd+AMqfxdI6QEeMf+UFvv48SZ610ivzQILycQd4hBpynodNpmBMihJhzi34XL4w6nXStzSfEzjT+yYAnBRe1aSRWxAtck6qjfg1jFuBpHT7KX+B6pl5mBsZHAjyNIAF9aOGusDNEg7nRGrfKYlLl/oyTKh66XL5OvWPRFa5FU22a//vIc86KujmHYuPOWdtyD16AhtfQqZoE9FTIzvZ55qEJqiwtons6J2RqzzMfRlBnPr5y7gE2SEhw9/Cbo09Cl9N6isRhkn169oxJUuWgVhQPW8F2h9E5x3aAMRO8ilKnEy4dOQ5Z6Vym30OHY02lmhU8p48UqjSin3wWuGA2QcVdwa7F/PnrFA9jTq0nS56NLRa9M/fCAB0u+5CYXKGHHpDQLnSTyvnhg1u8+HP0DNYqOPsnpC4DiS2sFlrEkMeVwZNigN8rU1FHWZCgVQR5pm2xzpjGuUcHHEZCUrLvhu2CYRWWXIk/pKA1zmX6RXREu1zZODmBMtte7vk6eEinnG2iLwDi7LMmpFYtW7Bd6BX8qvXFLnnozj3nuE4AVG7zeclW/2m/3z/1m8HPFrFu8GwzYSFAIa5CyRBt8zhv71kANhUknZo4nf+DxLGGzM+YSPvyjrYxzf8JW8BAq/8n8lUp1rk63X9FWzKw3o1RI1B/XxzeCq1MZ+86S8C3poxuG2/lUilf7jSuq4HzWQZnuheZgOCJF1LEnG115uhENz/iuv2ztB1Rim2cern+dwy4HGVp640nidJeqX8O+XbwIKTX0dW/zJBB5Dv1cXV283L/WB23hz9guP8HDqEs+Oum1R8AAAAASUVORK5CYII=;" vertex="1" parent="15">
                    <mxGeometry x="101" y="82" width="95.96" height="99" as="geometry"/>
                </mxCell>
                <mxCell id="10" value="Table" style="rounded=1;whiteSpace=wrap;html=1;" vertex="1" parent="15">
                    <mxGeometry x="214" y="106" width="111" height="42" as="geometry"/>
                </mxCell>
                <mxCell id="12" value="Objeto físico dos dados" style="rounded=1;whiteSpace=wrap;html=1;" vertex="1" parent="15">
                    <mxGeometry x="350" y="106" width="157" height="42" as="geometry"/>
                </mxCell>
                <mxCell id="18" style="edgeStyle=none;html=1;entryX=0;entryY=0.5;entryDx=0;entryDy=0;" edge="1" parent="1" source="16" target="7">
                    <mxGeometry relative="1" as="geometry"/>
                </mxCell>
                <mxCell id="16" value="Data Source" style="swimlane;whiteSpace=wrap;html=1;" vertex="1" parent="1">
                    <mxGeometry x="10" y="552" width="361" height="247" as="geometry"/>
                </mxCell>
                <mxCell id="17" value="" style="shape=image;verticalLabelPosition=bottom;labelBackgroundColor=default;verticalAlign=top;aspect=fixed;imageAspect=0;image=data:image/png,iVBORw0KGgoAAAANSUhEUgAAAgAAAAIACAYAAAD0eNT6AAAACXBIWXMAAA7DAAAOwwHHb6hkAAAAGXRFWHRTb2Z0d2FyZQB3d3cuaW5rc2NhcGUub3Jnm+48GgAAIABJREFUeJzs3XV4lMf2wPHvbjYeEiAhgntxd1rc3aFQrC31W6HU7dfeW++teykULQVKcS9W3Io7BPdAiGc3u/v744WWS5HklX13N+fzPPvQQubMINk5O+/MGQtCCF8WCiRcfcUDRa/7Me7qrxcAAoBIwApEARag4NUYyYAbuAK4gBTACaQCmcB54BRwFjh93Y9ngCyDf39CCINYzB6AEOKOrEBpoDJQ5eqPVYEKQCHzhgXAJeAwsBvYe92PR1GSCSGEl5IEQAjvYgNqAU2B+iiTfSUgzMxBqZAB7AP2AH8Ca4EtgMPMQQkh/iYJgBDmiuDvCf/uq6+Ct23huzJQkoEtwGrgd5QVBCGECSQBEMKzbCiTfWegPVANZYk/P3IBu4AVwFxgJWA3c0BCCCGEngoDfYHxKJ943fK66SsdmAM8hLKRUQghhPA5JYDnUD7V5mD+5Oprrxxg1dU/w/J5/LMXQgghPCoE5ZP+HJTNbmZPov702gw8BUTn+m9DCCGEMJAVZePedyjn582eKP39lQlMBbqi7KcQQgghPCoOeAM4hvmTYn59HQf+DZS5w9+VEEIIoVlF4DOUI21mT4DyUl5OlMcuTW7z9yaEEELkmQVogzLJuDB/wpPXrV+bgSEopY+FEEIIVYKBh1FK25o9sckrb6/9V//uQv/xtyqEEELcgg24H3m+7w+v88BIlGROCCGEuCkLyjG+fZg/cclL39cJlAJD8mhAiKukFLAQii7Af4CaZg8kr8LCwiharDhFYmMpWrQosbFxJBQtRmxsLIWjo4mMjMJqtVIgMhKrxUpkZORf/2+xWEi5cgWA5ORkAFJSruB2u0lNTeH8ufNcuHCes2dOc/78Oc6eOcv58+c4d/YMV6628zG7gZeB2WYPRAizSQIg8rvGwH+v/ujVCkdHU7lyVe6qVIlKlatwV6XKVKpUmaiC5twddPnSJfbv28uBA/vZv28vBw8c4MD+fZw9e8aU8eTRGuBFlEuJhMiXJAEQ+VUR4D1gOF74fVCgQAHqN2xEw0aNqVuvPpUqVyEmpojZw8qVK8nJ7Nm9i/Xr17Jp4wY2b9xASkqK2cO6lcnAY4BPLmcIoYXXvfEJYTAryrPgt1Eu6fEKMTFFaNioMY2aNKVR4yZUqVqNgAD/eFztcrnYv28vG9avY9PG9axbu5bTp06aPazr7QKaI1cTi3xGEgCRnzQAvgLqmT0QgOo1atKhU2c6dOxM1WrVzR6OR+3etZPFixaweOECtm/7E5fLZfaQ5qKUFxYi35AEQOQHBYH3gQdRVgBMYbPZaNzkbjp27kL7Dp0oVry4WUPxKufPn2PJooUsXriAVSuXk5mZadZQ2gFLzOpcCE+TBED4u9bAWJTreT3OYrHQsHETBg4aTPsOnUzbsOcrMjIymDt7JlMmT2Ld2tW43W5Pdj8FuNeTHQphJkkAhL8KAf4P5T55j3/qj4uLp2v3Htw3ZBiVKlfxdPd+4czpU/w6bSqTJowjMfGIJ7pMBMp6oiMhvIEkAMIf1QEmAB6deQMDA2nTtj0D7xtCqzZt/WYTn9ncbjfr1q5m8sTxzJr5Gw673aiuMoEwo4IL4W0kARD+JADlbPcbQKCnOi1QoACDhw5nxCOPkZBQ1FPd5ktnzpzmxx++Y8JPY4woRJQExOgdVAhvJQmA8BfFgKl48ErY2Ng4Rjz8KEPvf5DIyEhPdSuAtLQ0fp40ge+//YoTx4/rFfZ3lFsfhcgXJAEQ/qAZyuQf54nOypUrz6NPPEm//vcSFCx3zJgpJyeHeXNm8cVnn7Br5w6t4R4FvtVhWEL4BNOORAmhk6eApXhg8i9ZqhTffD+GP9Zv5r4hw2Ty9wI2m43uPXuzeNkqvv7uR0qVLq0qTnzRoo6pU6cu0nd0Qng3WQEQvioM+B4YZHRHhQoX5umRz3H/AyMIDAoyujuhgcNuZ8L4n/jkow+4cOF8rtqEhIQyfeYc6jVo4CSHD+JjI182eJhCeAVJAIQvKgvMwOCb+4KDQ3jw4Ud48ulniYqKMrIrobP09HS+/foLvvnyc9LS0m75dbGxcXw/ZhyNGv+9dcTtdu/JSo1sWqaMJdkTYxXCLJIACF/TEpiOgXX8LRYLffsN4MVXXqNoManW58suJSUxZvT3TJ82haOJiX/9fKnSpenb714eevTxm2/gtJDtdNG/WEzkLA8OVwiPkgRA+JK+KOf7DXv4Xq58Bf77yec0atLUqC6ESZIuXiQtLY2ChQrlbkXHYnFbcH0XVzjqUeNHJ4TnSQIgfMXjwOcYtHE1MDCQhx97gudeeIng4BAjuhC+ysIR7BmN4+Pjc7epQAgfIQmA8HYWlMI+bxjVQf0GDfnok8+5q1Jlo7oQvs5NNlb6xheOnGP2UITQiyQAwpvZUHb6DzcieIECBXj1jbcYPHQ4VquciBV3YLG43Rb+nVCogGHJqBCeJAmA8FZhKMV9OhsRvFbtOnz7w1hKlyljRHjhxywwPS46sq/Z4xBCK/nYI7xRKDAbAyZ/i8XCgw89wpz5i2XyF6q4oc/ZpJQ9brdbNosInyYrAMLbhAAzgfZ6B46JKcLnX39Hq9ZS7l1o57ZYLga6smvFxMScuskvFwASUN5jjwFZHh2cELkgKwDCmwShnPHXffJv3qIly/5YK5O/0I3F7Y7JIejQuaSka1WELEBPYBVwCdgP7ANSgIXIRUPCy8gKgPAWgcA0oLueQS0WC888+zyjXnhJNvoJg7idh/Ye6HX33fWHoSQAtzMWeASwGz4sIe5AEgDhDWzAFKC3nkGDg0P49Iuv6dm7j55hhfgfDoeDe/v1cq9etTK376dzURKFHAOHJcQdyUciYTYrSnU/XSf/2Ng4fpszXyZ/YbhvvvqcPEz+AF2A75APYMJk8g9QmO1j4Bk9A1arXoPxk6ZIHX9huKysTGpUrkBKSoqa5u8Ar+g8JCFyTVYAhJkeQ+fJv2OnLsyev1gmf+ERK1csVzv5A7yMUuJaCFNIAiDM0gH4TM+A9w0Zxo/jJhIWFqZnWCFuad/ePVpDfI5yyZUQHicJgDBDTZQqfza9Aj70yGN8+PFnstNfeFRmRqbWEFZgPNBI+2iEyBt5txSeVgxlF3QBvQI+PfI53nr7PSwW2dIiPCumSBE9woQAvwJF9QgmRG5JAiA8KQKYA+j2gP7l197gxVde0yucEHnSqHGTO39R7hRFSQKC9QooxJ1IAiA86Vugth6BLBYLb/7nXZ58+lk9wgmhSrXqNahVu45e4Rqh3H4phEcEmD0AkW88BryoV7B33v+IEQ8/qlc4IVQrX74C06f9gsvl0iNcTSAJ2KhHMCFuRxIA4Ql10HHT37PPvcgTTz6tRyghNCteoiRh4eGsWP67XiHbAiuA43oFFOJmJAEQRisALALi9Ag2dPgDvPHW23qEEkI39eo3ICXlCls2b9IjXABKEjAe0HzMQIhbkQRAGG0ycI8egTp26sJnX30rR/2EV2reshUHDuznwP59eoSLBCoAv+gRTIibkQRAGOkpYKQege6+pzk/TZhMYGCgHuGE0J3FYqFjx85s3rSR48eO6hGyMnAO2KxHMCFuJAenhVHqAWuAIK2BataqzYzZ8wkPD9c+KiEMdiU5ma6d2um1EpAJ1Ad26xFMiOtJAiCMEARsAappDRQXF8+iZSuJj0/QPiohPOTUyZN06dCGM2dO6xFuF9AA2Q8gdCYPU4URXkWHyT8wMJDvfvxJJn/hc4oVL86Y8ZMICtalrk814E09AglxPdkDIPRWA2X3suZ/W+99+DGdu3bTPiIhTJCQUJTChaNZuniRHuEaAQsAXZYUhABJAIS+bOhU6rdf/3t58ZXXtY9ICBPVql2HU6dOsmvnDq2hrChJwI+AU/PAhEASAKGvl4D7tAapW68+Y8ZNJMCm22WBQpimZavWLFu6hHPnzmoNFQfkACu1j0oI2QQooBDKDX3hKEV7goGwq69MIBtIB1IBO3AJOHP1v69XBdiKxstMihSJZfHyVSQkyMVown8cP3aMdq2bkXz5stZQ2UBd/nkqIAhIAApf/e8CKN/TwUAokHH1lY3yvZwOnAI0D0j4LkkA8ocCKM/ma6HUGi+FskxfCuVNIq9cKM8ijwKJV19dUEr+qmaxWJgweSpt2rXXEkYIr/T7ksXcd29f3G631lBbUa7ULnP1VRrlNkE1m7rTgWPAyas/bge2ATtQEgXhxyQB8E+lgTZAK5Tz+OXwgRMfQ4bdzwf//dTsYQhhmBefG8lPY0abPYzccAGHUYoQLQOWoCQIwo9IAuAfgoB2QCeUib+CucPJu7Jly7F05RrCwsLMHooQhsnIyKB1syYkJh4xeyhqHERJBOZf/fHGx4DCx0gC4LusQBOgLzAAiDV3OOrZbDZmzVtE3Xr1zR6KEIbbvGkj3Tu3x+n06c38ySgnfqahHE/MMXc4Qg05BeB7igEvAhOAJ4GGqHuO7zWeHvkcffsPMHsYQnhE0WLFyMrKYuP6dWYPRYsQlP1E9wIPomw+3IfsG/ApsgLgO+qiXK4zAPCbG3Gq16jJ/MXL5JIfka847HY6tG3J7l07zR6KnpwoqwGfAUtNHovIBUkAvF87lDKgjcweiN5sNhuLl62iSlXNVYOF8Dm7d+2kfevm5OT45er5OuB1JBHwal6/MzwfawT8DizCDyd/gOEPjJDJX+RbVatVZ/gDI8wehlEao2wUXA00N3ks4hZkBcD7VAI+AjqbPRAjxcbGsXrDFiIjI80eihCmSUlJ4e6GdTl//pzZQzHaXGAUsN/sgYi/ySZA7xGCcoveRKCyyWMx3HsffUKdOnXNHoYQpgoODia6SBEWzJtr9lCMVhF4GGXD8mrk1IBXkBUA79AC+Abl07/fa9CwEbPmLcJikX9+Qrjdbnp178y6NavNHoqnHAYeR3m8KUwk78DmCgc+B+43eyCeYrPZWPT7SqpWq272UITwGrt37aRdq2a+Xhsgr35EOdmUbvZA8it5BGCeOiibZNqYPRBPuv/BhxgwUPOFgUL4ldjYOC4lJfHn1i1mD8WT6gC9gTWA5qsSRd7JCoDnWYCRwDsoJXzzjXLlyrNkxWop9yvETaSnp9OmeVNfLROsRTbKVeKfAppvShK5JwmAZ4WjVPDrafZArlekSCxx8fEULFiIwEAbEQUiCQkOJttux+12k56WSnp6OhcvXODMmdNkZGTkuY/SZcow9dfZlCxVyoDfgRD+4djRo/Tr3Y1jR4/muW1YWBgJCUWJKVKE8PBwwiMKYLFYCA4KIis7m7TUFByOHJKTL3Pu7FkuXDiv/29Am1+BISjXFgsPkATAc4oDs4HaZnRusVgoXboMNWrVpmbNWlSpVp0SJUpQvEQJgoND8hQrLS2Nw4cOcvDAAQ4e2M/2bVvZsnkTqan/rAIaGBTEoMFDefnVN+TInxC5cCU5mXf+8yaTJ03AYf/nfTsFChSgXv0G1KhZm4p3VaJ8hQqUK1+BiIiIPPWTnZ3FyRMnOHHiBHt27WT79m3s2PYnR48m6nFlsVpbgO7AKbMGkJ9IAuAZ9YGZKHd2e0zRYsVp1boNLVu34e57mhMVFWVYXy6Xi/379rJj+zYSjxzBZrNR8a67aN6iFVEFCxrWrxD+KvnyZVauWMbBAwdwOp2ULlOGGjVrcVelylitxtVwu5KczB9/rGT570tZ9vtSzpz2+Fx8CiUJyFcbIswgCYDxOqAsbXnkwXex4sXp03cAPXr1pnKVqp7oUgjhx/bs3sXMGb8yfdoUTp/yWDKQgfKodLGnOsyPJAEwVjdgKhBsZCeBQUH06NGL/gMH0aTpPYZ+OhBC5E8ul4sly5fz6y+TWTB7Fg7HPx9P6CwL6APMM7qj/EoSAOP0ASZj4M19ERERDBh4H4898SRFixU3qhshhAAgPcdBjsvNxQsX+HncWMaP/p6UK8lGdmlHuXJ4hpGd5FeSABhjAMpuf5sRwSMiInjiqWd4YMQjFChQwIguhBDiH7KcTrKvK1aUmpLChB+/54evviAj3bB6Pg5gIDDdqA7yK0kA9NcS5U5s3Zf9rVYrvfv047U3/01sbJze4YUQ4raynU6yblKt8PKlJL7+5L9M+mkMTmOuN3agXJC2xIjg+ZUkAPqqBawEdD/v1qBhIz765HMq3pUvrgsQQnghh8tNRo7jlr9+cP8+XntuJH9u2mhE91eAe4CdRgTPjyQB0E9xYN3VH3UTEhLKqOdf5NEnniQgQCo3CyHM48JNqv3WCQAolxtNnTSBd994lUwVRcPu4DTQBDimd+D8SBIAfUQAG4AqegatW68+X377A2XKlNUzrBBCqOIGUu32XNXrPXbkCM8/+RjbtmzWexi7gEbIJUKayUdKffwItNYz4OChw/lhzDiiY2L0DCuEEKpZALvLmasEoGChQvTqNwC7w87WjRv0HEYsUBalvorQQBIA7Z4EXtArWEhIKB998jkjR70gS/5CCK+T43LjyuWdPVarlSbNmlO6bDn+WLGMHMftHx/kQTXgPKD78kJ+Io8AtGkIrEKnW/1iY+OY9Mt0qteoqUc4IYTQXabTif0mJwHuZPeO7YwY1J+kixf1Gko2cDeSBKgmCYB6kcAOQJfr7cqUKcuU6TMpVbq0HuGEEMIQ2S4nWTl5TwAAjiUm8sC9fThxTLc9fIlADSBNr4D5idSMVe99dJr8q9eowewFi2XyF0J4PauGz42lypRhyuwFVKqq2z0lZYD39AqW38gKgDotgGXo8OdXqXIVfps9n0KFC2selBBCGM3pdpOm8Vn+5UtJDO7VnYP79+kxJBdKAbZVegTLTyQByLswYDtQXmugMmXKMnPeQuLi4rWPSgghPMDthhQdLgI6f/YsA3t01utxQCJQHTkamCfyCCDv3kSHyT+haDGm/TZHJn8hhE+xWNDlo2NsfDw/TZ1BbLwu74FlgNf0CJSfyApA3pQF9qCxzn9wcAiz5i2kVu06+oxKCCE8KMXhwO3O3VHAO9m9cwcDu3UiKytLayg7SjG2w9pHlT/IQfO8+R5lx6kmH3/2BW3attdhOEII4XkOV24rAdxZbFwcRYsXZ8mCeVpDBaAUCZICQbkkCUDuNQY+QuOqySOPPcETTz6jz4iEEMIEDrcbl04rAACVqlQlJeUK27du0RqqKsptrKe0j8r/ySOA3LEAfwBNtQSpVbsOcxcuxWaz6TMqIYQwQWZODnaXS9eYOQ4H/bp0YPeO7VpD/QE002FIfk82AeZOOzRO/sHBIXz25Tcy+QshfJ7FgM+OtsBAPvzyG0JCQrSGugdoo8OQ/J7MRrnznNYAr7/5b+6qVFmPsfisK8nJrFu3hh3btnHo0EGOHD7ElSvJpKSkkJ6WRk5OjurYMTFFKFmqFO07dmLI0Ps9Wlfh4IH9jP9pDKtWruD0qZOkpqZ6rG/he2w2G+EREURGRhIVVZBy5StQrlx5atauTaPGTYmKijJ7iHdkNWjtuFyFijz1wsu8/+brWkM9ByzVYUh+TR4B3FltYKuWAI2aNOW32fOxWPLfH/fZs2eYMX0as377lV07d+BUUUM8r6Kionjvw0/o2buPof04nU7e/vf/8f03X2lKXoS4JiAggOo1atK9Z2969enrtceE7S4XmQb9m3e5XAzs3pk/N2/SEsYN1AG26TMq/5T/ZqS8+xkYoLax1Wpl4dIV1KhZS8cheb8/t27hs48/YsnihR6Z9G9ksVh4/6NPGDLsfkPiu91uHnv4AX77dboh8YUICAigXfuOPDVylNcdGXa4XGQYmPTu3rmDPh3a4NK2z2AScJ9OQ/JLsgfg1koCAwFNHyMH3jckX03++/ftZUCfHnRs25KFC+aZMvmDMkG/8uJz7Nq5w5D4Y3/8QSZ/YSin08mC+XPp0KYFA/v14uCB/WYP6S9GL2ZWrV6Dnv1Uf+66pj/Ke3hJ7SPyT7ICoAhAWepvhXK9ZH1A89pbZGQkazf9SUxMEa2hvF5WViYfvv8u33/zFQ797vzWrHXbdkyaou9EnZmZSd2aVbiUlKRrXCFuJzAoiEcee4JRz79IcLDmjXKaOF0u0gx+7HXx/HnaNW1AepouF/2dBTahnBBYBvyJcodAvpafVwBigQeAGcAFlH8c7wNd0WHyBxjx8GP5YvI/fOggndu34avPP/WqyR9gxbLfdZ+oly9bKpO/8DiH3c4Xn35M25bN2L9vr7mD8cB+ppjYWIY88JBe4eJR3ts/ADajvOf/CtyPMhfkS/ktASiBsjt0DXAGGA30BArp3VF4eDgPPvSI3mG9zoL5c2nXqhm7d+00eyg35XQ62anzY4Ad22RfkTDPgf376Ny+NYsXLjBtDJ5aOh4y4mFCw8KMCF0Y6AX8iDIXrAZGAcWN6Mxb5YdjgFFAX5TNIPfgoaRnyDDPHkUzw+SJ43lu5FOmPefPrfRTywhP1X572TWp5zQXKhFCk7S0NO4fOogPP/6MewcN9nj/RtQBuJnC0dH0GzSEcT98a2Q3VpQ6L01RVoFXAROBaUCKkR2bzZ8TgLrAI8C9QLgnOw4KDubhx57wZJceN27sj7z43EjdLgQxUrGgnURcuahbvLjQ07rFEkKtnJwcRj71BA6Hw7DTLrdi0e0mgDu7/9HHmPzTGBw6XEGcC1agxdXXpyinwL5F41Fwb+VvjwACUHZ+bkR5zvMgHp78Adp36ER8fIKnu/WYBfPn8vILo3xi8g+wWqhdSd+VmLpV/HtlR/gOt9vNi8+NZO7smZ7t2IM1TeITitKybTuP9XedCGAEsAVYj7KS7Ff35/hLAhAGPAEcBKag7OI3jRlLcp6yc8d2Hn5wuNcv+1/TumE8RQppur35H9o3SaBwVJCuMYVQy+Vy8fgjDxl25PVWPHmErPe9gzzY2001BKYC+4HHgFBzh6MPX08AgoCHUCb+L4Ay5g4HEhKK0rxFS7OHYYjU1FQeun8o9uxss4eSK7YAC2//q6buccNDbbw6orrucYVQKzs7i4cfGEaaPkfmcseDGcA9LVuRULSY5zq8tXLAV8Ax4AXA3POYGvlqAhCAMvEfBr4Dipo7nL8NGHgfAQF+tUr0l1dfep7ExCNmDyPX/juqLvWqRhsS+6lBd9GrdQlDYguhxuHDh3j9lRfNHoYhAgIC6NG3v9nDuF4R4D2UFYEH8dFHA75YCKgV8DGg/0c7jcLCwtj4506/PPu/ft1aenbt6BPP/SPCbHzxYn2GdS9raD85TjfPfrSFL6ccwOXy/j8X4f8sFguz5i2iQcNGhveVanfg8uBmwMuXkmjVoA4Z6eke6zMP9gLPAuadzVTBl7KW0sBPwDvoVKhHb08/+xxt2rY3exi6c7lcDBnUnwsXzps9lFsKC7FRrXwUI3pVYOI7Tbm7tvFJmNVqoePdRenRsjhuNySn2knPzMEpyYAw0c4d27lvyDDDLx+zuzw5/UNoaBgOu4ON69Z4sNdcKwIMAmqhbBi8Yu5wcscXVgBswOPAf1B2ZXql3n378cXX32O1+upTlVubO3smDw4folu8oEArLerF0aNVCWrdVYjicWHERYcQFOh/f3bCj2Vchpy8H02zO1ycvWTn1IVs/jyYysw/zrNyWzJ2h36VaX8cN5HOXbrpFu9mUhx2PL0g6Ha7efmZJ5nxy8+e7ThvMoAPUT6seuTsolrengDUAcbghcv914SFhTHq+Zd46NHHsdn8r6yC2+2mXat72LlD+w5jW4CFB3qW541Hq5MQ4xebaEV+5nZB2kX0mAXPJGXzf2OOMGbeaXKc2uNVr1GTJcv/0BzndlIddsxY7HLm5DD2u2/48uMPyczI8PwAcu9PlFLDXls61FsTABvwIvA6EGjyWP6H1WqlRMmSVK1anRatWtO+YyevvbNbDxs3rKdbJ+1ncMuViOC3T5pTvUJBHUYlhJewZ0BWqm7hth9KpdcrOzhyOlNzrLkLl1KvfgMdRnVzqQ4HLhP3BF04d46lixawevky9u3ZzemTJ7ReH2wEO/B/KHcQeN3ZaW9MAMqjlGFsaPZAgoNDqFa9OrVq16Fm7TpUqVKVChUrmn4Tlyc9N/IpJowbqylGs7qxzPi4GdEF9T2PL4RXSEsCl34341284qDXK9v5Y3uypjjD7n+Q9z78WKdR/VOK3YHbo7sAbi8rK4vEw4fYv2c3O7f9yc5tf7J3107sdq9YhV+HUo7eq45ReVsC0AflcoZIMzoPCAigTt163NOsBU3vuYd69Rvkq8n+Rg6Hg2p3leXKFfX7WSqXjWLdhPZERXjVQo4Q+nFkQqa+JeOT03Jo/Mgm9h1Tv+O9UOHC7Np32LBjyWbsAcirrKwstm3exIY1q1n7x0p2/LnVzFWCZJRHAr+ZNYAbeUsCEAx8hFLNz7MdB4fQslVrOnTqTNt2HYiOifH0ELzW5k0b6dKhjer2BcID2TqlI+VLFtBxVEJ4Gbf76l4AfSeWgyczqHP/BtIy1a8cL1iynNp16uo4qr/5QgJwo6SLF1m+eCG/L17I6uXLzFgdcAOfoRQRMn1pwht2rcWh3Mvc1FMdWq1WGje5m959+9G5a3eioqI81bVPWf3HSk3tnx9WRSZ/4f8sFggMBrv25/bXq1A8jGcHlOLNsepXjVevWmlYAuBFq/+5Fh0TQ5+B99Fn4H2kXElm0dw5zP51GpvWr/NUjRML8DTKZXW9gQue6PR2gzFTDWAWyhl/w0VGRtK9Z29GPPwoFe+q5IkufdqQQf1V3zkeFx3C4XndCQ/1hhxTCIM5siBT/6PfaZlOyvVfw/nL6j4sdujYmZ8mGnNkLsVu98Uc4KaOJSYybfIEpk+exOVLSZ7q9iTQA+WyIVOYefC6G7AWD0z+RYsV590PPmLnvkN8+PFnMvnn0qEDB1S37d++lEz+Iv+wGXM5VERoAH1bxqluf+jQQR1Hcx23Ty4A3FKpMmUY9crrrNiynVf/8y7xCR6pLl8cWAl08USDWteoAAAgAElEQVRnN2NWAjAcZdnf0Kt6i5cowb/feZ91m7Yy/IGH8vWGvrxyOBycOHFcdfvuLYvrOBohvJzFqrwM0OMe9VUtjx07Sk6OficUrvGnyf96ISEhDH5gBEs3bOb9z7+iVBnD75cLB2YCDxvd0c2Y8QjgTZTz/YYpXaYMTz0zij79BhAYKLvP1Th//hw1KldQ1dZigcyNAwgO8qVK00JolHEJchy6h82yuwhrs0z1hrtd+w/rfj+JCzepdv1/r97G4bAzc+ovfPfFp5w4dszIrtzAG8C/jezkRp5cAbCgXOJj2OQfGhrKqOdf4o+1m7h30GCZ/DXQcq1oTMFgmfxFPmTM22lIkJXCkerfy9JS9b8i2F9XAG4UGBhE30GDWbR6A6+89TbhEYZVo7cAb6GUEPYYTyUAFuBT4BmjOmjbvgOr129h1AsvERhkzPO4/ETLjVtx0VLmV+RDBj0CAEiIVl9EKy1Nv0qFf/G1838aBdhsDBnxMAv/WE/3Pv2M7GoU8A0eWp33RAJgAb4GnjQieLly5fnl11lMmDyVYsXlubNenE71Z4+Dg+RSHyH0FKzhoiwt38u3kr+m/7/FxsfzwRdfM3ryL0buD3gE+MKo4NfzxDv1Byi/IV0FBATwzLPPs/yPdTRv0VLv8EIIIW4hny0A/MM9LVszZ/lqHn7yaaNugH0ceM+IwNcz+pzWayhLGroqUiSWL775nhYtW+kdWoib2nEgmaUbzrD3SAopaQ5iCgVTvUJBOt9TjBLxYWYPTzdHT6cza/kJ9h5J4VJKtm5xI8MDCQ+1UbRIGBVLF6BK2SgqlorE4CvrdXHoeCqzV55kX2IKGVk5JMSE0qJ+HG0axufbvS75fP4HIDg4mJEvvUrTZi0Y9cQjnD97Vu8uXgCuAO/qHfgaIxOAh1A2NeiqVZu2fPHVd1KyV3jE+h0Xefa/W1m77eYFuwKsFnq3KckHI2tTKsHQU62GSk618+xHWxk3+whOD93xGls4hBb14ujaohg9W5XwuroRFy5n89T7m/ll0TFcN/yZfDRuL6USwvnk+br0bFXCpBGax0NV83xCw6Z3M3PJCp5/4lFWr1yud/h3UKoFjtY7MBj3CKA98JWeAW02G6Oef4mJP0+TyV94xH/H7+XuoYtvOfkDOF1upi4+Rq2+81m09owHR6efMxczaTx4EWNmHvbY5A9w/lIWUxcfY/DLa4lv9Sv3v76evUf0r6anRuKpNBoOWsjPC47+Y/K/5tiZdHqPXMU7o3d5eHTmk/n/f0XHxDD656m88tbbBAbqvgn9a0D7new3YUQCUAOYho6rC4Wjo/ltzgJGvfCSUc9bhPgfn0/ez6j/bs31hJicaqfH0ytZteW8wSPTV47TTY+nVrIvUd/b7PIqLSOHsbMOU633PPo8+weHT+h/dC23srKddHtyJYmn7jwGtxte/XI70xarL5rli9w+8OjG0ywWC0NGPMy46TMoWKiwnqEDUebUGnoGBf0TgGiUqka63QBTslQp5sxfTP0GDfUKKcRtbdt/mec+3prndlnZTga9tIaUdN8pkDLmt8Ns3OWx2ud35HK5+XXpcar1nssbX+/A7vD81a1f/LyfXYeSc/31bjc88+EWMrP1323vrdweXCnyNXUbNGLa/MWUKltWz7CRwBxA14pOeiYAAcBkQLezEbVq12H+4mWUK6+uIp0Qarz6xXbVE8/Jcxl8OnGfziMyzrfT1N/3YKSsbCdvfbeTxoMXcfC4AefYb+OHXw/luc2p8xnMXX3OgNF4J5dsA7ytkqVLM3XuQmrXb6BrWGAKOq6u65kAfIiOzynadejIjNnzdS9hKcTtHD6RxvzVpzTF+GbqQXKc3v8GeTnFzrb9l80exm1t3XuJegMWsHidZ/ZXHDuTrjrh+H3zRZ1H470kAbizgoUKM3bKdJq3bqNn2FYoGwN1oVcC0BMdq/wNvG8IY8dPJizMf45XCd/w0+zDmjc4nb2YycI1p/UZkIFOX8j0ic1cKekOujyxgonzEg3v69S5DNVtT57P0nEk3s1t+k3yviE0LIxvfppIz34D9Aw7CuiqRyA9EoDiwA86xAGgT7/+fPTJ5wQE5M/ztcI8Lpeb8XP0mWTGzjysSxwjZWbpf0ucURw5Loa+uo4pCw29kEXTc/z8sgfA7UaOAeRBgM3GO598TpeevfQKaQHGoTwS0ERrAmADfkbZ/KdZx05d+PSLb2SnvzDFkvVnOX5G/R0I15u76hQXLutXSEcoCdrQV9eyxEOPA8TNudye35jp66xWK+9/9hWt2nfQK2QhYDzK3jvVtM60zwN3a4wBQLPmLfl29BhsNu8qBiLyDz0/tdsdLn5ecFS3eEJhd7jo//zqXB3RE8aQ6V8dW2Agn/8whmatdNsT0BwYqSWAlgSgMkqpX83q1W/A2AmTCQ4O0SOcEHmWnGpn9oqTusYcPSPvu8nFnV1OsTPwxTU+sdHSH7lk+V+1wMAgPh89lvqNGusV8t9AVbWN1SYANpTlB80zdoWKdzF56gzCw323jKrwfZPmHdX9Ge7Og8lev8veV63fcZHPJ/vOcUt/IisA2oSGhvLNuEmUKVdej3DBKGWCVT0KUJsAPAXUU9n2L5GRkfw0YTKRkZFaQwmhydhZxmza+2nWEUPiCnjj6x2c1LBrX6jjckkKoFWByEi+GjueiAK61MxrBDyhpqGaBCABeF1NZ9ezWCx88sXXUuRHmG7XoWS27LlkSOyJ8xLJtueP3eGelpaRky/r8JtNpn99lKtQkQ/12/T+FlA0r43U7Lj7DKUsoSajXniJzl26aQ0jhGY//mbckb2k5Gzmrz7tdzfGlS0ewXtP1c7V1zpyXJxLyiLxVBoL15zWtbLfmJmHefnBahSPk5ohnqCcAJQ9AHpp1b4Djzw1kq8/+UhrqEiUYnyD8tIorwlAS6BvHtv8Q/sOnXjm2ee1hhFCM7vDxSSDC8yMnXnY7xKAQpFB9G2n7hjyjgPJvPntDn5bdkLzcfJsu4tvpx3kP0/U1BZI5Irb7ZYagDr716jn2bNzOyuWLtEaaiDwHbAqtw3ysvZgBTSnKcWKF+eLb76Xs/7CK8xZedLw8/oLVp/m7MVMQ/vwJTUqFuTXj5vx+w9tiC2s/eTPxLmJt7yyV+hLlv/1Z7Va+fCrb4lPyPMK/s18BLkv05iXWfg+oE6eh3Mdi8XCR598IZv+hNcYO9P4TXo5TjeT5h81vB9f07J+HJt/7kilMtreD46dSWfNtgs6jUrcjmwANEZkZBTvfvoFFovmEsv1gf65/eLcJgDBKOcNNRk0eCgtW7XWGkYIXZy9mMmitZ6p2e8LpYHNUCI+jAVftyIuWttKwJJ1Z3Uakbgdmf6N06RZc3r1v1ePUO8AQbn5wtwmAA+ise5wQkJRXvs/zTmEELoZNzvRY8Vkdh++wqbdSR7py9eULhrOD2800hTj942SAHiCUzYAGuqlN/9DQtFiWsOUAYbm5gtzkwAEAs9pGg7w38++JCoqSmsYIXQzbo5nz+hLTYBb69q8GG0axatu/+feS7IPwAPkHgBjFYiM5O2PP9PjUcCr5GIVIDcJwANAKS0jGTDwPlrpeyeyEJqs3XaBvUeueLTPSfMS882NcWo8NaiS6raZ2U6On5WiQEZyA5JjGa9p8xZ079NPa5iSwJA7fdGdEoAAlLuHVQsPD+elVzXXDRJCV2NN+DR+Jc3BnJX63jfgT9o2iicyPFB1+0M61hcQ/yR3AHjOsy+/RmiY5toWz3OHOf5OCUAPoJyWETz6+JPExalf2hNCb+mZOUxdZOy98rfiiVMHvio4KIAaFQuqbn8lza7jaMSNnHICwGNi4+MZNuIRrWEqAF1u9wV3SgCe0dJ7TEwRHnn8X1pCCKG76UuOk5LuMKXvxevOcEKWqm9JS0W/lDRz/k7zC7l80bNGPPEkMUWKaA1z2zn8dglAPaCplp5HPf8iERERWkIIoTutF/9Ur6D+U6rL5WaiwZUHfZktQH2BMHk+bSynbAD0qPCICB55aqTWMC2AWrf6xdt9tz2kpddy5cozaMgwLSGE0F3iqTRWbTmvun1cdAjj/tNE0xh+mnVEcwlcf3XiXLrqtlr2D4jbcyMrAGa4d8gwSpUtqzXMiFv9wq0SgAhggJYeR73wMoGB8g0pvMuYmYc1Tb5Du5WldqVC1K5USHWMA8dSWL/jovpB+Cmny82ew+pPZkRGyPuNUZQKgJIBeJotMJAnRmo+hT8IuOmztVslAP0B1RcVJyQUpUu37mqbC2EIl8vN+Dnalt+HdVOy8WHdNe2N1fwYwh+t3HxO070MZYvL40ajyOFV83Tq1kPrPQFRwE3PFd4qAchVFaFbuf/Bh+TTv/A6Szec5fgZ9UvMjWvGULmsUsxqUKfSBAepf179y8JjZGTlqG7vj76ffkh126BAK2WKSQJgFDkCaB5bYCD9h2iakuEWNQFu9g5WFA2b/0JCQrlPnv0LL6S1Hv/w6z71RxcMpkuz4qpjpaQ7+O13qQlwzdptF5i6WP3RzKrlorAFaK6eJm4hR44AmmrA4GEEBwdrCdEc+EeN4ZslAPfe4udzpU+//hQqXFhtcyEMcSXNwazl6ifc0OAA+rb73+swhnXXtjlHHgMoLl2xM/z19Zr2ZrRuKLVGjOJ2yx0AZiscHU2XXn20hLAC/whws4k+11cJ3shisfDAiIfVNhfCMBPnaivD26dtSQoW+N/S2h2aFiUhJlR1zGUbz5J4Kk11e3+Qmu6g5zMrOXAsRVOcNo0SdBqRuFGOHP/zCkMeuOVm/tz6xz6AGxOAoijn/1Vp0KgxlatUVdtcCMNo/bQ9vMc/N/3ZAiwM6lxadUy3m3xdE+Dg8VQa3bdI07FMgCKFgmnVIE6nUYkbyfl/71CpajXq1G+oJUQjIPb6n7gxAegMqH6Q1qNnL7VNhTDMrkPJbNlzSXX70kXDaV439qa/drPEIC/Gzsx/NQEuXbHzwqd/UrPPPPbocCHTvR1LE2hTvyFT3J5DKix5jY7aTtdZgU7X/4Tthi/orDqy1UrHzl3VNhfCMD/+pv3Tv9V687y4StkoGlSLZuOuJFWxE0+l8cfW8zS7RYLhrbLtLo6cvPnjC6fL/T9leZ0uN+eSskg8lcbCNadZtvEs2XZ9PlUGWC082q+iLrHEPyk3AEoC4C06du3Ou2+8erUugyqdgZ+u/c/1CUAg0Fpt1AaNGhMfL8/hhHexO1xM0rDMbrVaGNrt9pv9hnUvpzoBAOXxhK8lALsOJVOu8yyzh0HfdiWpVCbS7GH4LbkAyLsUiYujVt36bN20QW2Itijzfg787yOA+igVAFXp3qOn2qZCGGbuqlOaisu0bhhPqYTw237NwE6lCQ0OUN3HtMXHSTXpciJfFhRo5fWHq5s9DL+WI5/+vU7Hrt20NI8Cal/7n+sTgBZqI8ryv/BW2s/+3/moX1REIN1aqK8JkJ6Zw69LT6hun189O6TyX4WZhDHk/L/3ad+1G1arpj0vLa79x/VRmquNVr9BQ1n+F17nXFIWC9ecVt0+KiKQ7i1zN7Fr3gwoNQHypGKpSF59qJrZw/Br8vzfO8XFJ1Cjdh0tIf6a663X/dhIbbRmLVpqGYwQhvhp1hFyNFxhNrBTacJCbtwne3NtG8VTIl79XfZ/bD3P4RP5uyZAboUEBzDlg7tz/Xcj1MlxueX6Hy/VpFkLTc25etrvWgJQEVC9k+YebYMRwhDj5hzR1D4vn+qtVgv3dS6jui+3G8bN1jbe/MBige9fb6jpNkaROzkuuQLIWzVqereW5oWAsvB3AqB6PSEsLIzadepqGYwQulu77QJ7NZwxr1ouivpVo/PUZniPclg0lKMfO+swTjlzfVvvP12bwV3UJ1oi96QCoPeqVa8+ISEhWkLUg78TANUzeM3adeTmP+F1xs7S9mn6/p55f6ZfoWQBmtQsorrPk+cyWLHpnOr2/u6tx2vw3LAqZg8jX3C63Ugu6r2Cg4OpXL2GlhD/kwCo3k0jn/6Ft8nMdjJ9yXHV7W0BFgZ2LK2qrVwQpD9bgIUf3mjIaw/JkT9PkU//3q9mbU1zb1X4OwGopDZKrVq17/xFQnjQtMXHSE61q27fpXlx4lVe8tOvfSlNm9NmLD2haez+pnhcGMtGt+HBXuXNHkq+4nBKAuDtNJ4EqARKAhAOlFAbpaq2ZQghdDd2psbNfxo+xUeGB9KrtepvJzKznUxbrH71wl9YLDCoc2m2Te3EPXV8q0qir3Pjlut/fUClqpou3isFhFqBu1B5AVBQcDClSpXWMgghdJV4Ko2VW9Q/R4+LDqHj3UU1jWF4D3kMoEXtSoVY8WNbJr7TlOiCwWYPJ9/JkYf/PqFU6TLY1O+/swIVbCiZgCrly1fAZpOzuMJ7aL1dLzU9h0rd52gag0vjG+i67RfZl5iSr2rcWyxwT51Ynh9ehU53F9N0mkJo45Dqfz7BFhhIqdJlOHzwgNoQpWyA6hqmZctqq34mhJ5cLrfms/8ZWTm3vOXOk8bNPsK7T9UyexiGCrBaqF25MF2bF2NQpzKUK6H6KhKhF7dbyv/6kNLlymlJAErY0PD8v3gJ9c86hdDb0g1nOX4m3exh6GL8nCP85181CbjFNcRmCw6yUiz21pUPrVYLURF/L0+GhdiICLNRLDaMiqUKUKVcFE1rFaFggSBPDFfkksONVP/zIcWKa5qDS9gA1Q88E4oW09K5ELrSevGPNzl9IZMl687Qoam2/QhGqVa+IJt/7mj2MITOpPqfb4nXNgcXswJ5K3d2fetikgAI73AlzcGs5SfNHoautJ5mECJv3Djk/L9PSSiq6QNCtBUorLp1dIyWzoXQzaR5iWRm+9enl5nLT5CUnG32MEQ+4XC5NW2gFZ5XWNscXEhTAlCwkFzIIbyD1tK/3sjucPHLomNmD0PkE1L8x/dEaZuDC1vRcAtgwYIFtXQuhC52HUpm8+4ks4dhCH9MbIT3cbvBgSQAviZK2xwcZQVUV9oIC5djO8J8Y/xo89+NNu9OYseBZLOHIfyc3eWU7f8+KCzs1idxciHICqguJSS3AAqzOXJcTJybaPYwDDVeY20DIe5ELv/xTYGBmo7RBlkB1REkARBmm7PyFBcu+/dGuQlzE3HkyBu0MIbLLeV/fVVgkPYEwHrHL7sFq1V1UyF04U9n/2/l/KUsFq45Y/YwhJ9yyNl/nxUQEKCluc0K5KhtnZPj0NK5EJqcS8pi0dr8MTHmh0RHmMMupX99lsOhaQ62WwHVl4/b7ZIACPOMm30k3yyNz13l/486hOc53W5ccvjfZ9ntmt4T7FZAdQSHXXXuIIRmP83OP5vjHDkuJs/3782OwvPssvzv0+zZmubgbBsaVgDS09MpHK26krAQqq3bfpG9R66obl+1XBSzP2+h34ByYffhK3R7coXq9mNnHeGpQZX0G5DI19xuN3anfPr3ZZkZGVqa223AFSBBTevLly9RomRJLQMQQpWxs7Q9E7+/ZznKFvdsHYuyxSOoXDZKdeKyff9ltu2/TK27pAKn0M7udiGH/33b5UuaCqAlWwHVEZKS/LP6mvBumdlOpi0+rrq9LcDCwI6l9RtQHgzpWkZTe9kMKPRid8ryv6+7fOmSluZJmhIAjZ0Locq0xcdITlX/7KtL8+LEx4TqOKLcG9K1LAFWi+r2k+YfJdsub9xCG4fbhRz9931Xki9raX5JUwJw9sxpLZ0LoYrWa3KHdy+r00jyrmiRUNo1UfXEDYCk5Gzm/SHfd0Ibh3z69wtnT2t6L7hoBc6pbX38uNxUJjwr8VQaK7eo/idLfEwone4ppuOI8m5493Ka2stjAKGFCzcO+fjvF05qm4PPWwHVESQBEJ42a/lJTXeWD+5SBluA+iV4PXRvWZyYgqrv4GLphrNkZssnOKGOPUf+7fiLkyfU74UCjlqBo2pbH0uUc8nCs9bvuKip/TATl/+vCQq00r9DKdXts7KdbN+v6dmfyMfscvGP3zhx7KiW5kc1rQAcPZpIZmamlgEIkSdaNv81qhFDlbJROo5GvWHdtCUil1O0F+EKCFB/l4eWjYzezObnfyZ2p1PTCprwHpkZGZw8rs8KgKqU0Ol0cvDAfi0DECJPYgqpXzrX+uxdT/WqRlOjYkHV7Yto+HO4Ji46RHXbhCLmnKIwWmxh9X+uCTHa/06M5AaypfKf3zi4fx8u9fc4OIHjViATUL2Wv2f3LrVNhcizelXUVZ4MC7FpWnY3wlCVqwBhITYq67CSkRATSvG4MFVt1f49eLvyJQtQKFLdFav1KqtP6DwhxyVH//zJ/j27tTQ/CGRfW+/aoTbK9m3btAxCiDzp264kQYF5X6Yd3KUMURGBBoxIvSFdyxIWYstzu+4tixMemvd2N7JYYICKpCjAaqFfe/+sABpos9K7Td5/b8FBVnq1UH+80xOy5OifX9m9U/W0DbALwHr9/6ixaeN6LYMQIk+KxYbx5MC78tQmKiKQV0ZUM2hE6sUUDGbU0Mp5ahMSHMBbj9XQbQzPD69K4ai8feJ9sFd5KpaK1G0M3ua1h6oREZa3BOvJgZUoVkT9IxWjOVwuufXPz2zeoGnu/Z8EQHUqsXfPbtLS0rQMRIg8eftftWheLzZXX2sLsDDuP00oEa9uqdtorz5Ujfa5LAxkscCYNxtRvmQB3fovUiiYqR/ek+tVlfpVo/n4uTq69e+NSiaEM+HtJrk+Ltq8Xiz/eaKmwaPSRj79+5eUlCsc1rb/bif8nQBsVBvF6XSyeZPq5kLkWVCglflftWRY97JYbvMeXbRIKPO/akn3lsU9N7g8CrRZmflpcx7qU/62v5fogsHM+qwF9xpwh0HrhvEsG93mjklS//alWDa6jarHFr6mR6sSzPuq5W1LRlssyrHSBV+3UvVYylOc8unf72zduFHLBkC4Oudf+04+DpwEVL1TrlqxjBYtW2kZjBB5EhZiY+xbjXm8f0W+m36IFZvPcfZiJsFBAVQtF0XPViV4sFf5PC/lmiEkOIDvXmvIQ70r8N30gyzfdI6T5zIIDQ6gctkoujUvzqP9KxAZbtwehqa1irB/djfGzjzMr0tPsPfIFa6kOUgoEkLzunEM71GOu2sXMax/b9SucQIH53Tjh18P8duyExw4lkJKmoNicWG0rB/Hg73K06Ca92+GtGubKIQXWrNyuZbmx1Dme67/zPEL0E9NtLsqVWblmg1aBiS8zPZtf9K+dXNVbetWKczmnzvqPCIhvFxmCjiMqYtS78GNbNmfoqrtrwuXUq1mLZ1HJMzUvmlDjh5RXRL8Z2Ag/P0IAGCd2mj79+3l1MmTapsLIYQQIhdOHj+mZfKH6+b66xMATWsKixbO19JceBnL7R5I34FLDhsLoSst31NavpeF91m2aKHWEH/N9dcnADuAM2ojzpo5Q8uAhJcJDVVf6e3C5WwdRyKEjzBwo925y+pLP4eFh+s4EmG2ebN+09L8FPBXBaHrEwA3sERt1I3r18ljAD8SERGhuu3Zi5myCiDyIWM22zldbs5dUp8AhIer/14W3uXM6VNs37pFS4hFKHM98L8JwLVfVMXtdjN3ziy1zYWXiSpYSPXSYY7Tzd5EdRuWhPBZBtXZ33M0HafKhNpisRBZ0LtLFIvcmzfzN9zaVpoWX/8/NyYA8wHVqebE8T+pbSq8TFhYGLGxcarbz1p+QsfRCOHl3G7DEoCZqy6obhsXn0BIiPdWKBR5M2PKZC3N7dwhAUgGlqmNfvDAfjZtlOOA/qJ8hYqq205bfFyuHRX5hzPHkLBuN0xfcU51+zLly+s4GmGmzRvWc/jgAS0hFgOXr/+Jm5Wvmq6lB1kF8B/VqldX3Xbb/svM+F3TXdVC+I4c9c/ob2f6inPsOKy+1Hrlqt53B4ZQZ+rE8VpD/GNuv1kCMBNQnc7+NmM658+rz1iF92h6dzNN7V/+fDtZ2VKDXOQDOVm6h8zMdvHy95rOe9NI4/ew8A4XL1xgobY9dg5g9o0/ebMEIAlQfdDQnp3NuDE/qm0uvEijJk2x2dSX0j1wLIURb8ojIeHnnHZw6fsIwO2GB97bw6GTGapj2AIDqdewkY6jEmYZP/o7srM1Ha+eyw3L/3DzBABA0wz+4+jvyMhQ/w9XeIfIyEiatWipKcbEeYm88bWme6uF8G7Z+r/XvTHmMD8vPaspRrOWrQjXcJxXeIfMjAx+maB5+X/szX7yVgnAPED1On7y5ctMmjBObXPhRfr2u1dzjLe+28nAF9eQKY8DhL9xOiBHv8JX2Q4Xw9/Zw79/StQcq3sfVVe7CC8zedxYki9f0hLiDLDgZr9wu4PeHwDPqe0xNjaODVt3aKooJ8yXlZVJ3ZpVSbp4UXOs6hUK8sEztenQtKgOIxPCC6Qn6XYCYP66i7zw7SF2HVG/6e+a6JgYlm/eTnBwsA4jE2bJSE+ndcM6XEpK0hLmA+CFm/1CwG0aHQT+xa1XCW4rPT2dqMgo6sszKJ9mswWSk+Ng9aqVmmOdv5TFpHlHWbbxHFl2F0WLhBp6xa0QhspOBYe2T/8nL2QzcfFZRn55gPcmHuW8hpK/13vs6Wdp2KSpLrGEeUZ/8yXLlyy+8xfemhMYxk2e/8PtVwAAfgN6qO25UOHCrN+0jSipROXTUlJSqF+7GleSk3WNa7FAfHQoCUVCKVoklNCQ2+WjQngRl0tZ/lchM9vJ6YvZnEmyc/ZStu71MqIKFmL5pj/l+b+PS758ibaNG5ByRdP77gyg961+8U5bvD9BQwJw+dIlPvrgXf79zvtqQwgvEBkZyQsvvcrLL4zSNa7bDWcuZnLmYiZb9+oaWoh865mXXpHJ3w98+v67Wid/gI9v94u5Kfa+GairtvfAwECWrVpLhYp3qQ0hvIDL5aJz+9b8qe0iCiGEgarWqMm0+YsJCJDVNF92cN9eurdtiTNH0/6STUCD231Bbrqk7L4AACAASURBVJ7vv6NlBA6Hg1dfel5LCOEFrFYr//30C0JCZFOnEN4oNDSU9z/7UiZ/H+d2u/n3qy9pnfwB3r7TF+TmX8o+lMcA8WpHcezoUUqWLk3VaupLywrzFYmNJTomhiWLVNeJEkIY5K0PP+buFq3MHobQaMaUyYwf/b3WMH8Cz97pi3KbKl4ANB0qXb9uLQMGDiIsLFxLGGGymrVqc+7cWXZs32b2UIQQVw0cdj+PPj3S7GEIjS5euMBjwwaTnaW5tPSjKB/ebyu3CcA+oDsaVgGyMjM5ceIE3br3VBtCeInWbdpxYP9+Duy/478vIYTBWrXvwHuffYnVqurEtvAiLzz5OHt2aq6cupVcfPqH3CcAAAeAoaqGcy3A/n2ULFVKHgX4OKvVSvuOHdm/dy+HtF1PKYTQoG3Hznzy7WgCA6Wehq+bPnkiP3z1uR6hhgBHcvOFuTkFcL25QOc8D+c64eHhLFmxmrJly2kJI7yA0+nk+WeflrLPQphgwOChvP7uB7Lpzw8cP3qUHm1bkJ6muQrkLPJwdD+vCUBlYAd3rh9wW7Vq12H2vEUESZlKvzD1l595fuTTZGVlmj0UIfxeUFAQz736BkNGPGz2UIQOsrKyGNitE7u1L/07gOrA/tw2yGvqeBGIBjTV9z179gznz5+nfYdOWsIIL1G1WnVat23Hxg3rdbkzQAhxcxUrV+H7SVNoI++dfuO1Uc+watnveoT6FPg5Lw3UrB2tAQYDkSra/mXnju3EJyRQo2YtLWGEl4iLi+e+IcMoEFGAzZs24nCoK5MqhPin8IgIRr70Ku998jmx8ar3Ygsv8/O4sXzz2W2L9eXWCaAvkKfLJPL6COCaXsCvKtv+JTAwkMlTf+WeZi20hhJe5FJSEmNGf88P333NlStXzB6OED4rPCKC3gMG8vC/niYmNtbs4QgdbVy3lgcG9MFu1+UCqB4oz//zRG0CADAT5WigJlEFCzJv4VLKV6ioNZTwMikpKcycMZ3pU6ewaeMG3HrfeiKEH7JYLDRo2Ihe/QbQpnNXIiI1LbYKL3TowH7u7dqJlBRdPiD9hvKhPM+0JADxwE4gRkMMAEqVLs2cBUuIjY3TGkp4qTNnTvPHqpWsXrWSnTu2c/jwIezZ2q5SFcIfBAeHUK58eapVr8E9zVtw9z3NiE8oSprDgUuSZr9z4dw5+nftyKkTx3UJh7Lx75yaxloSAFCWHX7TGAOAylWqMmPWPAoVLqxHOOHlXC4Xp0+d4tKlJFJTU0hLS5OEQOQLQcHBREREUKBAJIULR1O0WLF/FPHJzMnB7nKZNEJhlMuXkhjcqzsH9Sui1heYrrax1gQAYDzKpkDNqlWvwa8z5xJVsKAe4YQQwudkO51kOZ1mD0PoLC01laF9e7JLvzLqY4H7tQTQIwGIBLYA5XWIRf0GDZk4ZTpRUVF6hBNCCJ/hdLtIczgBWfr3JykpV3ho0AD+3LxJr5AHgHpAqpYgeiQAoDyDWA+E6RKsRg2mTJtJdIzm7QVCCOET3G5Iy5Hn/v4m6eJFHhjQh727d+kVMgtognLjnyZ63R6xE3hKp1js3LGDnt06cebMab1CCiGEV8tw5sjk72fOnD7FfT276jn5AzyGDpM/6JcAAIxGeSahiwP799GpXWt279qpV0ghhPBK2U4nObLpz6/s2bWTfp3bc+TQQT3D6jrP6n1/5CPAH3oFO3P6FN07t2fZ70v1CimEEF7F6XKRLZv+/MqKpUsY1KML58+e1TPsSuBxPQPqfY2UE5iNUpRAl/N8drudmTOm43a5adSkKRaLXtsWhBDCXC7cZDicsuXPT7jdbkZ/9QWvjXpG72PNiUA7NG76u5FRs2lVYDWg63m+Ll278+mX3xAREaFnWCGEMIGbNEcOTnnu7xfSUlN54cnHWbpwvt6hLwNNgb16Bzby4/TdwGIgVM+g5cqV5+vvf6Rmrdp6hhVCCI/KdOZgd8pzf3+w48+tjHr8YY4lJuodOgNoC6zVOzDo/wjgeseBbSiVinTr5/LlS0yZPBGXy0XDxk3+UUFLCCG8XbbTSbZM/j7P7XYzYfT3jHz0YS4lJekd3gH0BpbpHfgaIxMAgIMozy56oONqg8vlYu2a1axZ/Qf16zegcHS0XqGFEMJQDpeLTNn05/MOHzzA48OHMnXSeFwu3f8+ncAwYIbega9ndAIAsAOlalEPdD51cOrkCSaMG0tGRgaNGjUhwGbTM7wQQujK6XaTniOTvy/LcTj48ZuveOaRBzmpz4U+N3ICDwATjAh+PU8kAAC7UFYCuqNzEuByudi4YT1z58ymTNlylClTVs/wQgihC5cb0h05SJlf37Xy96U8Nmww82f9htOYVRwnMASYaETwG3n6TN29wDgg0KgO2rbvwP+99TblylcwqgshhMgTN5DucMiOfx91+OAB3vu/11m1zNCaNHaUi/WmGtnJ9cw4VN8a5QrhAkZ1YLVa6dy1Oy+/9oasCAghTJee4yDHJZO/rzl98gTffvYJ06dMxpmTY2RX6UAfYKGRndzIrKo69YF5QBEjOwkMDGTAwPt49IknKVu2nJFdCSHETWXm5GCXMr8+JfHwIUZ//SUzp/1CjsNhdHfngM4ot+p6lJll9SoAc4C7jO7IarXSoWNnHnn8XzRo2Mjo7oQQAoAsZ44c9/MhWzau58dvvmL54kW4PJO07QG6AYc90dmNzK6rWwBls0M3T3VYoeJd9B8wkEGDh1KosC7VioUQ4h+ynE6p8e8DUlNSmD97JlPGjWWPZy+fWwAMBJI92en1zE4AQDmJ8B4wypOdhoSE0rFzZ7r37E3LVq0JDv7/9u47vo7yTPT476j3ZqtZcpF7wwW5GwPGxhUbjCEJEFrI7mbJllyyuZubbO7dbHKTvXc3yU3bZMnSAsQQMNWADS5gG9xwr3KRJVu2LFuWrF5Ou3+8OkE4LtLMO2fmzHm+n898TPG8844057zPvOV5k8J5eSGEi3UGArRZO2YsTOjo6GDj+rW8++YbrFv9Lh168/ZfTxD4P8B3AVu7h5wQAITcg9rqMDPcF87IyGDegoXMvX0+t9x6m/QMCCEMk8bfmerrLvLxRx/x4dr32fDBGpqbtO6r0+NqAF8B3rDj4pdzUgAAMBh4GZhkVwViY2OZMPFGbpp1C1OmTmPSlKlkZoY9JhFCRCBvV+Mv8/3t19jYwK7t29m1YxtbNm3kwN494RrXv5rtwBeBCjsr0Z3TAgCAROB/A/8NzUmDjIiJiWH4iJGMveEGRo0aw+ixNzBs2HAK+/UjNjZceZSEEE7nCwZo8fqRRD/h5ff7qak+y4ljRyk7dIgjhw5y5NBBThwts7vBD/EDPwX+CbXW3zGcGACEzAKeARy5fi8+Pp6i4mL69x9IfkE+2dk5ZOfkkJOdQ2xcHOnp6RIgCBEl/EHo8Pe+2z81LY2CfkUMGTbcto3NLtTUUFlxkou1Fwg6o8H8HL8/QHNzEz6vl0v1dVyqr6e+ro7aC+epOlVJ9dmz4ViqZ9RR4FEs2s3PLCcHAACpqAmCj+OA3gAhhLBC37w8vvDAQ3z18b8hNS0tLNdc//4afvvzn7Jv9y6CkqFQNz/wS9REv1ab63JVTg8AQqYA/wGU2l0RIYSwyoBBg/jNcy8ydLh16VG83k7+1z9+i5UrXrTsGlFuO+qlNeyJfXorUgIAUMsFvwb8EMiyuS5CCGGJvIICVr63lryCAkvK/+43v8GrfwjLXjPRpg71xv8kNi/v66lIGqQOAjuA33X9+yRA9v8VQrhKS3MzVacqWXTnMu1lr39/Df/2g3/WXm6U6wSeAu4GNhJBs0AjcVy9Dvg2MAZ4iQiJtIQQoqc+eO8djh8t017uk7/6ufYyo1gAeBGVzv6vgAv2Vqf3IjEACClHbS88HgkEhBAus36N3o3hai9cYO/OT7WWGaX8wB+AG4Av46B1/b0VyQFAyAFUIDAaeA6HrbMUQggjKsr17g9zuuKkU9bFR6oO4FlUW/MAaiOfiOamMfQy4BHU8MBfdR2FdlZICCGMOlNRwbYP1mkr7+DBA9rKijLVwG9Qk/tqbK6LVm4KAELOAd8HfgwsRyVhmIM7ejuEEFGiramFT9Zu0FbepQbbNp2LRH5gHfA08Brg2ExDZri5UewEVgDzgEGo5RlH7KyQEEL0VFFBkdbysjKzSE1J1VqmCx0GvoNqM+aj9qZxZeMP7g4AujsN/AgYBYwFvgfssrVGQghxFRnpGRQXFmsvd9SwUdrLdIFdqDz9Y1Dj+z8GqmytUZhEUiIgKwxE9RDMBW4D+tpbHSFEtPN4PCyYvYCBxQO1l+31eXl11as0NDZoLzuC1KK699cC7wOn7K2OfaI9AOguBrWkcAYq9fBUYDjyMxJChInH42H6pOmMGzXOsmtcarjE2x+8TUtri2XXcJAgaoL49q7jE2AvsmwckMbterKAcaihg1D30DCgH+6cQCmEsElGegYzJ8+05M3/cq1trWzevpnyynLLrxUmPuAsave9Q92OfUBUd3dciwQAxsQCBaghhALU0EE2KmAYAtxrpNDEhERLxv3EZ85dOGfmzWcv6gtGONdwVE9er6WmpFKQa03+/avxxHhITU6lqLCI4sLisG8JXN9QT+XpSuob6vH5er+dcW+drj5NZ6fhVC2vACeAeuASqiu/GtWFfw41c1/0ggQA+o1DNRS91ie7D/cuMRQ7iB7auHUjh44azt/xC+DvNVZH6PdL4G+MnDhmxBhmTZ2luTqiuz++/Ufq6uuMnj4e9UYvNImWVQBCAJCelm7m9Am66iEsM9HoiZnpmTrrIYTjSQAgokpGWoaZ08cjvWZOFoPqgTMkPd1UcChExJEAQESV7KxsM6dnAiWaqiL0GwoYbsVzMnM0VkUI55MAQESVrIwsYmNjzRQxSVddhHalRk+Mi4sjI91U75AQEUcCABFVYmJiyM401QswT1ddhHbzjZ7YJ7sPHo+M7ojoIgGAiDp5ffPMnL4ImQfgRB5MBGcmnwkhIpIEACLqmNxkpRATE82EZW7ExPbfujfeESISSAAgok6/gn5mi1ioox5CK8O/E4/HQ2G+4dhBiIglAYCIOslJyeRkm5rxLdmanOceoyf2zelLYkKizroIEREkABBRyWSX741IUiAnmYTB9L8g3f8iekkAIKKShmGAr+ioh9DiMTMna3gWhIhIEgCIqFRcUExcnKkNHR8AkjRVRxiXDNxn9OT4+Hj65UsAIKKTBAD6BY2eGAjIFtXhEh8fb3bb1RxMjDsLbb6IytBoSMmAErOBoOgFk99xhr9bxZVJAKBfq9ETG5sbae9o11kXcQ3DBw83W8S3kc+QnWJRvwPDhpUM01QVcT3tHe00NjWaKcLwPt7iyuTLS7+LRk/0+/2s27xOgoAw6d+vP0mJpnrxxwDLNVVH9N4XgBFGT05JTqG4sFhjdcTVtLW3sW7TOrM9ALW66iMUyWhmjQtAX6Mnx3hiyMnOIS01jfS0dNJT00lPSyctNY201DSSk5I1VjW6bdq2iYNlB80UsQ+1IkC6J8MrBvWzH2O0gHGjxjFj8gx9NYpybe1tNLc009TcpP5safrTP9fV1xEImmr8zwP5mqoqusjglzU2AcuMnhwIBqitq6W27soBb1xc3OeCgj/92fXfUpJTJK95Dw0rGWY2ABgH3A2s1FMj0UP3YKLxBxg2WLr/eyoYDNLa1kpTcxNNLU00N6sGPtTgN7U04fP5rKzCJisLj1YSAFhjDSYCgOvx+XzUN9RT31B/xf8fExNDUmISqSmpZKRlkJGeQXpaOhnpGaQkp5CRliETn7oU5BXQN6fvVYOtHvopsBoZowyXFOBfzRSQ1zeP3D65mqoT+QKBAG3tbbS2tdLY3EhjUyNNzU00NjXS0toSjgb+elbbeXG3klbAGu+huoRteQ0PBAK0trXS2tbKhYsX/uz/ezweUpJT1PBC1xDD53oS0tKJi42eR2PCmAms3bTWTBEDUJPRvqenRuI6vgeUmClg4tiJmqoSGXx+n+qO7/7m3tVF39TcRGtbK8GgY0exgkgAYAnpJ7bO28AddlfCqFBPwZ96D9IyyEzPJD09naz0LOLj4+2uojaBQIBnXn6GhqYGM8V0oIYDjuqplbiKUcAeIMFoAdlZ2Txy7yOuGibzer1carpEU1MTDU0NNDZ/9gbf2NxIa5vhxUlO8BZwp92VcCP3fAKcZwqwze5KWMHj8ZDfN5+JYycwfvR4YmIifzHJzn07WfPR+2aLWYvaktaxr1IRLgZYB9xqppBFty1iwhjDmYMdw+/3s/fQXnYf3MP52vNOfoM3IwhMBnbaXRE3irW7Ai52BvXgml5s7kTNrc0crzjO8coTDBk4hMTEyN5MJbdPLnsO7sHr85opZjDQAGzVUytxmW8Bf2GmgLTUNO6Yuzjig9aGxgb+8OYK9h7aS0urq6eevAX8zO5KuJUEANb6CHgINWnJlZpbmikrP8rYEWMielggNiaWQCBARVWl2aJmo8Yrz5qvlehmKvACJr+zbppyEwOK+uupkU1aWlt47pXfU3epzu6qWO08sARotrsibhXZYbDznQEeweVdwg2NDazeEPlzdKZMmEJmuuGssiEJwAogw3yNRJdM1M/UVISZnZnN5PGT9NTIRu9teI/GZlMZ9SJBEHgYqLa7Im4mAYD13gH+Oy4PAo6cKOP8FVYcRJK4uDhumzlbR1FDgf9C5tjoEAM8jclZ/wBzbppDbGxkd3rWXKjhaPkxu6thtSDwD8jMf8tJABAe/w58HXD1bj/7D++3uwqmjRo2igFFA3QUdS/wYx0FRbn/i0q0ZEpJ/xKGuyDxz/4jB+yugtUCwNdQuTWExSQACJ/foHYuM7xXgNMdPn7Y7ipocfusubqWiP0j8LiOgqLU3wHfNFtITEwMc2+eq6E69goGg675jF1FLSrD45N2VyRaSAAQXq+i0pe+andFrNDY1MiZc2fsroZp+bn5TBgzQVdxvwCW6iosiixD0+zv0htuJDfH8NYcjlFVfYam5ia7q2GVP6K+G1+3uyLRRAKA8KtBdQ/fArwCmFp35jSHjrrjDeW2mbPJzDA9IRDUrPWXieCkUDZYipr0Z/r7KTszm1um32K+Rg5w+Nghu6ugmxfV8N+M6h09b291oo8EAPbZiNrOdBDwBGqyYMQvHTty4ogrEpIkJiSy9PYluoYCklCbBd2rozCX+yKqh8x0YomYmBiWzltCQrzhpIGOobr/j9hdDR3OAquA/4b67vsistGPbaIn4btznUV1dYa6OzOBgV3HoG7/PKDrT0dvidnU3ERFVQUl/U1P2rZd/379mV46jU8+3aKjuNDywGTg9zoKdKFHUKsntEzVnzlpBkUFRTqKsl35qfJISfhTA1QCp7r+rAQquv2zqXzbQi8JAJynAbXP+b6r/P9kPgsKugcHg7qOQmxO8LT34F5XBAAAN0+9mfJTJzl3/pyO4mKBZ4Ai1G52kd9VoocH+A7wAzQtnSwqKGLm5Jk6inKEvQf32l0FAD9qXX5F19G9kQ8dbTbVTRggAUDkaQOOdB1XEg8Uc/VehAGY2EilJ8rKj9LW3kZyUrKVlwmLmJgY7py3lKdfesZsmuA/FQn8CLgReBTJcpYOPIuGpX4hCQkJLJ23JOLT/Ya0tLVyrOJ4OC7ViWrUr/b2XoXL5ixFOwkA3McLnOw6riYblbd+MNAP1WsQ+vehqGEIw/x+PwfKDjB5/GQzxThGn+w+LJ23hNfee13n/IZ7gBuAu7h6MOd2Q1GzvsfqKtDj8bD09qVkZ2brKtJ2+w/vx+/36yiqA5WdtLzrqEYNQYb+vRL1li+ihGQqE1fSF5iLGrM2JLdPLn9x/1f11cgBtuzcyoZPNugu9hJqQtSzugt2MA/wFeAnmAw2Lzd31lymTHBH4Bny5ItPUltnKn3IfaidKmv11Ei4hTv6yIRutcBLmHgzvXDxAhWnK7RVyAmml05j4lht+QFCslDzAlYDkb1LTc8UAm+gJvtpbfzHjx7vusa//FS52cb/KGoZqjT+4s9IACCu5TkzJ2/fs0NXPRxj3s3zGKgnVfDl5qMmfj6GOz+XMaitfA9jQWKkkv4lLJy9QHexttPwGXoamWwqrsKNXzRCn+cAn9GTT1Se4GK9uzIfx8bGcveiu63KLJeFejPeCcyz4gI2WQDsRqV41frWD5DXN4+7Fy1zzaS/kNq6Wsory80U4UOWnIprcNcnRuhWDbxn9ORgMMiOvZ9qrI4zJCclc//dD5DXJ9eqS0wA1nQd2sccwqgUNfb8HjDOigvk5+bzwLL7SUwwnTfIcTS8/b+LbKcrrkECAHE9T5s5ef/h/bS2teqqi2OkJqdw/7IHyOubZ+Vl5gG7UIHAQiJj0m4MsBh4H9gBzLHqQgV5Bdx/132uWG56uZbWFg6Y3/nvKR11Ee4lAYC4nncw8Rbh9XnZumubxuo4R0pyMg8su5+C3AIrL+NBBQLvosbP/xoLutE1yETtfHgYler1diwMWArzC13b+ANs3bUVn9/w6Buo5X7vaqqOcCkJAMT1eIFfmSlg1/5dtLa5M0FYclIy9y+7j8L8wnBcbgTwH6h0q28BD2JvMJAFPAS83VWnXwPDrb5oUUER9991H0mJSVZfyhYtrS3s2r/bbDG/wsT8HREdIqFLUdgvB5UdLNVoAdNLpzF7xmx9NXIYr8/LqrXvcPhY2HdD7ADWAR8Bm4FPURndrJAITAJuQu1mOQeLs0pebszwMSyes4i4OPfmMFv38Xq2mes1a0Fl/KzTUyPhVhIAiJ76NaqL15CE+AQef/hxUpLd2WUbsnnHx2zcutHOKrShxt53AMeBE11/nqLnWd5iUQ3I0G7H5K7Dltduj8fDrdNvYXrpdDsuHzatba38+rn/wOs1lXH318DfaKqScDEJAERPDUMlBjI8bHTz1FncNOUmfTVyqLITZbz1wdtmv8R160Ttt94KNHUdodmZKaic/Old/5xHmN/sryUhIYE75y1lWMkwu6tiuY3bNrF5+2YzRQRQQ0Vh2TxARDb39qMJ3Y6hxnrvNFrAoWOHoiIAGDFkBA9nZrPy3deob6i3uzohCahNoiJKTlYOyxcvtyrvguMcOnrIbBFvIY2/6CGZBCh641UzJ9fWXcTni455SXl983jsvq8wcexEu6sSsSaNK+Wx+74SNY1/R2cHdZdMD9uv1FEXER2kB0D0VB/gh2YL6ejscPUEru4S4hNYOHsBIwYPZ9W6d2huifadf3smIy2DxXMXU9J/kN1VCavOTi1zN3+ISrzkrhScwhLSAyB6Igb4AzDQTCEej4fERPdlbLuewQMH8xf3f5XRw0fbXRXHGztyLF+9/7Goa/wBkpKS8HhMT8saiPqsyne7uK5YuysgIsIPgEfNFlKQV0DpDaUaqhN54uPiGTl0JIX5hdTU1rg2L4JRuX1yWTpvCdNunBY1PUSXi42JpexEGS2tLWaLGoLq3V1vvlbCzSQAENezFLWsyPSryfTSaRQVFJmvUQTLycph4tiJpKamUV1TjdfnqJUCYZeaksrcm+ay6LaF5GTl2F0d23l9Pk6eOqmjqFmoDZjKdBQm3EkCAHEtw1DpRE0v3s/JymHxbYtct2ObER6Ph375hUwcO5FgMMi58+cIBAN2Vyus4uLimF46jWULllFcWKSj69sV8nPzOHzsMO0d7WaL8qD2j1iJJAQSVyGfOnE1qcAW4AazBcXGxvLQ8gfDlS434jQ2N7Jj76fsObCHjs4Ou6tjqaTEJCaOncjk8ZNIS02zuzqOdLbmLM+vfAG/v6d5m65pPzAdlR1QiM+RHgBxNf+Fpj3pF85eyLCSoTqKcqXEhEQGDyhh0vhSMtOzqLtUR1u7u+YIZGVkMb10OnfOX8rQQUNJSHBMniHHSU9LJzU5heMVWpbz5wMlyPJAcQUSAIgr+Tvg2zoKGj96PDdPnaWjKNeLjY2lMK+A0nGl5PbJpa29jcamRrurZZjH46Gk/yBuu+k2Ftw6n/79+hMXG50T/HqrMK+QhqZGamprdBR3A2oYYLuOwoR7yBCAuNx04EM0pILNz83n4XseitpZ3Tq0tbdxvOI4B44coKKqkmAwaHeVrsnj8VBUUMSoYSMZNXSUdPOb4PP7eP7VF6g+b3g37u68qM2bNukoTLiDBACiuwJgF2B6sD45KZmvfOlRMtOduHV9ZGpqbuLw8cMcP3mcM+fOOmYFQXx8PMUFRQwtGSqNvmYNjQ08/fIzuoaEzgKlwDkdhYnIJwGACIlDbSt7s9mCPB4PX1zyBQYPHGy+VuKKAoEA52vPc7r6NFVnq6ioqgzbvIGEhASK8vtRXFhMcb/+DOjXn9hYGU20ysnTFbz05ku6en+2ALdi3ZbRIoJIACBCfgZ8Q0dBt0y7hZmTZ+goSvRQMBikvqGeukt1XX/WU3+pnvqGehqaGggEerfMMCYmhsz0TLKzssnJzCY7K6frz2yyM7Nl2V6Yad5m+mfAE7oKE5FLPsUC4EvACh0FDSsZxr133KOjKKFJMBikrb2d9o422trb6Ozapji0XXF8fDwACfHxJCcl/+kQzhEMBnll1au6VgaA+sy/rKswEZkkABAjUbOD080WlJ2ZzaNffISkxCTztRJCfE57RzvPvPysri2mW4BpwAEdhYnIJGnZols68BoaGv+4uDjuXrhMGn8hLJKUmMTyxcv/1GNjUirqsy+zdKOYzNyJXh7gRTRM+gNYPGeRTPoTwmKpKalkZWRRdkJLiv8+wGhkKCBqSQAQvb4D/I2OgiaPn8z00uk6ihJCXEdeV5KoszVa8gOMANqBzToKE5FFAoDoNAd4Gg1DQEUFRdw5f6ls8iNEGJUMKKHyzCldmSJvA7YBJ3QUJiKHfGtHn/6oGf+mg7/UlFTuXrhM1oALEWYxMTHcvXCZrqRLMcAfUHsGiCgiAUB0Fu7zkwAAIABJREFUSURtCpJrtqCYmBiWLVhGeprp+YNCCANCAbim3rcc1HeDrP+MIvLqFl1+CyzRUdDcWXMYPWyUjqKEEAZlpGcQH5/AyVMndRRXiHo5WKWjMOF8EgBEjweBH+goaPTw0cyZeZuOooQQJhUXFlFbf5HaulodxZUCVcBuHYUJZ5MAIDpMAN4ATC8g7pPdhy/cca+M+wvhIEMGDuZY+TFa21p1FDcPWIPaPEi4mMwBcL8cVMIP02N7CQkJLF+0nIQE0zsFCyE0SohPYPni5SQmJOooLgk1H6CvjsKEc0kA4G4xqGQ/Wmb33jH3Dvrm9NFRlBBCs5ysHJbO0zLFB2AA8BLSS+xq8st1tx8Cj+ooaMakGUwaV6qjKCGERfpk98Hn91FVXaWjuMGol4gNOgoTziMBgHstAX6Nhg2fSvoP4o65i2ULWCEiwKDiQVSdPc2lxgYdxc0CdgFHdRQmnEWGANypCHgGDY1/RloGd86/Uxp/ISKEx+Nh2cJlZGZo2efHAzyHSiAmXEYCAHd6ErXRhymxsbEsX3Q3KckpGqokhAiX5KRkls2/S9dqnWzgVzoKEs4iQwDuMw/4Fx0FLZy9gGElw3QUJYQIs/S0dFKTUzhecVxHcSOATYCWjEPCGSQAcJ9fAKZb7bEjx3LLtFs0VEcIYZfCvEIamxupuVCjo7hs1MoA4RIyBOAuA4D5ZgvJz81n0eyFGqojhLDb/FvnU5BXoKOoxcBAHQUJZ5AAwF2+gsleneSkZO5ZtJy4uDhNVRJC2CkuNo67Fy4jOcl0LrBY4CENVRIOIQGAu9xs5mSPx8PSeUt0zR4WQjhEVkYWdy24S8dqnlk66iOcQQIA9/AAE80UcPPUmxkycIim6gghnKSk/yBmTbnJbDGT0LC8WDiDBADuMRTIMnrysJJhzJw8Q2N1hBBOM3PyTIYOGmqmiGxgkJ7aCLtJAOAehhv/hIQEFs9ZpLMuQggH8ng8LJ67mIR4Uxt6Gf6uEc4iAYB7GP5E98srlGQ/QkSJ1OQUs6sCknTVRdhLAgD3MBwAXGpsIBgM6qyLEMKhgsEgDeb2CZD9wF1CAgD3OGv0xEuNl/jk0y066yKEcKhPPv2EhiZTAYDh7xrhLDKb0z3igZauPw2ZPeNWppdO11cjIYSjbN+znbWb1pkpohNIBXx6aiTsJD0A7uEFKswUsOGTD9m+Z7uWygghnGXbbtONP8AJpPF3DdkLwF1GAFPMFFB+6iRxcXH07ye7fwrhFtv3bGfdZtONP8CLwBodBQn7SQDgLk3Ao2YLqThdIUGAEC6hodu/uyeAKl2FCXvJHAB3iQEqgWIdhc2dNYcpE0x1KESc87Xn2XNoL6fPnqaxqZGE+ARy++QyYshwxowYQ1ys7JHgZD6fjwNlBykrL+PCxQt4vV4y0jMY0G8AE8aMJ7dPrt1VDKttu7W9+QOcQiUBkiVDLiEBgPs8DvxaV2HREgT4fD7WblrLrgO7r/p30lLTmHbjNG4cO1E2S3IYr8/L7gO72bJzKy2tLVf9e6XjSpkz87ao+P1pbvwBvgb8p84Chb0kAHCfWGAvMEZXgW5fHdDY1MjK916juqa6R38/JTmFqROnMml8KfFxhhddCA28Xi97Du1hy86tNLc09+ic/Nx8li+8m6xM9ya009ztD3AYGIdMAHQVmQPgPkHUaoAHdBVYcbqCxMREigqKdBXpGCcqTrDizZe41HCpx+d4fV4qTlew99Be/H4ffXNyiY+XQCCcWtpa2bZ7G2++/xZlJ8ro9Hb2/NzWFg6UHSS/bx7ZWdkW1tIeFrz5B4EHgWM6CxX2kwDAnY4BfYCpugosP3XSVUFAMBhk846PeW/Danw+Yy81Xq+XyqpKPt33KY3NjWRn5khKZYtdqKvloy0f8s7ad6g4XYHX5zVUjs/n4+DRQ3iAAUUD9FbSRhY0/gA/R+OwonAOGQJwr3jgdWCxzkLdMCegvaOdN99/ixMVJ7SXPXjAYCaMncCwQUOJjZX4Wge/38+xk8fYfWAPJ0+f1F7+0EFDWTpvCUmJkZ3i3qLGfxWwDOn6dyUJANwtBXgbuE1noZEcBNRcqGHle6/1qsvfiNTkFMaOvIHxo8fTN6ePpddyq9q6WvYe2sv+IwdobWu19FrZmdksX3Q3eX3zLL2OVSxq/NcDSwBrf/jCNhIAuJ8EAV32H9lvqsvfqKKCIkYNG8mooaNIT0sP67UjTWNzI4ePHeHwscOcrQlvyvn4uHgWzl7A2JFjw3pds6TxF0ZJABAdojoI8Pv9rN20lp37d9laD4/HQ3FhEaOGjmLU8NGkynwBQE3KO3TsMIePHaaq2v4cM6XjSpl705yIGMKRxl+YIQFA9IjKIKCpuYnX3nudM+fO2F2Vz4mNjWXcqHHMnnFrxI89G9XW3saGTzaw7/B+AoGA3dX5nOLCYpYtuMvRPTbS+AuznB/iCl28wKvAdKBEV6FOXh1QeeYUK95YwcVLdXZX5c8Eg0HOnT/HkeNlDB88LOqCgEuNl3j+1ReoqKokGHReYrnG5kYOHj1Iv/xCMjMy7a7On5HGX+ggAUB0sTAISHJUELB11zZWrV3Vq/XhdmjvaOfkqZOMGz2O2Jjo+Dh6vV5eeO1F6hvq7a7KNXm9Xg6UHSQ+PoHiQuc829L4C12i4xtHdGdREFDuiCCgs7OTN99/ix17dzjyzfJKWttaiYuNddV69Gv5eMfHlJ0os7saPRIMBjl56iS19RcZMnCw7fMCpPEXOkkAEJ1cGQRcrL/IijdXcOrMaVuub0Zt/UWmTpyCx+PuaTmBQIA31rxpOIGPXWrrajlafoxB/QfZluxJGn+hmwQA0csLvILKFjhYV6Hlp8pt2Ur42MljvPzWH2lqbgrrdXXxer2MHDKC1JRUu6tiqXMXzrFjzw67q2FIa1sr+4/sJzsrh9ycvmG99vY9ljT+G1GN/9V3TxKuJgFAdPMBK4EZaOwJUHsHhKcnIBAIsOGTD3n/o/fx+/2WX89KA4oGuH672sqqUxHT/X8lfr+fI8eP4PX5GNR/UFh6bCx689+AyhIqjX8Ui7G7AsJ2qYD2VmftprVst/hNr6WtlRVvvsTWXVutukQQtf3pp1ZdoLuGpoZwXMZWDY1hu8dPUb87SyaCbN21lRVvrLA8Q6FFjT+oz7y7u5vEdUkAEN1ygXWAJanP1m5ay5adW6womnPnz/Hsy89SWVVpSflAI3APag/0ycAk4HnAsm6GhqZGq4p2DIuDnAAqd/3tqN/Z11Bd3JYsN6ioquSpl562LMeERd3+IWNRQwAFVl1AOJ8MAUSvUON/g5UXqThdoX1OwO4De3jtvddoa2/TVuZljqAakU3d/ls1anOlF1AJtMYCCTovmpKSwtgRY3QW6Tif7ttpxT4M7cAK4H7gF0B5t/93DDXMdSuQr/vCnZ2dHCg7QGJCgtYhr+17trN2k2WNf0hf4A7Uz6fZ6osJ55EAIDrlomb/Wtr4h+iaE+Dz+Xhn3bt8/OnHVi7x+wPqrfFqiejrgdXAb7r+Tj80vUXFxsRSOq5UR1GO9cmnn+gM3PYAPwIeRgUAtVf5e3Wo3ptBWPDMB4NByivLaWhqZPCAwcTEmOtYtbDb/0r6AgtQq4JkJUCUkQAg+oTlzf9yZlcHNDY18tLbL3OiUv8Wvl18wHeAJ1ArJK6nHdgG/Bb15dkEjEKlXDbE6/Myc9IMo6dHhPUfrzeb9rcB+D3wDeC7wHbU7+J6vMBrqJ6c+Vjw3VdTW8PxyhMM7l9CUpKxzI4Wd/tfTR4q6JWegCgjAUB0ySOMb/6XM9oTcKLiBCvefMnKLXzPomZErzB4/gVgLfBLoAy4CwP7bAQCAUrHTSI+Pt5gNZytpbXFzJyQIPAQ8BhqKOaUwXJ2ombALwC0J/pvaW3hQNlB8vvmkZ2V3atzw/zmf7lQT8BKZGVA1JAAIHrY8uZ/ud72BGzZuZV31r9r5Ra+m1Hj/Yc0lOUD9gF/DaQZKWD08FGkpRo61fFq62rZc3Cv0dNrUF39Oh6E06ghgRvRmAMjxOfzcaDsID6/j0HFPVsqaNOb/+WkJyDKyCqA6OCIxj9kwycfXvdNsKOzg1ffWcmGTzZYOd7/JGp3xGrN5RpemhDGZXJhZ3KVg+7lHhdQb7z/B4uWCm7ZuZU/rnqF9o5rj1CEacJfT41E9ZDI6oAoIAGA+zmq8Q+5VhBwvvY8T7/0DEfLj1p1+WbgS8Bf0bPx/t4yHgC4OBdAQ6OpIRwr1nv6gG8Dd6OWfWp3ouIE/7XiKarPXznGdFjjHyJBQJSQAMDdbB3zv54Nn3zI1l3bPvff9h/Zz7OvPGflTnFHgWnAy1ZdAKgwemJDo3tzATQ6qweguzdQ2TAtiTgbmxp5YeWLHDhy4HP/feuurU5s/ENGAh+gvkOES8XZXQFhmTz0J/nxAgeAiboKXP/xeo6WH6Vffj+qz1dz+qylG/m8gRpHtrqVNdEDYNlER9s5bAjgcgdRyYOeQ03i1Mrr8/LWB2+z5+AeCvIKOFtTTVV1le7L7EZ93nXNIh2L+g6ZA5zXVKZwEOkBcKdc1Kx03Y3/F4GZXWVrU1VdxfY9261s/P3A94HlWN/4g6kAwL09ACaHACo0VeNaGlHDAd9Az2TDP3Pq7Gm279lhReO/EZiFGtrSOaw1FvgIGQ5wJQkA3MeKMf9Q4/860AYsRXMQYKGLwCLgn1GpYsPBcABgspvc0RzeAxASBH4OzEWtPIgEG1HPeAsq14HuIEDmBLiUBADuYnXjHxIpQcAuVLfu+2G+ruHGqq29jY7ODp11cYT2jnaz92V03b9RH6H2f7BspylNujf+IVYGAYUayxQ2kwDAPcLV+Ic4PQh4HrgJOGnDtRsBw/3dbuwFMLm8sZ7wDN1crgq1h8AvbLh2T1yp8Q+xKghYjwQBriEBgDuEu/EPcWIQ0AH8JSprnGW7BfWALAXsJkK6/6+kA/h71PPkpFz512r8QyQIENckAUDks6vxD3FSEHAauBn4nd0VwdRSQDcGAKbuqUJTNcyws0fpchtRqat7krJXggBxVRIARDa7G/8QJwQBG1BjttttrEN3shKgm0ZzAYCdPQDd7UbNKVljYx1CjX9vUvVKECCuSAKAyGVF4+9HdXX2pvEPsSsICKLSud6Os9YqyxBANyZ7NZwSAIBaVbIQlUEwXKtKQow0/iESBIg/IwFAZLKq8f8y8JKJMsIdBDQC96C+jP1humZPSQDQTQTPAbiSUNC5FDVBMRzMNP4hEgSIz5EAIPJYkd7XC3wBc41/SBtwJ7BaQ1nXsh/V5f+axdcxSjYE6sZkUOO0ACDkHWAK6lm00mpUr4OOHfqsCgLeR9IGRxwJACKLVel9v4TehrQV9Xb0lMYyu3sRmA4cs6h8HQw3Wi2tLVZufxx2Xp+X1jZTE+idGgAAHEc9iy9aVP6TqM+SzhUIVgQBobTBEgREEAkAIkekNP7dy/4q8ABwVlOZdcCDqKGKnsyAttMFTNTRTcMAJjc4agFqNVXFKi2oZ/Ih1DOqwxngPqzbsVKCACEBQISItMa/uz8Aw1GpeI02iPXAvwPDgBf0VCssJCUwrlkB0BPPo571n2B8bkAz8D+7ytExJHctEgREOQkAnC+SG/+QFtRmPP1Qb/BvoxKsXEszamnfo0AR8C30vV2Fi0wExLXj/1dzEfgH1DP7FdQzfL2x+w7gLVQvQj/gB4Qv6ZAEAVFMtgN2Njc0/t01ot7gXwASgCGoCUQlqC9BL2oS4W7gMM6b2d9bEgAQdQFASBvwTNcRi3rOJwCpqBevFKAcOAKcwJpu/p4KBQEvIVsJRxUJAJzLii19Q+v8nTBzvhPVyB+2uyIWMryBjZuSAbkoB4BRfuBg1+FUVgUBHwG3AdWayhQayRCAMzl1nb/oHVkKiOtyALiZ5AmIMhIAOE8SsApp/N2gwuiJMgTwJxWaqiF6xqog4B3UsIdwEAkAnOeHqOQiuuhM8iN6x/Dba1NzE4FAuDPN6uf3+2luMZW/xvAwijDMiiBgImolkHAQCQCcpS/wdY3l2TnhT6hxz04jJwaDQZqamzRXJ/yampsIBoNGT+9Exo7tYkUQ8LdAH43lCZMkAHCWxaghAB2k8bdfALVFsSFuGAYweQ+nCf+GO+IzuoOAJNR3nHAICQCcRdeMfyfN9o92JlYCRH0AIBMA7ac7CBijqRyhgQQAzpKjoQwZ83eWCqMnumElgCwBdAWdQUBfDWUITSQAcBaPyfPlzd95TCQDivxcACbvoUJTNYR5uoIAs99xQiMJANxDlvo5k4n9AFzQAyBDAG5ixcRAYSMJANzjn5DG34kMN2KX3DAEYC4AkCWAzvMaarMi4QISALhHjd0VEFdkvAegudHMEjrbaVjKWKGpKkIvye3vEhIACGGt0xjc1Mjv93Ph4gXN1Qmf87Xn8fsN7+fkB6o0VkcIcRkJAISwlhcTyWzWbV6P1xt5Q66d3k7WbV5npoizyFizEJaS3QCFsN5RoNjIiSdPn+Q3z/+WAf36k5iYqLla1mjv6ODUmVO0tLaYKaZMV32EEFcmAYAQ1tuH2hLVkOaWZg4dc/OuyVe0z+4KCOF2MgQghPU+srsCEWiD3RUQwu0kABDCeh8Al+yuRASpA0xNIBBCXJ8EAEJYrwV4xu5KRJCngDa7KyGE20kAIER4/BrZ2a4nAsBv7a6EENFAAgAhwuME8LTdlYgAvwPK7a6EENFAAgAhwuebqMRA4srOAN+2uxJCRAsJAIQIn0bga8hQwJX4gceQyZJChI0EAEKE17vAV4HITfKvXxB4HFhjd0WEiCYSAAgRfs8A37K7Eg7yTeBJuyshRLSRAEAIe/wEuBuot7siNmoE7gN+ZndFhIhGEgAIYZ/XgUnAFrsrYoOPgfHAS3ZXRIhoJQGAEPYqB2YAtwPbba5LOOwFvgDMAirsrYoQ0U02AxLCGdZ2HTcDi4AFqDfkSBdEbeyzGngH2GRvdYQQIRIACOEsG7uObwN9gOFAPyAVSDJQ3hLgDoN1WQW8beC8dlT647OorZAvGry+EMJCEgAI4VwXMT8/oB/GA4CdyOx8IVxL5gAIIYQQUUgCACGEECIKSQAghBBCRCEJAIQQQogoJAGAEEIIEYUkABBCCCGikAQAQgghRBSSAEAIIYSIQhIACCGEEFFIAgAhhBAiCkkAIIQQQkQhCQCEEEKIKCQBgBBCCBGFJAAQQgghopAEAEIIIUQUkgBACCGEiEISAAghhBBRSAIAIYQQIgpJACCEEEJEIQkAhBBCiCgkAYAQQggRhSQAEEIIIaKQBADOEmfi3FhttRBuYuaZMnOucC8z3zXyTAnRTQwwF3gbCABBg0cH8EdgZnirLxzqJtTz4MX4M+UHPgCWAJ7wVl84UCnwn0Arxp+pILAZuBcJBkQU8wAPA5WY+zBd6dgCTA/frQgHuQM4iP5n6iCwOIz3IZxjJrAN/c9UBfAQElyKKDMU9Wal+wPV/QgAvwf6hOmehL0KUb9vK5+pIKqnqn+Y7knYKwv4OaonyMpn6iNgVJjuSQhb/TXQjvVf1KGjGpgRljsTdrkLaCB8z1RD1zWFe90EnCN8z1Q78FdhuTMhbOAB/pnwfaAu/3A9YPkdCjv8Pda/oV3pCKCeZ+E+92J+nN/o8XNkcrpwmQTgdez5QHX/wv6W1TcqwsYD/Ap7n6kg8EtkDNdNvo25ycg6jpVAvNU3KkS4/Bb7v6hDQcBDFt+rCI//hf3PU+j4nsX3KsLjEex/lkLHU9beqhDh8R3s/zB1PzqB2yy9Y2G1L2D/W1r3IwB82dI7Fla7mfDOTerJ8d8tvWMhLLYIZ31Rh46LQJGF9y2sMwHnfVEHu+o0wcL7FtYpBuqw/xm6/PADCyy8byEskwKUY/+H6GrHK9bdurBIDCrHg93PztWO7UhGykj0GvY/O1c7KoFU625dCGv8O/Z/eK53LLHs7oUV/hb7n5nrHY9bdvfCCgux/5m53vGvlt29EBYYibkUrOE6ypF0nJGiD+Fd62/0uATkWPQzEHrFo7Lx2f3MXO/oBIZb8yOIbrLe0hp/R2Q0rCXAMrsrIXrkL4AMuyvRA5nAY3ZXQvTIPcBAuyvRA/Go3i+hmazf1S8TqALSdBSWEB/D2KFZ9MtNpsMb4PS5Fo6cbNRRdMhG4BadBQrtYoHjwCAthcV4GD0kk/4FKQCcqm7lUHkDgUBQR/EAJ4FhqElcwrk2o2nzMI8HRpZkUpyfQmJ8DGcvtLH/2CW8voCO4gGaUBOXm3QVKCLjLTXSPIyGxn9wcRrf+8sbWDanP5lpn8+Jcaq6hWffKucnzx2mscVr9lI3A+OAfWYLEpa5Aw2Nf0HfZP7HY2O4b+EgcrMTP/f/zte1s+K9Cn781EFqLrabvVQJagXM22YLEpaZgIbGPzMtnn94eDQPLx38p4Ay5FJTJ6+vO80PnjzAyTPNZi+Vjvpu/ZXZgsRnpAdAv48xmXv/618azk//oZSE+GuP0NRcbOeeb25k8+4LZi4H8CPgu2YLEZZ5EbjfTAHL5w7gmX+ZRnrqtROsNbV4efiftvD6+tNmLgfwAvCg2UKEZX6Myvpn2Kwb83j1J7PIy0m65t/r9Ab4xv/9lN/88ZiZywFsQr2wCE0kANArBziPiaVQ3/vLG/iXr4/r8d/v9AZY9PUNrNt2zuglAXah9voWzhMDXMDExLqHlw7mmX+ZjqeHn/ZAIMgj39vC86tOGr0kqDrnoyZxCefZA4w3evLt0wtZ9ctbr/uS0t13f7mXH/3XAaOXBPABuaiJpkIDCQD0mg+sNnryoln9WPXL2T3+og6pa+jkhuWrOHuhzeilfai5C61GCxCWGQkcNnryxJHZbHl+PokJvYtJ2zv8TP3yavYdNfVdOwI4aqYAYYk0VCNq6EWlOD+Ffa8uJjsjoVfnBQJBFn19A2s+qTZy2ZDbgbVmChCfkVUAek00emJcrIeffLO0140/QE5mAt9/vOe9Ble6PGoegHAew88UwL89cWOvG3+ApMRY/v2JG81cGkzWXVhmHCZ6Kb//+LheN/4AMTEefvqtUmJjTL13mn4oxWckANBrsNET50wtYGSJ8VVeD95RQsZ1xnevw3DdhaWGGD1x2IB05kwtMHzh26cXMnygqZWH8kw5k+FnKjMtni8vLjF84dGDM5k9Jd/w+agJpkITCQD0KjZ64qJZ5lLzJybEmvqyx0TdhaUMPxhLbjH/K100q5+Z0+WZcibDz9TcaYW9Gve/ksXmvuv6m7q4+BwJAPQynLN6aP900xcfOsBUGVryFgjtjD9T5p4HAIYUm3os5JlyJhPPlPlf6RBz33XyTGkkAYBehvvg01LMp2QwOQTQ+0E9EQ62PlOZ6aYeC3mmnMn4M5Vs6jsG4M/ymvSSPFMaSQCgV4vRE8/XmU6+wrmLhlcBAJjO1CEsYeszVW18ZQlI1janMrzaR8szVSvPlFNIAKCX4Ry9u4/Um764yTK05hcW2hj+wtt9pM70xfeUmXqm5MvamUx8T2l4psx9T8kzpZEEAHpVGj3x9fWnCZpImXL2Qhtb99UaL0DtCiacp8Loie9uOkt7h/F0/O0dft7ddMbw+cgz5VQVRk/csrfW1Bt8MIjZLJMVZk4WnycBgF5lRk88XN7AyrWnDF/4f//ugNnNXI6YOVlYxvAzVd/Yya9fNp6H5+cvltHQbGqvCXmmnMnwM+UPBPnXpw4avvDLayopqzDV2SjPlEYSAOi1y8zJ3/zJLkNjbJt2ned3K4+buXQDUG6mAGGZ3ZhIp/vDJw9wtLL3X7hHTjaaTdsaRKWbFc5zDBNd6b995Rgf7+n9/iM1F9v51k9NfUWC+jwITSQA0GsXJvJUn6pu4a5vfERdQ2ePz9l39BLLn9hodtvNjah0wMJ5aoBDRk++1NTJkr/9iFPVPZ9LWFndwtK/+9DsTpP7UfsBCOfxoTbWMaTTG2D5ExvZf6znX3UXL3Vw1zc+oqrGVLbxOiQA0EoCAL38mMxTvWVvLVO/vJpNu85f8+8FAkGeev0EMx9ew4X6DjOXBBP7F4iwMPX7OVrZyJQHVvPWh1XX/btvrD/NlPtXc+yU6blW8kw5m6nfT83FdmY8tIZn3jhx3aHHjTvPM/XLq83OUQL4ADD1piM+TzYD0u9O4A0dBc2fUcgX5w9k5sRcivNT6OgMcKq6hfe3VPP7t09y4LiWTbE6UZnBTH86hWUmoOnNZ/r4vnx5cQm3TMpnQNf+7afOtfLhjhpeeOekji/pkHGoXgDhTHlAFSZyAoTcMCyLB+8oYd70QgYUppKYEENVTSubd1/g5dWVvL/F1OY/3S0BVukqTAgrxAPVqDHQSDhWWvNjEJrtwv5npafHpxb9DIRer2P/s9LT4ywaghUhwuEfsf8D09NjskU/A6HXl7D/Wenpsdyin4HQayr2Pys9PZ6w6GcghHbpqAlQdn9orne8Y9UPQGgXCxzG/mfmesc+ZG5RJHkf+5+Z6x3nMLF/gRB2eAz7PzjXOjqAkZbdvbDCXOx/bq53zLbs7oUVRqPmAdn93FzreNCyuxfCIh7gI+z/8Fzt+L51ty4s9AL2PztXO5617raFhX6I/c/O1Y71yGR1EaGKceZQwBZkQk2kSkNlQ7P7Gbr8OAZkWHjfwjpxwGbsf4YuP86jVigJEbHm46wutipUYCIi1wTUhi52P0uhowG17E9ErgHAGex/lkJHJ2rIS4iIdz8qSZDdH6pLwHiL71WEx2ygHfufqQ7gdovvVYTHWFS2PbufqQDwsMX3KkRYPQp4se9DVQNMsvwuRTgtBJqx75lqAhZYfpcinCajut7teqa8wCNW36QQdliC6i4N94fqCDA0DPcnwm8a9iSeOgNMCcP9ifAbDhwl/M/UJWBRGO5PCNsMBXYSvg/V86iJY8K98lF50sP1TK1BpZIV7pUO/IHwPVPpH9pPAAABDklEQVQ7gMFhuTMhbBYH/D3WTuQ6DTwUrhsStvOgft9Wdt9eRD23kugneiwBTmLdM9UC/DOQEKb7EcIxioD/h/oQ6PpAnQG+ASSH8T6Ec+SgcjzUo++ZqkN9SWeF7zaEg6SgUvGeRW/D/zOgMIz3IYQj5aIabaNDA15UWt8vAYlhrrtwpgzgq8BGjK1A8aMSWT2G6g4WIgm1ouk9jE9o3oHqReob5rqLK5AMS87TD7gNtVHHCKAE6IP6EvahZn2fR03SOYJK4LERNSNbiCvpC9wKTAdGocZac/lsbkgzKmHVCdR+A1uAD1Fd/kJcSTpwC3ATKqX4cD57puJQ30cXUcMHR4BtqKx+2vYGFub9f0XyYermeQ7LAAAAAElFTkSuQmCC;" vertex="1" parent="16">
                    <mxGeometry x="95" y="45" width="157" height="157" as="geometry"/>
                </mxCell>
                <mxCell id="22" value="Python" style="swimlane;whiteSpace=wrap;html=1;" vertex="1" parent="1">
                    <mxGeometry x="427" y="436" width="877" height="368" as="geometry"/>
                </mxCell>
                <mxCell id="19" value="CREATE" style="rounded=1;whiteSpace=wrap;html=1;" vertex="1" parent="22">
                    <mxGeometry x="602" y="43" width="111" height="42" as="geometry"/>
                </mxCell>
                <mxCell id="20" value="DROP" style="rounded=1;whiteSpace=wrap;html=1;" vertex="1" parent="22">
                    <mxGeometry x="730" y="43" width="111" height="42" as="geometry"/>
                </mxCell>
                <mxCell id="4" value="" style="shape=image;verticalLabelPosition=bottom;labelBackgroundColor=default;verticalAlign=top;aspect=fixed;imageAspect=0;image=data:image/png,iVBORw0KGgoAAAANSUhEUgAAAwIAAAFCCAYAAABCe2r9AAAACXBIWXMAAAsTAAALEwEAmpwYAAAgAElEQVR4nOzdV3ckyZXg+b+5e0hopECKyqyqLK2oVbO53TPbs7Nnd8/ZDzDz8eZpH/Zld6d7yCaLZBXJIoulUutMaB1A6HBptg/uARkSCCAh7q9OVibClXl4ALBrds1MASadTuM4DkIIIYQQQoizS2uN7/torXEymQz/9b/+V371q1+96nIJIYQQQgghjtDS0hL/7b/9Nx49eoSTSqX4l3/5F/7Lf/kvr7pcQgghhBBCiCM0OzvLp59+yqNHj7CMMa+6PEIIIYQQQohjsLPubwF4nvfKCiOEEEIIIYQ4Ho1GgyiKgCQQEEIIIYQQQpwvEggIIYQQQghxDkkgIIQQQgghxDkkgYAQQgghhBDnkAQCQgghhBBCnEMSCAghhBBCCHEOSSAghBBCCCHEOSSBgBBCCCGEEOeQBAJCCCGEEEKcQxIICCGEEEIIcQ5JICCEEEIIIcQ5JIGAEEIIIYQQ55AEAkIIIYQQQpxDEggIIYQQQghxDkkgIIQQQgghxDkkgYAQQgghhBDnkAQCQgghhBBCnEMSCAghhBBCCHEOSSAghBBCCCHEOSSBgBBCCCGEEOeQBAJCCCGEEEKcQxIICCGEEEIIcQ5JICCEEEIIIcQ5JIGAEEIIIYQQ55AEAkIIIYQQQpxDEggIIYQQQghxDjmvugBCCCGEEGeNMRBpTagNUaQJIoMfafxQE0QRQagJo3h7GGkibYi0JtLxcdqA1gaDQZv4hMlfgAEUCkCBAiylUFb8t60UlqWwLYVjWdiWImVbOLZFyrZIOYq0Yyd/LGw73sdJjhPnhwQCQgghhBAHFGmDNnFl3w81DT+i7kd4YYgbaNwgwvNDGn5ExQ2pegE1L6DhhjT8kEag8YIQL4rwgwg/bAYLmijSRMYQaYPRYEx8LWMMSsWBgFLsqPQrbFuRsuy4sm/bZFI22ZRNLu2QTdsMZZz4TzbFSDbNcNYhm3bi/Rwr3i9jk0ulyOwIEmwJEM4kCQSEEEIIIfoURJq1ssvSZp2Vskuh7FKuB9SCMKnIh/iBjnsBAo0XRnhh/LcfxH/CKN4e9wxs9x7EvQMGnQQZcY8AGKOJOwQMJIEAJL0BCqxmj0DSum9bFo6tdvQEWKRti4xjkU7ZZFPO1r9TW69bZFJxIDCSS3FhJMPlsTzXJoe4MpYn5UhW+VkigYAQQgghRBtxK3+I62vcIMQNI6qNgELVY2GjzmyhysJGnZVSg0o9wIt0ksaj0Zq4t8CYJKUH4rQeUHF2zz4K4pb9pAVebR+y4x9q54tsbzW7dosDDCCI4hd3b06+MFhKYSU9C1aSHpSyLYayDpdHc1y/MMzrl0a4cWGYiyM5hrIpcmmbbNomm3bIpx1StgQIp5EEAkIIIYQQe/ihZrPms1Sss1xssFJqsFZyWa24bFY9yo2Auh/gBhGun/QChHEAsIth6xWF2crrB7VVI1equZ2tPbfy/w3J/3bvsf3vHdV6s3O7Qant4MDsDAKS8QZxL4NBbxVk99krDZ/NqsfMeoVvX6yRzziM5dNcGMlycSTH5fEcV8bzXJnIc3V8iMmhLLYtKUSniQQCQgghhBCJ1bLL9GqF6bUqi5t1ClWPjZrHZs2nVPMp1n1qbkAQaZQCu9mKrhSWtVWFZ6tWrdiuhbfqAtilTTdBj9Suf6gWr+34YkeZtsYfJ2VIQge0MdS8gErDJ4rigcsp22Ikl2I0l2Z8KMPESJbJ4QyXRnJcnRji1tQob1we5cJI9sD3IY6PBAJCCCGEOLe8IKLqxQN3CxWPJ8slvnmxwcPFImtlF601mrjebJKBuo6lcCx7V10/ztnfX5Hfn8DTSou99qUD9Xd4r1eGXXHD9tcojALLxN0Sxm6e0iSpUiGr5QZqOU4rStmKCyM5Pr55gZ+8dZlbl8e4MJphKJNiKJsmLWMLTiQJBIQQQghxLlXdgCfLZR4vlHm5VmGllKQAVVw2az5+EG3NymMlg3MtiGfs2VXfT0bz7nkl/ke3Crlp82W749rt3+24Xsqze9t2b0IzVckkARFEpjmQOQ6OwFD3QioNn5fLJS6P5Zkaz/HG5RE+fv0ib18ZJ5eWaudJI09ECCGEEOfKRtVjfqPOk6USDxZKPF0qM7dRo1T3CaMI27KwbUU+k1STmg39XSv1Z18zCLJ29Xwkaxxow3qpwWqxTsaxGcmneO3CEM9Xynx88wJvXRnj+uQwk8OSNnRSSCAghBBCiHOh4YeslF3uzm7y5bN1HiwUWa94uGGI1vFA3pRtYVlqR64/7JxxZ78B9QRsvdRjsHGQdKC2ZeqUmtTtvMksSAAqnqq0ud5BpeHzdClgZq3KnZfrfHRzkh/dusxHNy5wdWKIXEaqoa+aPAEhhBBCnHlLxQZfvVjn/kKR5ysVplerrFdcwkgn02XGU3YqtWewbh+V5605/js6yHgA0/KfXV7csbn3dKDeU432l0kB8SyiCmPiqVNdP55utdYIKNU9ZtcqPJwr8PHNi3z/1iWuTw53Lrs4UhIICCGEEOLMavgRK6UGXzxd49P7SzxaKlH3IjAG2wLHstlb9xeHpxTYSmFbNmnbxmBYL9VZLdZ5vlzk+XKZQtXl5+9e5frkEEPZ1Ksu8rkkgYAQQgghzqSKG/BwocQXT1f58nmB2fUqFTeIB/2qeKrPtkFAvz0BHY9pf2z3dKCj6g04aDpQpx6ENscowCgMBm00xZrH/bl1inWX+fUqv3z/Kp+8cVHGDrwCEggIIYQQ4sypuAFfvyzw6b0lvn1ZYLnoEhmTtFK/6tKdP801F2zLJtLJ+IHFTYpVj9VSjWLN5ZcfXOfSaO5VF/VckUBACCGEEGeGMVCq+9ye3eDXtxf44ukapZqfVELpngbUTz5985UjGRfQ+fBXOTC4v2P2lyVehM1CG8Naqc6fqw1qng8Kfv7uNS6P5rAsydc6DhIICCGEEOLM2Kx5fPOywL/fW+Kr5+sUax7GKBylUGpwleezsE7A/pcOMlj5YOVpTkEaGk3dj7g7UyCMoFoP+dVH17hxYUSCgWMggYAQQgghzoQw0jxaKPLbe4v87fk6GxWPtGPFc95LnfLEUSqertWxLKpuwHfTa3h+SKgj/uMnN7hxcVQGch8xCQSEEEIIceppA9NrVb54usY3Lzco1QMcy0qmA+2/1bqZ8mOSNQRa7dFxsPEZWyegv2P6K0szINBa83ChgFKGXNohk3KYGs93vo44FAkEhBBCCHHqzW/U+d29Jb54ukah4mIAx7ZQBwwCjNZExqB1HAzEuyW1fgUWBsuysPcFA2d3nYCBl2XH67alUNrQ8EOeLRb53e1ZxvIZ/udPbpBK2Z2vKQ5MAgEhhBBCnFrGgBdGPJgv8vnjFV6sVbGUwjlANpABokijDTg2DKdTZNM2mZSFbSkgXjXXDyPcIKLuBXiBRilwWi1GJvpgsJQil3bwgoh7s+tcHstxdWKId69Pkk1LMHAUJBAQQgghxKkVacNcocbjxSLLJRc/jMimbOJxph1ap1u1XBuDUpBLWUwOZ3htcoirE3kmhjJk0zaWUgShodzwWCu7zK1XWSzWcf0Qkl6DfbHAeVgn4CBl2bltx2ZLKSJlqHsBd6bXuTCSI52yef+1yc7XFgcigYAQQgghTi0/0rxYqfBkuUzDD7GVOtC4YD+MUAqmxnJ8+No4H16f4ObFYS6MZBjJpkg78QrEYWSoeyGlus9Kqc6zlTK3pwu8WC3jBiEKC8eWnoHDsC0LozVzhQp/fbrEjUujXJ0cYjSXkcHDAyaBgBBCCCFOLTeImF6vMrteIwijONe8U2VxT6u1MWAwZFIWV8Zz/OTWRf75g6t8cnOSsXwa1SawMBo0hoWNGlOjOf7wYJHptQqVRoDRcddAfNz5Wyega3m6bLYUGEvhBiFLmxXuz61z6+oYH9+4SMqR1eAGSQIBIYQQQpxaVddncaPOWrlBqE3nuedbVFh1kg70xqUR/uNHV/iHd6d46/Iow9lUx+sqC2wUNy8O858+uc5wLsWfHi1zd7bAZtUHo5NxBfsK0fHLftJoup5730vHt05A2+N6XHdBqTggaLghTxc3eLY4yVtT46ScdJfjRT8kEBBCCCHEqeSHmuVig7WKR8OPsCz6WoQqjAyOrbg8muXnb1/iXz6+zjtXRul3mPFrF4b4D+mr5FIOfhjxzYs1vEAnE4yKg3JsOx4Dslbh2WKRX77vM5qXQGCQpH9FCCGEEKdSse4zu16jXPeADtV3Y1qmBIVRRC5t873XJ/n521PcmBzudJaOLo7EwcSPb13kyng+mRffdG4w72sqz069AS1Otuullhfbf819vQddBlu3vLkux3W0+zhLKXRk2Kx4zK+VWSxUiCJ9wHOLViQQEEIIIcSpVGkELJca1LwQpWg9fWebmrjBEBnDcDbFJzcm+PjGxKGnqLw4muXjGxf44LUJhrMpgkhjTLNivKMy3zIA6FBR71i37hQAtNjeaseegwY6BAA9XKufqMjEIZkintJ1abPGvZkCy8Va+7KJvkkgIIQQQohTyQsial5IEOm+ZpPROq54jmRT3Lw4zK3Lo4zlO48J6IUhHmvw/ZsXGB/KEOmDtoyLZmygFDiOYqPa4O7MGjOr5VddsjNFxggIIYQQ4lTSxLP3GFok9HRofdZGo1BcmxjikxsTXBnPDaQ8Crg4kuGtqREmhtPYKqnPNtcX6Gt2INN58yldJ6Cn8pjt15VS2EC1ETC3Vma1VEebePExcXjSIyCEEEKIU8kCLKv/rP5Ix5XTqxM53r82xuRwZmBlsi3FhZEsF0ezDGVTKNXDRDki1iorScVBVBBFlBselbqPH0SvonRnkgQCQgghhDiVlFJYSqGU2pHi3j2HPa5vGkZyKS6P5shnBpsgkXIsJoYyjOZS8Zz4plWreLtc/E5jCdocd9CBwUc6LqDb5j3X3NUT0PqgSBtcP6ThSyAwKJIaJIQQQohTSSm2F+1qVlRbpozsnzHIEFfY8xmnzXz/B2cpRcaxSTtWUqffmbw0wDSafS/1OzNQt/LQfwDQ4zoB+14yrbfFGVVxoKeNwY8i/FACgUGRHgEhhBBCnEuRNjtm9hkcgyGM4j+ii37eImOItCHUMoXooEggIIQQQohTa7tXoB2z/6vkgJobsFH1cAeccx5EmnLDp+4FGGOwuvYG7EgH6rS97Ut9pAN1Oueuze3Sgboc11GbezDdzmlQzbIc5vJiHwkEhBBCCHEG7a8xxtknZqvys172mF6rUmmEA71y3Q3ZqLiU68H2jEGdKuodK7edAoAu56VV5fkoxgM0A5keyrLvpV5SiZIZhFBYlmLAmVznmgQCQgghhDhX7GSmoeVinQfzm6yUGgM7d8MPmVuvUqi4eGEUjw6Qiut+/bbqJ6uLWQqZOnSAJBAQQgghxKkU1w2b68827W59NjtfSVqsLWVhKVivujxZLjKzXsEdwEw02sDL1TJ3Zzco1r044FADTgfqtL3V6z31HjQ399Giv3Nbvz0auts5u2yXOGBgJBAQQgghxLmiktghCDWrpQb35zeZKVQPfd4w1DxZLHJ7pkCp7pNyLOkN2Eny+08cmT5UCCGEEKeY2fNvte/V1i3dipRt4QYRd+c2uTqRZyST4spE7kCpJ34SBNyZKTC7XsH1Q2xLJT0WLcrbawv6vpe6taL3ewxdpvzsdmyPG/oaE3DAsoi+SSAghBBCiFNJqXhRMdUcqLpzYbGmNpVcBTi2Iog002tlPn9ok7IUv3rvKjcuDvVVDjeIuDNT4Ld35vn7szWqXhAnLO0LKDqlAiXbO77U78xAnY5pbu5zYPCA1wno6Zpdt4mDkkBACCGEEOeSpeJFqmpuwMOFTXSk8QLNL965zNWJPGP5dMfj/TCiUPF5tLjJH+8v8sWTZVZK9bgnQKa2iUn9/USTQEAIIYQQp9LeOmb3dKD9ezfTgOpeyKPFIlU3YLlY58e3LvLW1CijQ2nyaYeUbSWnNXhBRLkRsFKq83C+xF+frvBgboNS3cOi2UvRomSnIh3oMDX3o0oHkmjiqEggIIQQQohTKU6/if+9NTrgAKkrFooo6Rl4sVqm6gXMFapcHc8zkk+Rz6TIpWwsFS8WVvdCqo14MbL5jRoza2VKdR9LqWRcwJ7r9ZMO1HNqz3GOBzhgIHOoIEAq/8dBAgEhhBBCnEqDTL6xLYVlWWhjWCnWWS01cGyLtGORdmwyKQvLUoRBRCOICENDEEaEWgOGtCMTMe4i9fhTQQIBIYQQQpwN28v4ttuhzUvNlWtj2hi0NvihpuHHp7SSgclGGyJtthr6lTItegF2XGvg6UDd1hbo4CDpQP32sBxpT4CkCQ2aBAJCCCGEOOUGVzlUSmErhU1cBzbJjETGgNHxdbYq/ooW04OeY0ddT5cYYOAkEBBCCCHEKbV3ReF2lfJOre/ta5dKNc+YTEuqdl51wPn0nba32nbU4wK6VrqPeZ0AY3ZcQ4KvQZFAQAghhBCnk2rO1a86xAHtUmn6S71R7bbv3VnWCejv2I6vJ9tMt/dVHJSMbBFCCCGEEAdz1BV0s/tviQcGS3oEhBBCCHEqxX0B7RLTOw8M7qrlbmchHahT+k3nUx5vOtCOVKDd/xQDJIGAEEIIIU4tpZKJgrZydw4yHqBT6k2n45Jt/aQD9Zzac5zjAU5SOtCOoMpI5f+oSWqQEEIIIU6xXVGAOC7HlRIkjpT0CAghhBDijGgxYrhrq/VBewOOKh2oUw/CUaQD9dmif+QDgzvtItHBoEmPgBBCCCFOL4PMKnNcjjpPR/KAjp30CAghhBDiVIvrjwZj1HYDd9dxAXtO0NuL26+/6oHBauewiIOMC+hwSKsdjmtgcNs9JUI4ChIICCGEEOKU2jG7vzEY1apO3G/FdYADg3ve3qkG3PoYZZJI4EysE7C9S+sAQIKAoyKBgBBCCCFOJwVxXwBoY0ArrK2kZ71zpx2aNc5+KpcH6AXYtWkwYxSa/1JxBJD8+4jJoOAzTQIBIYQQQpxKKVsxNpTm2kSeKNJYSmFbzarxQVN7DnLM8QQCEE+VGmmD6wfU3BA/jDAmmUK1p7J0cpLSgSRCOA4SCAghhBDiVBrPp/n+6xeYHM5QrgfxRKKqWyBwEIcIBHo9dw+nUUrh2Ipy3efFcpH7swXmC1X8SOPYqv0JTlQ60I73suXb2iWQkUyhgZJAQAghhBCn0kguxQfXx3nv6lh/mT59Oxk1zzgQsFgvN/jLowVWinUWNmpxWtSgk4QkJehckEBACCGEEKeSpRSWrcB+1SU5XsPZFNmUg21bSUpQh2byE75OQF+9AdIdMHCyjoAQQgghxCkSaoPWBrN/rtTDOep6ttTjTxzpEThCxhh0ZNBGxwN5uu2f/K2UwrYtLEuWTBdCCCHEbsaYpM7QqSeg61n2f3kSBwbvK5fUjQZJAoEjVKt5rC4XKW5W8YMIpTp/fA0QhhH5fIbXblzi4sVRlPTZCCGEEGKXAaYC7Trdq1onoNMppRvhKEkgcIQ2N6p8/eUzHj+ap1JpoJTq2MpvjKFR97lybYL/9J9/wOTkMLYlkYAQQgghtmVSNinbwlIDaB0/U4OCDeg66AaYgNa9CD0WqNVuSgEWqBRY6fhvleI0Z9pLIHCESsUad25P8+fPH1IolLZSftrR2lCtNHj7nau898FrfO+Hb2Kf4g+XEEKI88Ukrcq7q18nPZVjb42vzQJkPTuK6Ut3n9/1Q/xIJ7MF9XO5U5AOZLps79gbEkGwDN5TCItAxL7n2etj2befiQMBlQZrCJwRsEbAGgZ7FOxhsDKctqBAAoEj5LoBS8ubvHi+xNp6CQDHaj+1gTaGWlTDcWzKpfqOQUBCCCHEyeT6EcW6T6nuU/dC3FATRRqlwLbiBb4Uake96gC/2/rNdx+og+bgD/h6xFVaZSnKdY/plTKVuo8xJqnq9llZP6nrBHS9jy7b/SWofQPBAhifuGJubR/b8Xa7bQeUHVf4rTyoHFi5JDC4AOkbkHsLnMtdTnJySCBwhIwxRFFEEEQEOopf0+331xgM8f460pISJ4QQ4sQIIk3Dj2j4EX4Q0QgiKo2A9YrHWrlBoepRrvvU/ZAoMigFjqWw7X4DgRat1l312zK+Y8dWLb8HOq7f8/R/fqXiQMD1Q1ZLddbLLsYY7IOkCJ2plKAdF9VVCJbAmwHjEc8t21xs7bCBwN6NNvFgThvsMci+CcH3IPs+pC7FPQVW/jA3dOQkEDiB4u/nk96VKoQQ4rzYqHosbjaY36ixuFlntdSgUHEp1n1qXoQbhPihJgg1kdZbPdpKqd2/00wvAz/7DQS67d9Dy3U/FzzIvPy9nrttRXTHiyouQhBG+KFGa7rMMjjodKDeBwbv3/ug6UDdtu0tgwZ0/PfWgss9nLvtLju3mx2vBcmXCowL9Qp4c5D6Jg4Kch9C9u24h+CEzv4igcARaw4QtpIfgh0H9iQfpu0fnEIIIcSroY1hrlDjyXKZmbVqEgC4rFUabFQ8Sg0f14+IdNz632yVbs6Qt7O6dOCZbNpt211SMK1+aZo9f8OukrUsk4rPt+9UO8/foWt/5/W6VehbvrwjEFAtdtjapuKEF0v1N2C4lzjsMI76/D2x4vQd5YCK6F6hOmhAtHe7hrAEwQb48+DPgPsCsu9C/hPIvQP2eG+3cIxOTSBgDGgd5x1qnaTN9PJsFdi2lczLfzKjMSGEEOKk8PyIkuuztNng7y/W+eLpGjPrVRpeiDYGreNWaG0MKdsilQx9217hNtZXQ3grPR9jddm3TWWhZfCQnK9jWTrVJXZUTlq+Ae3K0ml76wqPMiRveo8t94fuCei07YA9AVubul2z13SsNuXqVmE8bCxAcg3lAHbSZbMaD1x2n0IwD1EJ8h+BcynZ72Q4OSXpIgxD1lbLzM+ts75eRkcaq8MMPABRqEmlba5cGee1G5eYmBzuOGuPEEIIcZ5VGgH35jb5dmaDl6sVXqxWWSzWqLohRhusZACwlfRcK9SeAEDtr/Ia06VVdk9Fd+sE7SrHeyu4exfp6VKpbgYALYvUotJtdpalw3mb2/a/Ae0ulmxu9/60uY9m0LAn8Np/3J6XjikdaP+e7XpBDpNi1cHWpE2my2evn3SgLuXbGWw0gzMTgvFBr8aDl8Mi+LMw9HPIvR/3WpwApyYQ8LyQly9W+P3v7nD/7gxBGJJOdSi+ATcMGM5l+cnP3uE//sv3GBnNSyAghBBC7NHwQ+YKNe7Nb/L35+vcnSuyUmzgRxG2ZZF1LBSdWp/FiXXUj0w+Ei0kvQPKIU4Z2oTwdtxLEFbjACH7LthDr7qgpycQCIKI5eUi33z1nM//cB/P+GStdPsDDNSNx3h2iEw6zfd+8CZRFHGKblkIIYQ4cpVGwMPFIp89XOavz9ZZKta3Bv3aSmFtNbh3by3enQ1z0HEBPdYs+8nB76d1d99LfdxHP/lQbd+fbmk0PZal+eVJSwc6SE9AP8FGsydgkJ+FQ21XxOlCIfjLoP8EugajHgx9P55+9BU6NbVirTWuG1As1lmvlQGfKh0CAcDgEtYjyuU6vh8eT0GFEEKIU2J2vcbfnq/x7ct17s5tMrteI9SGTMrGtqwky+G4AoA22/a+3lcAkGzrWKR2KSjHHQB0OPag7+mRpAPtqEi3rFN3CmQO+p72cO5dheoSvAzy+t2evVFsjxsJ4qlNqyHoME4jGv4J8RSnr8apCQSUUjiORSbjkCONC+S6BAJ1NLl0mnTakZQgIYQQIhFpw3KxwWePlvn1nQVerFRwg4iUbZF2ZOa6M0FSgk4WZREHBBFEG1D7Eiwn7hHIvvPKegZOTSDQpFS8MIlKptlsKxm4EU/FKT/RhBBCCAAMzKxV+ezRCp89XObFSoWqG8SDgJu9ANBz6srRpwMdtJX4oOlAhxnEehTpQAdNpRl0T0Cy7ajTgQ6cstPD+Xs598B6Atp9YYGJIKpA9Zv46zEf8t+DTinvR+TUBQJCCCGEOLhnq2U+vbfEZ4+Web5SwQ81jm1hd1yUSpwK/ebTn7TznwsqnjHImHh60eqX8erD1ki81sAxLzwmgYAQQghxDmgTpwP94eEy/35vkblCDT/QyaJUO3bsMYf96McFdD588D0BvZTlOMcFdCnKaRgYDAMaF3DI3oC2a0b0ev32X/a9Hdg1JWxYgtq3YE+AMwrpK3ScbnbAJBAQQgghzoHFjTp/eLjMZw+XmVmv4gURzs5UIOgpdWV/PeegqTQ9pqb0VLHasa3XwaC7XjpMZXXA6UAnamBwsm1HXXz/nkeVDnTYroek0G2DgONMB2r3sg0mAG8W6t9A+hJYGXAmWx97BCQQEEIIIc64cj3g2+kNfn9/iSdLJcJI41iSDnQmHHWqjqQCHR1lgdFgXHCfQWU0DgKGxo5twTEJBIQQQogzrOFH3Jnd4Iunq7xYrVD3ItKOtXsijWNNB+qxZnlm04E6pdF0KcppSAc69IrBnd63w6YJHfD6g+gJ2Nq0Z7uyADtedKx+DzI3IfMapK62P88ASSAghBBCnGGr5QZfPl/jm5cFSo0ASymsnoKAQQcAbbbtfb3vNJE+04FeWQDQ4dgTlQ60I6hqGV91qugecTpQP3FAc1+198U+rz/QdKB2hU9ShIIC1O5D5g0YGQXr6FcelkBACCGOSBRpgiAkDCOMof1UxskvT9uxZd0TMVBrFZevXqzz7cwGy6U6lmWRcuTzdSac25SgM5rOphzAgPsynlY0cwOyb3PU9yuBgBBCHAGtDeVSnZmZVZaXNtHatK3gax23aF6eGuONN6eYmBzGktxtcUheEPHd9Aa/u7fE9FoVAEup7WqFrBPQ23FHng50gPIcSU9Asu2o04EO0uPTtdenD8fZE7C1qZfPjRXvF65C4xE0PoLUZbDHOh97SBIICCHEEYgizdpqib/+5RFff/mMwI9IZ1Mt9w38EAz84Me3yOezjI3lsaxXtw9upzoAACAASURBVOS8OP0ibVguNbg7u8GDhSLluk86ZZ3VttTzYxAp8q/y/KIDRRzwhPH6AvXbkL4K+Y+T3oKjIYGAEEIcAR1pNjer3Lszy6e/vYvn+eRymZb7el4Qp7Jaip/+7B20ngIkEBAHV2mE3Jvb5OlymYYfopRiqy9A1gnorSBHPi6gS1EG3hPQadsBewLgCHsD9o9VOLhun5lOxenUQ9ThpL1+5na9fwpUCnQDGg8h82acHmQPdz7HIUggIIQQR8AYg++FbBQqLC5u4OKRV9mW+7rGxwCF9UocFEiLnDik5VKDvz1b59FiiSgy29OEHvU6AT1Vng9YsWpu61icAaQD9VUe+k8HOuisOseUDrR/z+NOB2pXEMOugvakmVZ0mAXFWu862ACgKVl1WHvgLYI3D1HlSAMBGTEkhBBHxQDGYJJfCMaY1n+S/zBGggBxKMbEawY8XCjycKHIWtkFwG43UF2cbGbP30d5DXFyGANRA/wFcJ9DVD+yS0kgIIQQR0XF/1M7vuz0BxRSXxOHEWrNk6Uyt6cLbFRdlCL5TJn+ewNMp2Oae7dK3+ix1bblbp3K2Kk3oMXJDpJKs6/Ft0tKTMv3p8Nx/aQD7WoA7/aedtreKR2oU29Am3P287loefkuZR1YKlDbLo7W+3QqZ69l6uVZdXv/DGyNF/DmoPI1eAs9XPxgJBAQQogjpFQcCihUnKfd6s/W9lddWnHaBaHm+WqFx0slal6IY3caILxdYdldjz9MRa9LRb5tRe8wlcNOAcARBDId3592AUDzmG7vT6tT9RHIdDvnztfb1nM7BTJ9BlUDCfQOGBm0PazPQKWXz2rPgUKXnba224AFwSrU74M/Cybq4QL9k0BACCGEOAMMUKr7LGxUWS418EMtKUGn1aFbxE/INY7AufhEKxWvOKzr8QxC/gJERY7ioclgYSGEEOIMaPghs4Ua8xt1Ko0AbQxOy/Uo9ieAbH/RZ4tvm3P2dky3Y3tJ7Wj1Up8t6D3fB/33BHQ8psWx+3omejyu17K06F3p8GnY8fJBPxd9lKmHY3b2pHYsSi+fmW7X7PU+evn8dH372u2g4oHD/nL8xx4Ble5ysv5Ij4AQQghxBqyWXb5+WWB6rUKktaSaif1OaS/ATpYV/zkf7DglKFiJxwlof+BXGHiPgNYGHWl0MhtGTwxYlsJ2LKxX8HS1Nmit0Touc3PQXjvNGUAsy8K2LVkBVAghxCtlDMwVanwzvc7CRm17utD9e7b4F4ds8e3hd/2x9AT0UpaD9GjQ5f05YCtwq7IcpEejp20H7AmAI+wNaPec25dMEc+A1f7z3c4r6gnY2nSQCCxJDyJZYCxYjgOBAS8xM/BAoFissThXoFAo47pB10qyMYYoMoxPDPHmrSkuXR7Dto8vGDDGbM3zvVGo4Lshlt2520lHccBw4eIIN9+4xMTkCI5zbsJTIYQQJ0zFDVgo1FjcqFNzQ3JpZ0+PQJsAAI4gHahT6k2n45JtHYszgHSgfgOZ41gn4BjTgfbvedzpQJ0CvdbPt1kUBTi2RaqveqJhq3G377SlQ2zv9Zl2fJ+tuEfAX4tTg8wp6BFYXtrkT5894N6daTaLVWzL7hgMRJHGCwPefec6/8f/+VPGx4ewc4PNf+pEa8PCQoHP//iAB/dmqZTqOI7dMRAIg4gIwyef3OQ//+8/YmQ0L4GAEEKIV0Ibw1rFZbnYwPWPZmYRcUSOI1XnDKQDASgMllKkbJu0c16GuCowOl5ULFiDcANSl+JFxwZk4O/kRqHCnTvT/PF3d1lZ28RRdscW/iCMaOCzsVrhhz9+i0++93rbfePZt7YX3+meerS9YE87WhvWVsvc/uYln//xPuuFMhnH6Ri8eH5IhMatefzwx28RvR8BqS5lEUIIIQbPjzQrxQYrpTphpOOGrF56A45kYHC33Y4zHegQ6RzQf09AD6fc954euieg07YDpgMddOXjruXZUaZu59xbHhMHAemURTZtk2rX+GoAdPKnefNqsOk+3Z7ZQHoCmtubPRk6DgK8GchcBXui87F9GHgg4PshxWKN1dUihVoRsLE6jEnWRIDL+noZ1/XRuvV+xoDWmiCI8AkxhPhdxzqH+H5IGEZo3f4N91yf4maFlaVNin4RRZpOMy9H+ICmUKjguj6mw7mFEEKIo+QHmuVindWSS6g1ltVcxG4AAcD+g7sf03f6RZ/pQK8sAOhwbL/v6a6XBp0OtCOoahlfdal091qWo0wH2vVyPDIznbIZG84xnMt0yNowgI7Tadpe8xCfD3PI7dBjALCDAoyCsAjuE8jdOtmBgGVZpBybTCaFXUvhYGN3qLAHWARo0mkH27LajtG1LMhkHEZHc0wMDeNqn5zVOYWoph0mssMMD+dIpdp3o1iWheNYZDIOyk+RwekYCHgYIjSplP1KBjefdVprokgng7i3e3SUUlhKoSyVDC63T/R8wmEYoSODNhqjzdaPBqXi8luWwrYsrGMcE/MqRKEm0hqtNUbHP9Lj6d9Inmf8/ddxOrhjEn/2DEYnz62Zl6pAKSuZrcI61nFMg7RzMoet7y1joPk8LAvbsrBPYarjrs9Z0nvcrF/Gzy8e+2VbCss+vc+wlSDSrJRcVssuYWSwX/23kuhGUoJ6ZojT34ayaa5fGGFyJNdhbw0mTP5ozsaqAypOBQor0HgBQ8uQfW9gZz+SJKv9q2W2fxDKKGju0+F5OY7N5IUR3nv/Om7DxwsCMqnO6Tiu7zMylOPW21cYHc13/MHfb5m77SMOplppsLlZo1pt0Gj4eG5AGMQ5r07KJp12SGdS5LJpRieGmBgf6hjkvQpRZCgVq2xuVKnW3OQeQsJQoyxFyrFJZ1Jkc2lGhnOMT+QZHsmduc9TGEWUNmuUSnVqVQ/X9fH9EK01jmORSjmkUg6ZbJrRsTyTE8Nkc68uxa5SqlMs1qnVXDwvwPNDwiAEiMuadkinHfK5NCOjOUZH86TSpydPtV51KRZrVCounh/g+3GPqdE6bsBJxQ04Q8M5xsZOz/35fkilVKdUblCrNnBdnyCIiCJNFMbpAZZt4Tg26XSKfD7N0FCWsfEhRsZycQPUKeeGmrWKy0bVIzImSW09znSgo2glbrOha4vrq0gH6vM9PbKegGTbUacDDazHp7fUGpPM7DiST3Pz8jgXxvIdLqVBB/GfuOWpbZpc65dOQjrQXs3FxRrgr0CwEQc6ajA/n0/+T/lEOu1w48ZF/vGfPuDNW1OEQYTTpQIY+BGZbIo3bk1xeep4ZyM6y8JQs7lRoVKu0ykrymhDKhUHcKNtvnGNNlQqDcqlOpsbVVZWi6wsF9koVCiXG9RrLl4jACCTS5HLpcjlswyP5Lg8NcH165NcuDDC6FiO0bE8mcyrqUiGYUSpVN+6j6WFDRYXN9jcrFKruniuj+9H2LYik4nvYWQ0x+TkCFNXxpmaGmN8cpjRsTwjI7m2n9VqxaW4WcX1grZlMcZgNIyM5rh4abRjoBTPmlVlc7OK0QbVbmyMiStT4+NDjE8Mtx1DEzXfh3KD9bUSy4ubrKxssrlZp1pp0GgEaB2RTseVslwuTX4ox6XLY1x/bZLLU2OMjw8xMTlMKnW0P56MgVKpRrXSoFSss7S4wfLSJsXNGvW6R63u4bkBSkEmkyabT5PPpRkdzXHh4ihTU+NcuDTK6Fie0dHcK/vsdVIpN6hU4s/lytImS4tFNjYq1OoerhtQb3joMEoqyQ5Dw1kmJka4PDW2fX+jOUZGc2SzrXtgPTegXKlTq7oEQdQ6oDVxT1A+n2FsfIh8Ln2onjDPCygV65RKNQrrFdZWSqyultjcqFCtxoFcEISEQYQxYDsWmXSK/FCa0ZE8E5PDXJoajz9vY3lyQ1nyQxmGh7M4zslqWOgm0obNqkeh4lL3AlCKlHQJnF9npBdgJ0P8OR8byvLO9UkujQ112FuD8eM/nKEeAUxc+Q+rEJbioMAeGcjZT00gkEo5TF2ZIJ/P8MGHPkZrVJeWHKM1lm0zNJRhpEuPgOid6/p889Vz7t+dIQg0ymLfL39jwPcDxseH+J/++UO+/8Nbe7Yb3LrP8vIm0y9XeP58mYXZAisrRTYKVUqlGrWah9vw8L24VTadccgkLem5fIbJyRGuXBln6soEN9+4xNvvXOHm65cZG8sfW7qN1oZa1WVhfp0nT5aYebnKytImy8ubrK+VKZcbNOoegR8QBBGWpUinHTLZDENDGUbHhpi8MMzlqXGuvTbJm7emePPNKa5en2RoaH8e5PzcOn/9yyNWV0rJzze1b9GgMIgIIs3HH9/gX/6XHzA23r71xBjDvbsz/O2LxwR+RDqz/0eCMaDDiHQmxU9+9jb/8KsPsKzdlSWtDbWay+J8gadPlph5scrCwjqrK3HFs1x2qdc8PC9A6zitLpXafp7jE8NMXRnn6rUJ3rw1xQcf3eDNN6fIt3gPDssYg++HLC1uxmV9uRIHAYubrK+XqZQbuG5Aw/UJ/AClFKlUikw2RTbjMDScYWxsiEuXx7h6fZIbNy/x1ttT8WdvPL+VLvgqe3iCIGR1ucSzp0tMv1xmcSG+v7XVMqVSHdcL4l4Pz0dHGtuOe2hy+Qyjo3kmJoe4dGmUK9fi+7v11hSvv3GZsfGhfT9HC4Uy9+7O8vTJIuViHdu29gWUUagxxvD6G5f58U/f4o03p8gc4HtUR4ZiscbszBrPni4yM73GytIGhUKFzUKNcrlOve4RBGEcCIRxi6DtKNIph0w2xfBwltHRONi8cHGECxdGuDg1xtVrk9x4/RJXrkwwMpLFsk7HGjFVN2RurUqx5qNNMy1o7wgBDtni20Pt8lh6Ano4Z9uXjmJcQOdTtnxPe8kh77fHo/n6QXoC4Ah7A/rI0d+1aUdvVnJbjm1xYTTPzcvjjOQyHY43SSDgxT0CymGrIt2xGCdsXEDbC4Wg6xBVz18gYFmK4eEsQ0OZ3hcqS2wvSX1EhTtnGnWfr//+lH/9f7/G9QKsJLd4J2MMNdfj6uUJrl6b3BUIaGNYXtjg+bMlHj9c4MH9OZ48WWBxboNSuY7vxSkZQRh37+soHkFu2RZ2svCc7dikUymGhzNMXhjhjbeu8NHHN/jo45u88951bt68SC7f4YfFAPh+wPxcgRfPlnlwb5a7d2Z4/nSJ9bUy1WoDz4srI1EYj3lofm5t29pKVUilHNIZh5GRHNeuT/DWO1f54MObvP/ha7z97jWuX5/cVfGamV7l1//6Nc+eLG8FYHsrnJ4X4kUB/9v/+mN+8cv3OwYCWhvu3Znh//6//kzd9Rlq8QNWG0PgBuSGMqTTNj/7xbu7ehl8P2RxocDzp/H7cD+pFK4sF6nXXXxvu1IWRRqD2apkNfPRUymHfD7D5OQwt965wsz0Kj/92bu898F1Lk+ND6xCFkWaleVNZqbXeHBvjru3p3n6eJHl5Q0qpQYN14+nB47iskZao0jGdCR55Y5jkU455IcyXLw8xhtvTvHhh6/xwUc3ee/9a7z2+iXy+Qy2HY9pOU7GGNbXyszOrPHw/jx3br/kycMFFhc3KBVrNBoeQaCJonj8SqT1Vk+QZSkc28JJOWQy8fO4cGmE19+Y4oMPb/Dhxzd47/3rvHbjIsM7cnTX18p89bdnfP7ZPZYXN3FS9r50mzgFyfCzX7zL5akxrl2/QCbbXw+K6/oszBV4eH+ee3dneHB/jhfPltlI1qzx3IAwjD9nzUUid40vslTy/OytNK9cLs3YWJ6pqxPceP0St966whtvTnH9xgWuXpng4uXRE9nTs9N61eXFaoVy3aeZYbu/3jXodCDT8cuDpYl0OLbfdKB+AxlZJ6D7NQcW6PWXWqOT2YJG8hmmxocZH850rsuZCLQX/zE6iYkP+Pl4pelAey5kkv1MBFEdolpyf4dv9Dw1gQBsD/g6G109p1cQhMzPFbh3Z4ZG4GGh9s0MZYAGddaXL7K2Wt563XMDpqdX+ebvz/jqb0949HCB2bk11lZKlMp1QiKsZKh2c96L5tM24c7zGzQGtQrZuTRz8+u8fL7M44cL/PBHt/jZL97hvQ9uMj7RIZfwEGo1l6ePF/n7l0/59qvnPH64wNzcGmurZRqeh8ZgJeNNdt4DgB9u34MBNBobm6WFAtPTqzx9tMjD+9f58c/f4Sc/e5tbt6bIJ0HNxkaFe3dnePRsAQd7xxW2uQRofD549zV8P6QTY+K1P+7emaaBR57s/n2ABh45leZX//wResfUXrWax4tnS3z15VO++vIZjx7OszBXYHW1RNV1oc37YHad32y9FwvzDktLG8zOrDE/W+Cf/sNH/Owf3uP69cn2aUs98tyAmZk1vvnqGd9+9YL792bjHpzlTaq1BiF6q6Q7y7u/rPHfCliYLzA3sxYHg/dn+eGP3+Lnv3yPDz++STplY9nq2CYUCIKIxfkCt799yVd/f8a9OzNMv1xhaWGDcqVBYMKte9v5qdl7jzq5SwXMz6eZmynw8tkKD+7P8cMfvclPf/4u73/4GpcujwHxZ2D65Qr3786ysLZOPEXE7nv2CDAYLlwaoVisEUVtpodro173ePp4gb/+6RF/++sTnjxeZHFxk8JqiUbkJ/ehdk3ysPcTt6tBFoMmLkPGSjE2vcqzp0vcvT3NlauTvPHmZX7+D+/yj//04YkPBFZLDV6uVSg1/HjwvbR4nSzHkapzBtOBmrTWZFIOVy8Mc/3iCJlOKaNGQ1SOW8tNwNl8Y6KkR6AGhMDh1906VYGAODniFaEjorg6vu/bLf46IvDj1uD4GHj0YI7P/3Cfv/zpIffuzrC0VKThepgornzYSbURtn+R7/+1ZgC1VdXwg5DV5SKbhSoLcwWWFjZYXSlSLrv86KdvceHCYLrPmsrlOnduz/D5H+7x5RePeXB3lrW1Mn4QECWDJqxd1a39wUDzHtTWnRgqVZdaw2NtucTszBqLixusrRb5p3/+iB//9B0cxyIMIuo1n5Bwe2D7nvLFFZwomRWm+/0YE8+CBVHydysRngnx3GCrEletNLh7Z4a//Okhf/n8IffvzLCyViL0IyIdJc9n9/vQ7lkqFAZDqHWc612ssb4Wj0NBwT/+6gOmrh58ujS3EfDk0Rx/+fNj/vT5Q+5+95KlhQ1c1yeMdJvAbe9z235mzbfV9YNkTEuV2ZlV5ucKFNbjPPW33poi8MMdUzkenTCMePFimb/9+TF/+uw+3371gvn5AvWaSxCGaOjh/uJ7tHZ8P3t+yOpKkc2NahKcrbO6UqJYrPGLX77PxUsjhGGUpFGFaEzLz1CUzOkdRb2s/7Jbo+Hz+OE8v//3O3z677d5cH+Ojc0KYaCJjN6q/Lf6XmhVEWju3Wy8CLVmczMeRD07u0YuO8/lK/GYsu//4BYXL472Vd7jtln1WNysUXODZNKNHe+CrBPQ7mLJ5gO0vnd9a/a8p4fuCei0zey5xt49B9ij0VN5dpSp2zn3bWrRj2Hi788h2+L6xVFuXB4n2ykQ0HUIFuL59jG07Dro5fNxknoCtv5KvreNjoOAqATaB1sCAfEKbE0zaFvY2mrZIwAKn3hVaaMNpWKd+bl1/se/fsPvfnObx4/mKaxX8EyAQuFgYat4OtC9FYVmC9fetr4mYwyRifD8kMayT63mspbk5wdhyM9+/i4XLw3ml3mpVOe7r5/zm3/7ls/+eJ+Xz5ZY36wQEmFjxa30vXTVme27aO6vjcGPQrx6QG3ao1Sus7ZWolKqk82meff96xhjCMN4fmQneef3/jCysNBYWJbVUzqcZamkBddqM9Wvgh0BWhCEeH7Avbuz/PrfvuWzT+/x5PE86xvl5H2wcbBwOrwPnZ+lxvMaPH+5ROiHOI7DUD7DP/7Th7tSUnrVqHs8ejDPp7+9w+9/d4cH9+ZYXtnENyE2Cgt767PXidnxzFDW1mc1NBGeH1BfdSlXG5RLDUrlOr/4h/ewLEUYxgNo4xnSBs/3Ql48X+azP9zjt7++ze1vn7OwuIEfxQG4jRX3HXV5HsZsBzoQf3Z23d+6S7lap7hZZaNQxbIUP/rJW3iuTxiGWErhJM9+788DG4tmSlg/LdbGGKZfLPPpb27zP/77N9y+85JSpUaE3pqaeud9GRP3FMahHWx/b+wOFpo/s5RSW8e4YUAQhpS9OtVqg/n5wlYjxkkVRJpyI6Bc9/FDHY+Nih9mlyM7VfR6qBz3W9FrWznsVp7jDgA6HCvrBPRepl6P6eH98YMQy4Kbl8d56+oE6Y6BQAW86XgF3qThpnUR+g9Ket4OAw4AdlJJdFSJgx3tgT3c5VzdnbJAIPnUN38jd3svm/tspRNJl+kgdZ1u1ViAolSscue7l/zti8f86//3FQ/uzVGpNbCAFA7NNB9j4mlCd3bvxytIN59e3PW/91pKKRwc7GTV6XKlzpPHC3hePI0gKP7hl+8xMXm4b5h63eP2ty/57//P3/nD7+7y7NkSDddHociQotXAXdiunDTTSvbdo9HJFpX0iMT3XdgoU//Ow6375PIZgiBifb2C78fvk9q63p73Y2tK3t7vbSshpt1BJt5Da01hvcrC4ia/+bdv+e2vv+Ph/VlqDQ+ADKnku9Sgzc473q6EdZp6VyWVSdtY+ITMLxT4/PP7jE8Oce3GRT76+GZf4wWiMOLJo0V+/a/f8Olv73D3zjSlUo0IQwaHTs9s63PJzt6bZBDmjmemgBQ2oKjWGzx+NE/D9SkX61y5Os5moQLsfuaDorXh5csVfvub7/jtr7/jm6+fU1grEaK3ytT6/tj6RDarzDvvT6O3fr4q2EpDq7suT58sUqu7pNMOrhuwuVGhXvO23o1Wz7cZBPXzmTTGsL5a4m9/ecxv/u1bvv3uBeVaLQk07V3X0Cau/CsUjmXjOClUEgg368UmWTuhuU5JhMEYvXXfcRAch9fDw1mG8pkTNzXxXg0/pOGFBJGm269DccyO44Gc4YduTPw7JJ9N8dqlUd65PsmVyWHsTj//wyJ4LyFcTV442d+//UsqtVEZwgLxzEiHd3oCAaPBNOKITzfYF+21PgiwQOXj0dVWtodjxKBY2Gitef5sGa0Nf/78IffuzFBruEklan8LpYNFKu1g2xY6MgRBRGgimjnLcTBuWlYklVJJw5PBC31eTK+gtYmnRRzK8NOfv0s+f7BuNN8PefRwnt/9+js+/e1tnj5dwvPjKTxt2rdyNmc82H2PNqm0jW0ptDYEfkRAtKuVXCXvUM3zePR4nt/++jswMD29ShCEcRvvMeYCN9NKanWPp0+WeP5skU///TseP5yj0qgnbcA7WmZhVxDA1tdJmds8wyalFLaxCIl4ObvC3/7yhE++/wZXr0703LujtWFudp3P/3iP3/yPb7h/b45SpcZWClqX929n6S0UKdvGsW20IV4XgmhHKLDdb+KGATPTq0RhxNVrE6wnY2Q6Lax4UKsrJf76l8f8+l+/4duvn7O+UY5b3rveX/MJxX9bWDiWheM4GOJUo1BHW89wuylF4ZuQufl1/vz5A/wgwLZtihtVtDZbgcAg1Gse9+/N8qfPHnD7u5ds1iqkkor6vlnKiK+dz8WTB4yNDZHNpkmlbJSKB4n7foTn+TTqHpVKI15PIfC3joU4AEqpFFeuTnDj5kWyucN3ux+luhfRCEJC3fzuMqiulcN2Lb49tpIPrJW4zYauLa5H1RswwFb0I+sJSLYZOjySAfRoDKzH56A9AfFEBmB4Y2qcX354k/deu0jK7lKxjzbi1KCoBMrebnno5fPRrUy9PtNBDQxuqRkIVCDcjFODBuD0BAIEEK5A43H8oInoWnwTgJWB9OuQeQ/SU92PEQPjYBNFmvv3Znn5YplnT5aoNBpbFaJm9/7ISJ7R0Tz5oQz5fJpcLoOTioOIRj2gUffied1rLuVSnUboo0ycTtSqd8BGYRmFFwZMv1zlj5/eZXwinu7xvfev9z2NrDGGxfkCf/z0XhwEPFmiFngdW5QBQhOPoMhYKUZGcwwP58jl0+TzWXL5FI5tEYUa1w2o1T0aNY9ypU614uLrIGmlVNR9j4f359CRod7wCIII55hbOpIkDJYXN/kiGd9x/94slVozCFCExD0VaeWQz2fJZtM4qThFSRtDGES4DZ9Gw8PXEcp0DqIcbDSaRujx/OkSf/3TI95++yoXLo70FAStr5f54s+P+N1v7nD3zgzFrdbk9tdsPjMHm+GhHCMjOYaGMuTyGXLZFKm0g9YGz2t+Ln2qVTdeIyHwaVaqvTBgYW6dUrGWpHINPhAolWp8/dUzfveb23z91XPWNotxhb5DkBgZjY4Tx8hnM4yM5hgazsbrOeQypDLO1vSq9Vpcaa7VXarlBvVkELyNRWgipl+u4PsB+aEs1UqDMIwG2utRKFT4658f89WXz9isVOPWfrX/c6+NJpdJcenyOK+/eZkbNy9yaWqMkeF4XRGl4oHUrhtQr7mUSlU21qusrZUpblapVBrUqh7VaoPQ+KSNw2uvXeCtt69uDdI/iYwBN4hwg4hIb/dciTPuDPcCNMW9AZpsyuG9G5f45Uc3uX6hSwOQrsYpQWExbilXOc7m94OOB0MHxfPYI+CDPwfVv0DjdlzJV11aa7QH9hAM/RzsCUhdZFArsYnuHCyiSDMzvYqlFPW6t1VRsLHIZFJcvDTKG8nc+VNXxhkbz5PJpnFSNkYbGo2AaqXO+mqZhYUCz58tsTC3Qa3udu0dSBkbbTQvXyzz588e8Pobl5mYGOLqtcm+7qO4WeXrr57z+R/u8fjRPH4QdqxMNtMuLBT5bIar1yZ589YVXrtxkctTY4yN58nm0tiWIgo1nhdQLjdYWykx/XKFmZcrLK8UadT9pFJqUa00ePhgLl5hMdKvIBCI+wRmplfx3IC52XUqNRfYnqklYznkhjJcvDDK1NUJLl4cIZekV0SRoVH3WF8rs7RYYG21TL3hbU/v2OoHtiIJ+GzK0YOSxAAAIABJREFU5RrffP2cH/z4Ft//0ZvkurTU+n7Ig/uzfPrvd/ju2xdUaw2sZupVm/FjzRz5fCrN5MURXn/jEq+/fplr1y4wPpEnl0snAarB9yOqlTprq2Xm5wvMTK+yMF+gXKljTPzsw0hTKtW3b2eAPTjGGJ49WeL3v73D3798QnGzmqTwtP5cbt8fZJ0UY+PD3Lh5gTduXeH69QtMTA6Rz2dJpWwMcS9VtepSWK+wuFhg5uUqszNrlEo1tIkDJd8PWZgvkE6nUEoRBlHL1vqDWlne5NtvnjMzuxoHAXt+XTXvJ512uPn6JX7+yw/4wY9ucfXaBJMXhsjlsqTTDkpBGMbBm9vwthYw3ChUWVstsrS0ydzMOrPTa0wvavLpLNdfu8jN1y+RabOI2kmgjcELItxAx4FAs/ux7dvfqcW3h9rlsfQE9HDOti8dpiW2WytwD8eZnX8ftCeg07YD9gTAEfYGtHvOncrSebvBEEaatONw8/I4H78+xVtXJ8l1nL1LQ7AKwXLSSp70Yfb6+ej2zHp5pkc2LmDHdpWMEdB1CMtxPXgATk+t2IRxtNe4B9U/g9bQbVo+HYGdA3sc8j9le05ZcRyaA/Fq1WYqkNr6PTU+PhQvHPXxTT7+3uu88+41rr02yehIDtuxt/LAw1BTq7msLheZnl7l4f057nw3w+NH86ytluI5htsEA5ay0EZTDVwePZjn97+7k7QWjuP02CtggKePF/ns9/e4890MG9VanMPebuCl2R4LcGFihHfev8bHn7zBBx/f4M1bV7h6bYLR0RyOYycTAMRdoNWKx9LiBs+fLvHg3iwPH8zy9Okya6slIjRhpCmX/3/23vMtrjNL+/3tVDlRUKQiZ4SyLCe123bbnu6eec/5a9/rmvOePj3T43ZqR0WEJBA5FQUUlat2eM6HvQuQVAkoZMnm9iUDOz87rnCvdeedcb3+FoGyM97tLbuDTD5XovLGshD4PR7ifVGGRroZHIoxMNhJZ1cYX8CDS7MzQ7lMkZ2dAxbmN5mbXWf+2Qa7O2l0YTlR7Ff3K0kSqlAoGmUW5jeZf7pBaj+L11vbmRNCsL6a5IfvnvLj989YT+w6TkD1fYAdVTYRhPxeRka7mb7kaFJM9DAw0Em4zY+mOcXvDtc8lyuxvbXP0tIOT2bX7Ov2eJWt9X2H6iUhhK1s2Wo9gcTWAb/8uMB3X82xtLp9mMWodV/Y47MIeDwMDnUyORXn0uUBJqb7GBrsJNoewOXWnOfOHl8hXyaRSLO6kuDp43UePlxh9tEqG6tJyqaBAIq64QjltVZEzTBMNtf3WXqe4KCYxY378B6swHQyG9H2IDfeGePf/693uHFrBL/fjcutoiqKfVyHz5nANExHbMykUCizv5dlY22P+flNnj3Z4N6955i6xeh4N/G+9je6RsC0BAXdoFg2ME1xaCdUx0npQKLun6ejidRZ96R0oJM6Mhc6AY332TJH7/R0ILCbi5QNk1jEz3tT/bw7GSfif7Wt9YurGlDehPK6EyVXmrvP3wo60PH9O12DrKKjI9CaZgZvkSMgQBTB3Ad9D6cfXn1Y2DUFlVTR7yGn9kbCKbDE5uJG24JcvzHMnT9e4satEYZHuunqihCJ+msaEtmhTobHupmc6mN0rId//s8jfvjuGZvre5SF4RRGvrpXGTuivLuf4Yd/PWPmygBXrw/T2RluyinMZgrc/XmR775+wnZi/3CbtXjQBhYKMrFYiFvvjPHHT2e4emOEvoEOYrEwkYi/5sd6YLCDkdEuJqfjjN/v4Z9fPuan7+fZTOxhWQK79PrXUceuHHIhXyafLx1Ok5EJR/xMTsa5eXuUq9eHGRyK0R4LEwp6cXlsCpRlWZSKOtlskc2NfR7cW+Iff3/A9/96SjKVrrlfAAUJHYuDTI611SQba3vEOsOoanUjrVgsc+/uIt9+9YTV1SSGMPHiqkuXEQgifj8zVwf46OMZbt0eZWS0m67uCNFoELWGQTg4GGNkrIfJqV4mpnqJfRnmu2/mWF1LUjYMFOSWOwF62WT20Qrffj3H84UtSkYZD+6a+6mML+D1MjXVx52Pprn9/jhj4z1090Tp6AhVVZQGGBgqMTraxcRknInpPnp65vjmn7M8X9ymWC47dSF2rUsrh5nNFNnaSpFOFxBUiuNfGpfjCMT7Orj93gTvvDdOPH6ybN/AYIzBoU5Gxru5em2IsYlu9pJZLl8dJNoReKOVhQ3LIlc0KJQNrBO2ZL1AC/E6Tv3v5PLqhglC0B70cXOslz9eGWKkJ9o4wCAM0DegtGYzQX6l7+RrgzDsbIDTYOWseHscAeCwj+q5r3OBVkKSOPxQRSMBrt0Y5ou/3OCTP11hdLwbr89d06irIBD04vW56elpo7c3SltbAFVR+OrLR2xu7r2gIPrivm06SEnYNIaH91d49mSDUMjbsBDQMi1WlnZ4cH+J58+3KBplWyqpGvXiWESrLRrg9rvj/PX/vs2Hd6YYHOq0I5QNxhiO+AkEvPTGo/TGo/iDPhRZ5rtv59ja3scC1F/9Vj7qBKRIMu0dIa5cH+LjT69w+/YY41NxotEAqqYcqgdX0pm29oSwlVv72kHYPP78/SJl3bQpNdUyLU7rTQOTnUSa5aUdRsd7iLT5qx7hbjLNLz8/58H9JfL5ElqdSLkQAgOTsM/PleuDfPGXm3z86QyT03GCwUrmpvZJD4S8eP1uunsixPs7aIsGcLlV/ue/H7C0lDjUJ2glDg5y3P1lkZ9/WiCdzh929Kk3voDbdgI++7drfPr5VS5fHSQS9qO56o/P73fj9bqIdYXp6++goyOIx6Mh/naXZ083MYWtGdBa2hMcpHLs7WWc9p3VR1cRBGuLBujrbyccPrl4oKLItHcECYV9DA930tsXJZlIE+9rx/MG04IADNMiUyiTLxmImsX3J80E1F698bpvEx2oEQ2k7kZf/PXMmYB6805JB3pLdAKOL2BZdpegkM/NO5NxPr85yuRAB65msnLGHpRWQd8GS7cLhY/ai9Q51DcgE1B3N/UyNq3zDt8+RwD5eAuLxotLir3OBSfo14HzArAQeDSNiak4//bXm3z+5+tMTPTgOoFqp6LIKIqL4dEuvD4XArt49pt/zpLczxy2OXwZlfh90bCFiX78/hlDw53E+9vr7i+1n+Pe3efMPV4nncsjEDUpQZbTaDLo93L5yiB//o9bfPHn68Tj7Shq89EJRZXxqR7GJ+O43S4UWSabK5L5Kk/O4dRLSL/a7VyR/jIRtLcFufnOGH/5X7f4wx8vMdDfQbCWMebQmWQZNE1hfLKX9EGexcVtdrZTrKwlEU6Et/p+7f+nUnZWIJ0uVHUEikWdxecJHj9cYX1zFwMTrUqBKVScU4FLVRke6eKzL67x1/+4ydhED/5GqehjqNyXQ0Od+LwuFFUhlyuSyRTY281iCjtL1IprZuimrer9YJnF5W3KwkCV1KqbtluggiopxOPtfPzpZf79f73DpSv9hMPVnahqkGUJt1ujNx7F63WhaRr5fJFMusDm1j6msFCF0sJ7UpDPlynkSliWoFZ0ryLtVi7pFAplZ9nTQdMUNE1hYjJOvK/dqS14s78ZumFrCOTLBhXK5RHqGXpNGMcnNfROSgf61RyAOute6AQ0f0zNrtPEdRaAaZqUdIto0MvtyTh/fmeMdyaaoASB3UYzdw+KC2BWOkrW+eY2ckoaOi28Xgeg6nKi2sRT4y1zBC7wtkFgp/A1WaE3HuWDO1N8+vlVJqfiZ+Lfdve0ceejadIHeZKJA1LfP0W3aqfJKsWuq6s7/PTDMz78aLqhI7C1tc9P38+ztLiNRP2uLyYWChLDI118+sVV/vjpZQYGY6cdHooiMzTchWUJEtspElv7PHm8TtHQKw0UT73ts6AShfV7PMxcHuAv/3GTz7+4xvBo94loFIoiMzbRw/t3JpmbXWVlLYmBVfOFVHHmspkC21spctlC1eV2k2kePlhhZTlJydRfUKp+GSYmMgrxnnY+uDPNJ59dYXqmH5fr9K/Fzq4I770/wf5uluROmh++e0aqkKtLJzsJDg7yzM2usvw8Qa5QBGrrE5hOX/1YR5h33hvjT59f5er1YfyB03fCaYsGuHl7lINUht2dNF/+4xHJTLrueT4NJBmkBvdT5XncXN/jwb0lJid7mXKun9yofqwGZFkieArRul8DhiXIFg0KFV2RN9tv+e3hghJ0JgjsYIVp2a3B24Nebk308pfb49yeiBNt6jkUtoBY9l82LeiFCPFv+OQBF47ABd4aCCwMTNqCAa5cHeKDO9NMTPa2pAivt6+dDz+6xNzsGgvzm+wk05jC4dK/9FWsRJqT6TTPnm2ytbXfcPuJRJrZR7YKbYUP/8r4nOiBBAT8Xq5eG+KPn15meLTrzOOTZBgcjvHhH6ZZWkywvXXA6s4Osk12OfP2TwohwMDEo7gYHu7kDx/P8NEnlxka7joVlzrSFuDKtSEGhmJIX8pOV/7qqBiZuVyR3d00hUL1tmlbm/s8vL/M9lbKUY+t3dnJwMKvuLh0aYCPP7t8Zieggq7uCB/+YZrVlR2eL2yzv5K1417i7BSancQBs49W2NzYA0TNDArY43NLKuMTvXz0yQyXrw2eyQmooK3Nz3sfTLG6muTZs0325jItGx/Y2/B4XXh9bmSldnpfdpyPra0UP/zrKR0dQQpFnb6+drq6IyfKNr6NMCyLfMmg6NDqjs79aehA5xElrjGjCZpI/UnnQQc6YRT93DIBzrzzpgO1LONzhkzAkWYh7SE/t8Z7+ezGKO+M99IeapLmZ6ShuAjF52AcgFzHrnhddKBT3xNV5le9760mtnEyXDgCFzhXVDICHR0h3vtgkhu3Rhq2fmwWiiwzOtbFjVsj3Pv5OblMkXSpiKsKPUhGwkJgWGWSiQM21nfJZUs1DSNDN9neSrG+tktOz9vFmDWMLgMLl6bRPxDj2s0Rpi/115dBPwFUVeHS5QHe/3CSn3+cZ21nx5nzKhngdcDAxOdzc+OdUT52ajxOQn06DlmW6B/ooKc3isetUSy9KO5UDaWiTjqdp1Sq3jZteyvF07k19g+yjvbBq7C/seKw0Pnq9SFuvztOW9vZpdrBNmSHRjq5dXuMr758zMbWLmbZbDi2ZrC9neLJ43WSybTdBamWo+P89Ps9zFwZ4P0PJunsCp9p38fR29fOzXfG+Pqfj1ld3SGfq2gMtOaejLT57VoTVaWeIwCCbKbA7MNVBPb1v3R5gLHxHjq7Inh9bjxeDY/HhcfjeqOLf08K0xTkyzpFvTUFgxd4Q/AbD2RblkC3DCwLfG6VkZ523pvq572pPmYGO4kEmqRlCgOKz6Dw2BbXwuS3pyT8enDhCFzg3HDY51vS6O2LcvX6MH0N6DgnhdfrZnqmn6s3hnn+fIu97SxaNZqChKO4KVEolFlf3WVzY4+RseqUllQqy+bGLtl0AYHlbKDKGLGLMdv9QS7N9DM13U8o1FpqQbQ9wNSlfoaGu5h7vEaprNttU18jF+C4NkK0I8iNmyNcvjKA23W2qKvf7yXSFiAY9pJNFA57+b88tMr11HWDQqHkFJG+fIyCncQBm+t7ZItFXNTmzltY+DQXA0MxJqbiJ9aWaASXS2VouJPpS30sPFtnY2PPKRw+G3aTaVaWd0hn80g1Mh72+ARuSaW7p43JqTiDw10ojVQ5TwBJgv6BDmauDDI3u8b8s01MzJaJpoVDPrq6I0QiflhWDmkExzMO9q8SlhDs72W59/MiyUSa+WdbDA7F6OmNEusM0xEL0dEZor09RDQawB9woyh2K9g3vQ6gHkxLUNRNykbFyawX8W3CunwtmYAmtllz0nnUBdTfZNXobDMc8pNmPCrTT5MJgHPMBtS6zs1z7CvfDiEEQtjtr31uF0Gvi3h7iD9dH+azG2N0RwNNt/UGYbcLzf0MhTkQJacetLljqrNQndkt5P03ugYnea5agAtH4ALnBgubMhMO+OgfiNE/2HEuH97R8R5mrgzyX3+7D9t20W5tyOi6wcb6HuvruwwMxV6hgxiGxdbmARvre07kuXYcVyCwMAkGvUxfHmRkrOfU/OR66OqOMDzaRWcszPq6XQRbjxbSalTUEbyam57eNkbGe4i2B8+8XUWRCIa8RCJ+ksk0lmUeU5s4gl2iLNANk2JBxzCsV7aVzRZJJtPs7+UwMZCoXvApEJhYhEN+JiZ7GRruPJd+8bFYiEuX+/nlxwU2NvYxOZsitKGb7CUzJLZTlEQJD5464zMJ+QMMj3YzNNxFoNko2wkQjQaZuTzA998+Zf7Zpp0Za9G2JUmipzfKwFAnT+bXKORKjpb8q+OVsFukHmTyFOfLJBIHPHywRFs0SFd3hJ7eKF3dEbq62ujsCtHeHiQSDdDeHqS9PYTX92Z3B6oFUxw5ArawojOjKeNZ1P3zdDSROuuelA50UkfmQieg8T5b5ug1T62pGP+WEBimTf6M+D1M9ndwfbSHyXg7M8Od9HU0UA1+GXoS8vfsf+VNO8pXrZFHq+g+LdMBqHUozTjxLy3TQp/gLXMELOzeqTR3IgQgynYKiVcNhwucL0wsXJJCZyzMwGAnweDJ2/s1g7a2AIPDnYTCPngxLvYKZGRMwyKZTLOTOMDQzVccAdM0SSQO2EmkHYOzkcFt4vd7GB3tpqu7dfSL4/D73QwOd9ETj7K5uYdpWbxOBnTFqQv5fcTj7bS3wAkA+0Ph8bgIBLyoskLRMuuebdO00HUTy3rxeRZCkNrLktrLUSrr1Hs5VByBUNjH2HgPXS2kzByHP+hlbLyHnt42+9jP+A7K54ukUjny+RICq45zau8rGLLF0bp62s6031rw+tyMjffQG486/Xta+47t7mnj1jujLDzb4PHsKmUMFPGqMrTdItgWetN1g53dAxK7KdwruyyHfUTaAoQjPsIhP6GIl/aOIPG+dkZGuhka6aI3HiUaDeILuFHOwYk/L1iWrSysm9Y5xQkvAJxXEPb17+M1wBZbtDAsC0uALIGqyPjcGiGfn1jEz3B3G9dGe7gx1kN/RwitQVvtV2CV7CxA5jsordg2oaTy2+wMWcUJOAe8ZY6AZF/wE7UP1Y61EK0N4fQ5P/yvbuarssxv5Ok9J1hYyLJGR2eYnt4obs/5ma7t7UFCER8qKpJDF6hGnZGRME2L9EGOTDqPab5qvNjz86QP7Pn1+sBXFJN9fg9dPZETtZ08Cdxujd7eNjpiIWRZPlOrxNOgkmUJBLzEOsP4fGcvOrUhoWkqbo+KosgIo3JGaxyHJbBMC/HS+C3L4uAgTyZzRC+qtRXh5HF8fje9fe20RVvj1LwMr9dFb7ydtmjA2e/ZDOV0ukA2U3Du2fr3pIXA5/MQj0eJRltT+/AyNM3uBNbeHrSzYC2+Jzs6Qnzw4STzzzbY2txnZ//AfqdUcQbAKVQWOJUDoFsGqf0s2UyBzXUZWZZRNZlAwEt3b9uhmNjwcBej4z2MOk6b+y0pMrYcBVbdtA7HfYQmr8Vvlg7UiLpSd6NHCYzKLyc5ppNmBAQvjEO8MrPaOqfIaDTa5vH5TdwXr2yyouUjS2iSrSPjdauEfG56okEm+qJcHe5msr+D9pCPwGlqdkTZLgzO/gSFWTCzjhPwkn33OjMBdXdzVjpQo+ejNXh7HAFJATkM2gB4JsEy61eIA1gGKD7Q+kD2U8sZsCyBYViUywYCg3KdbiMAJnaGwagSmbzAEQQ2pzfSFqA9FjoX+kUFPp+LSMSPV3Nj6Aa1zEnJUUHNZUvkDvuUvwjLEuRzBbsAUtQp8HReEjIKfr+bcNh3bi38NJdqUxoiASRZoj79qfWonE+3RyMQ9KK1qBgaQFVlNE1t2C7y8FjEq6M3DItspmhHy2vUGRyu7/zf49Ho6AgRbLZDxQkhSRIdsdAxbYXTXzPLEmSzx8dXGy+MLxYidE7jAzsbFwr7UFUZytjPRIseAq/XxeWrg3z08QyrK0l++nGeVDaLjEAVclVaVCU7ABwGdkqGjmXYzpEoWOyns+ztZVhdSfLo/jLdPVEmp+NcvznClWtDDI900RE7IVXhV4AlBLppYZgWqiRTgxt0DKeliTjzmqU+vPDn63YA6qzbhFFXobFUKC3CEocc99N1i2nCqXrJlhQv/FVt1RMcx2kcmAb3hv31sTNw9mmpBE4FXpdKe8hPb3uQeEeInmiAaNBHR8hLXyzEUFeEgPeUQSRhQOEpHPwDcj/YImLwam3AoRdXb1uv0QGoulyj+c0u0xq8RY6AZhv0gTugdTnpoAaRG1EG2QeeGdA6axaTqKqCz+8mFPZROjBwS1rdQsySpWNi4Q94WmoQ/dYgsD/MPp+LQMBtGwvnBEVRCAQ8+Dxu0lUKSW0cGQiFgk6xoFc1qoQQFIs6xWL5WHT5VTjmJioqPp/WktaTtaCqMv6AF6/PdSik9GtAliVUVW5p9xVZkpCl2oZ7M7AsQaFQplTUmz41mqYSCHhwu8/vuvkDbrweV21nsklYpkWxUKZ4OL5GKVGBqqkEAt6WdemqBs2l4vU69365WnXHGSBBtCPIu+9PkNxJY5oWD+4tks0WMSzTiYI7Cg01MgQSEpIA5dhNIbCF5wrFFIlEivW1PdbXkiwtbrP0PMG7H0xw49YI3T1tKE0XL75+CGx1YdMSnJRdcQFeKGK1hEBYdp2FIsuoiowiyc67yfaxJOcdVb9P1wmnW69Mae7A6y9QY6MtcAQknHe1hCxLKJKEKsuoioSmKkQCHgY6I0z2dzAeb6evPUDA50FTZBS5eiavKYg8FJcg8yVk/gn6RvVMwG8GxzzEmvNbh7fHipVc4O4D2QXeyzTXKsq0nQUlWtMRkCSJcNjL8Eg3e3s5UgdZXGp9VcmybmAJi/HJXsIR3xv9sfg1UYnbqqpii/ycY4cOSZZwuVQn6yBRjYYhSSAJOyOg68bhdXzluC2BoRt2ZsERO6n2+q88iqqkoLnUc21NaKu72uP7VRudSI4B2spjqHxoz7AJy7LQdQPDMBp/JwEQKIqMy6Wda+cYTVNRVecDeIZ3t2UJymUDXTeaoCTa8xVFwuVWUc/ZSlRVW5VXRj4MxrXylA6PdvGnL6459SQac4/X2NrYo2TZmVmlgXJ8pbvQISoGIHaWIFsosLyss7OTZmN9n51kmkK+xO33JxgYjL2xLUctITAsYWc1FZCkJg2HE2UDThj5PJx0QiOmJdmA5qLolcM7nleUsL8hbk0h4HER9Ljwe1x4XQoeTcGlyqiqY8y+cK+dJktwbPqp3gknWOk0jkD1XmuAzflXFPt8eDQVr1vD73ER8rgI+d2E/B7CfjeRgIeQz427FYFSK+vUBHwL2R/AqLTQfuk4G2ahKrNbkA1oNjvW6FmrOb9eNqCRk3ByvD2OAAqobSCHOBJUaPSCdpaRlJp1ArIMXd1t3H53nM7uCIVcCUWtnnauwDBsjvLgSIyenjaUi3BMXQgnfXj++xGchDJTy8C3J5/EMm30YmgNjlKwF2gVXsfpbMk+pFd+aXrnr+uWOS+6mtutMTUdR1FlQhE/sa8e8/D+Epube2TTRQrlMoYwkZAOFY5larcGtR9tCdkJJAkh0E2D3UyZ7OMi+VyJXCaPbph43BrdvedTbH1WCGE7iK+7XuhthUBgmgLDshACFFnC61KJBjx0t/noCPmIBjyEfC78bhc+t4bXpeDWFLSKIyCdIar90tEc//F6cPadyZWMiSrjVlW8roozYDsELYeegMJDyHwPubtgJLAjDW9np683FW+PIyBJgNK4LuDEm5WIdYa4dnOY0YkeTMNqyFWu8AYDQTftHaFzj7i9rai0fCyXDYpFHfMcP1iWaVEq6ZTLBlCd13/YC1+WcLs13O7qFDBJlnC5NVxuzeHjQzXHsxLk1YVJqaRXLTxuFUzTpiuVy81GvH9fkGUZl1u1aw2a+lBLmKZJyaF/nVdWoFTS0XXzzNescs+6XPWzlTbs+abzTOi6geccC/XLZcOpr7KzZ+dxKj1eF1PTffj9HmKxIEPDnczNrrK4sM36+t5hYT/Y2SGBTfcA+z1UOaSadQXCJhkZlsHK8g7FYglFU4hEAtzxTROOnF+dxakhwLJwHIEmAmOvJRPQxDZrTjpLpLbGPHHE+Zck0FSZgObCoykEPBodIS8j3RFm+jsY640QC/twq3Zh+Yu0IPnMWcvfEo5oUmejdFaHBcKA0ibk70L2G8jPgXlwlJF+GQ2zULQmE1B3N63IBNRb7vgfrT3pb48jcE6QJAm/34PX5zoWWWmcxxfC/jjLivxahZ3eJkgAQlDIlchmihjG+SlgGoZJJlMgXyw5n8TazRVlWcLjdeHxalXT/rIs4fFoh0qktSKdkiQhhIWBYfPTS7VqE84OwzDtYthcifp9dX6fUGQZr9dtG7z2jVezbrWSCdLLJtlMgWKhjLdlXZBeRGX7Z42WK4qM12er41bGV8v4OxyfbpLNFikWygSDrRW5q6BY1MkXypTLJnB+DhXYXYqGhjsJBr0MDHYyMRln7vEq80832drYZz+VI5spkE7nyaQLlIStPl3JEMjINWlLlXoCIaAkdNa3knz/zVNiHWG6u8PcvD12buM6C6wqhfM26lELqk54cV6z1IcXJp3AUD/R8XByOlDFZhMC07QwhcCjKcTbA0zF2xmIBekK++gI+4iFvXSF/USD59Px7QInRHkNCs8g/wiKc1BcBjPtvNg0Xqb5vfRLdbxtdKBGz4fglVXOgt+9IwB2BFhBoYXCmxfALuSzLMH+fpbkjt2z/7yQy5U4SOUpGmW0GoqyYJPKZFnG73fj87up1jbcnu/BH/Agy3JDI05g2vs/yNk1BefAKdbLJslkmlQqh7DqtzT9PUJRZIJBLz5/RWSr8RuyWLR54el04VwcAcsSJHcypNN5Z8rpr5kkSc743E2OT6JU1EnupMmkC8Q6z0ErQcDuWzqKAAAgAElEQVT+Xpb0QaGqwNt5QJbtDG4k4qe7p42xiR7WV3fZWNtlY2Ofzc19trb22N5KcbCfo1i0MyKlkkGpqGNggAAFGbmKAJEiyUhCwsBgdW2Hr758xNSlPqam+/CdgyjbBc4HlhB2BloIPC6FzrCfwc4QlwfauTwUY6gzREfQ0xoO+wXOBmGBlQcz5TgBc5B7AKXnYKQAC+TfcmHwr4+Lp+AC54aKI7Czc8DGxi6FQvlc9mMbXAc2PQADFQWpmsogwtE2kAhH/IQjfuQqVDNZlglH/ETCfpQGrTolp3tLPldic2OPTLZwLu0ai8UyG2t77GwfYFnitaoKvw1QFJlwxEcw6Guo7Cw50eFstsjaapLd3Qxd3ZGWH1MhX2JtdZfdZBbgzNcsEPQQDHoaUhErXPlcrsjaWpK93QwjY91n2nc16LrB2touuzvput21zgOaS6Gnt432jiBj473s7dqKy5ubKRLb++wkDthNZtnfS7O/lyWxk2Zrc5/93axdcI2oSQmTJQlFKOT0EgvPNpmbXWVrK3Uu5/CskBvRVX6zdKDa6wnLzgSoMgQ8bka6wtwc6+KdsW5Gu8MEvS7crtrBogu8JggDrAzoKSivQnEWCk+gvAHGAYgy9nWu0gzgdWYC6u7mddKBzg9vjSMghEAvm5RK5UPObaMstBCVbjIKbrfL6d5x8fi/LshOjcBO8oCV5R3SBzmgo+X72U2mWXqeOIy81m+qaKGqCrFYmFhnpKq2garKdHZGiHWGnELwRtFO26icf2ZTFM7DEchliywtbrO5sYclxGGv9As4kOye9m3RgC0IlavTRcZxBNIHOeafbrC9uc+lmf6WH1I2U2D+6Qab63vA2Z03n9dNpC2A3+9BTtXeloTtdGTSBZ7Pb7G5uX+m/dZCLldi/ukGG+t7du3Na3ZOJemo1ifSZmcIhscK5HM2hS59UGBn54DtrX1WV5IsLSZYXU6yvbVPYjtFrlBCElSldirYmcB0Ns/y0g4ryzv0xqN4zrEV69lxAqOk2ryT0IHexHoA7Haqlml3BOvvCHJ7vIsbw12M9UYY7gqjXnT4+3VhpsFIQnnL/mns2ZkAPWGrBOtbYBYc464iBvtSBvRNqweoulyj+VVmNHo+XvEZWscNemscAcOwqRFrq0l2dzJYloXc4KE2dRPNrdLVHaGvv4O2aABFqaUydMoTeuFY1ISMhIUgncuzupRk8XmCiam+lgqLCSGYf7rJw/vLpFN5bDmhetfEQnOpxPvbifdFq3Z8UhSZzu4wPfGoozJam5VvR19VMpkCjx6s8OzZBmPjPQ3vzZPAsizW13Z5Pr/Fzu6BrZp8kRF4BT6/m45YkGg0QGJ//1Dw5mXnvxIxT2fyPHuywdLiNqWS3nJF2UTigNmHy6xvJAGcNpenh6IqRNuDdHVF2NjctdWV64wvmy/yfH6LxYUt0ukCoVBr6wSSyTQP7y+xsmK381N/5XvS59D9KjB0i3Q6x95+lt3EAZubKdZXd3nyeI0ff3jGsycb5Avl6irkEsjCnra/l2V9bZdstvhmOQKSEyu9+AQddlBCQMjnIt4e5MPpXr64NsBEPIrSUrqmBcIETDv9gHX0s1qE9xU0cyyvJxLcECc+DOHYUpV/JmCBpdtOgL4F5WUoPLcj/1YGRNHODgjTSQBUnmHpaJu/SZxlXM66Lbqt3xpHoFw2WV/f5V/fPOHJ43UM3UBrIOBUKur4Ah6uXh/C49EIhav0/BcgSgYir0PJBKuJVEMleuJRkQIuJJd88TauAkmSQAgMTDY29rn7yyJTl/oYG+9p2T6y2SKPHq5w7+4i6XTepgXV7BgEYBeH9/W109MTrdkjPBz20d3bRjjiQ95SgErxaXWjK5crMje7xuNHa7z/wSTtHa1TJk1sH/Do4TLLywlyRgk3alV+8wWgozNMvL+DtfUk+UKpIjf1wjKyJIGQKRhl1laTPHm8zupKktHR7pbVdxSKZRbmt5ibW2dn98DebwsM5Y5YiMHhThafb7GbSjtNMF+6Jx113aIos72dYm5unecLm8xcGURrUYczyxQsLyZ4+GCFzQ0743FWR6fVUDWZaHuQUNhHb2+UiSmddLrA+GQP/oAb07R49mSDXKmEVEWp2JEjI5crsr+fpVTSf6WRVIckgaxIh0buYbDitdCBThixP086kABhCSzLIuJzMTXQwUfTvbw32ctQZ6h1ToCwQOQc2koGrBxYBbCKtjFrGdiG7ykjta+co1Mais2sdiqV5Ca3K0xAB6Hb58UsODUAeeecZcFIg5kDbC0QsN/JRxmAeof0GrIBzWbHXhcdqFX3Rg28NY6Arhtsb6f45efn/OvrJ5QMHY+rTgRPQL5cIhzwoygyU5f6GKzW3lEIrL0C5kIKazuHKJhIaoMXh2kbhUqvH3WqHanLD43W+Z2iYijvJtN8/+0TJiZ66e5pI9CCwjvDMHn2ZIOff1hgYWGLQrlcMypZERByK246uyN2mr9OS0VFkenqitA/EOP50jblYvlwPC9DRaZs6qytJ7n783Me3h/jvQ+m8HjPHmEulwwe3lvmu6/n2NrcB0SrggC/SXT3RJicivN0bo10oWAXhVZZrkJbO0gXuH93ie+/e0pbW4D2juCZj8GyBPPPNvnhu6csLyYoGGU8aC0p8O7sijB5qY8H95bYTqWQqZdpkMjnSzy8v8y3X88Ri4WJ97Wf+RgAlpcT/Pj9M+afbpAp5XGhvrFZKlVVbPV4n5u2aIBQyIuiKqTTeTY39jkoZVFw17w6pmmL1b1p/fplQJVbq/L9NsIw7Uh8xO/m2nCMP10b4PZYN73RwNk3bmUdCksSzD2w0nZk28o5/4ogSvY/y8kSVKOSNuMINTT2GkTIm3W2mjKEqzmIzv6lOoayqGQBDNsRsMqOs1Syo/4Akv3WsjWeHBNUSPZ2m+jY+NvAmzXGt8YRsCxBLldie/uA5eUdipTx1hOVEJCjSJs7QHInTaFQri5qJQTWVg79X5sYD3aw0iUkrb5SJY6gmHatEynkRmr3Iqlv5kfw14aEhIZKLl9k9uEK33z1mMHhGNeuDeE5Q6cWIQSLzxN8+d+PuPfLIqlUDguBWkU9GsByXs6dbRGmpvvo7mksEtTZFebylUHmn22ysLgBVXjQh6qlAgqFEo/uL/Pff79PW1uAy9eGzvSRNgyL+WcbfPXlLD/9uEA6nXc6Iv2+P/z10NXdxpVrg/z4/TOWN3eoWegtgSoULMtibm6Nf/z9Ib29Ud6/M2m36DwlhID11ST//Mcjvvl6jr3dzKHIVSsuWywWZubyAF/Ho8zNr9YeH6ChIICF+U2+/O9HDA7ECIV8BM9IEUpsp/j6y1m++p9ZEtspgJaNrwIhoFgokcuVcbkUgiFvy+q72qIBrl4bYm52jf/62wOspFmH/FdRRtfeOAV5SZJQFAn7sIRtTL2CVmcCmthmzUmtrwuwLLtDUNjv4spQB59fH+TOdJy2UweaDNt4FWWwDuwuNqWnUF4AY9uObB/SgCqUoON0mBrHeuKIbxU0Ov9NRcxFg/NcWeaM8yv/BM45qhj9jg7A4bP88j1bb2yvIRNQdze/Qiag1vZbjLfGEQA7Ha3rBmWhY6JTrvriO4LAFmAyDLO2sq0AsVvEeJhE/2oN66CAJCt1qT7CtL1+yQLt/R4w3izv7k2CJNmUCEMYbG2n+Ne3T+nsCqPIMpcuD7zA6W0WliVYXd7hn/94yN//dpeF+Q0srLoFtAYWCjKDg5288+4YPb3Rhvvp7o5w6/YY9355zvPFLQwMtBr2guwUFy4vJ/if/3pIW1sAj0djeLS7IYWtGsplg4Vnm/zj7w/4+p+zLC/vUDYNVOllifsLHEe0PcilywMMDHVy9/4iuq7X7A6jSDJCCLYSe/zw3RN6eiL4Ax6mLvWdqu++ANbXdvn2qzn+62/3mX24QqFUdrpYteaahUJeJqfiDI908dOPPjK5Ipaw7E75L+1Cdsa3u5/ml58W6O1twx/wcOX6ENHo6TIfie0U33/3lL/9v3e5d3eRXK7U0vFVYJoma6tJ5h6v43KpTF6K09MTbVkdRzjiJxIJoGo27a8aKk6Wx6MRDHrQ3rBWk7IkoSkyiizZwVTEse9WI2Ow3pZbQAd6ZdEW04GwRRaFEPjcKhO9bXx8uY/3J3uIntYJsPKgL9ocdj0B5j6YSVvN1ty3swPC5NCY5bgxW4lkH//58jDqOQpSlfkvb+Ok61cgHVu/CVrJmQ3qY/sVOPdkDSe6adv3NTgBzT4Tp3YC6i1zxufnjHiz3mwNIMsSqqqgoWJioUl1Dl9AGRVNU1CUOt2CBIiigdgrYm3msAp2wWm98JZw0n8imYeicYIH4/eJShcTwzSYn9/gb//PXYQlKJcMxqfiBEPeppRPdd08bMn43Tdz/Of//pF7vyxykMk7UdfqsJyHyOdyMzXTx63bY7RF/Q33Fwr5uHJtkKlL/fz84wLJdBoTsworG2fvErliicezq3i9LiRJ4qOPZxge7cLn8+ByN37cymWDbLbA8vME//xylr//n1+YnV2hWC47e7hwAurB7VIZGu5k5soAd39aYGlpmzIGbl69vyrnsmwaLC8n+Pv/dw9JlsnnSkxd6iMU9uHxaA2NXMMwyedLbG6k+PFfT/k///kzv/y4QCqTQ0JqaRGtosrE+9q5cnWIX35cYPbhKgVRws2rWYzKUVvCYnNjj//5x0NkRaFQLHP56iDRtiAer6th1so0LQr5MsmdA375aYH/85+/8P23T0kmDxCcvQi6GnLZIrMPV/nP//0TlmXxwR+mmLk6SF9fB8GgB4/HdSoHu4JkIk1ia59ySaeWkWIhsBCEwj46OyP4fG9QoTB261BNkdFkGdP8nX2DhN1EQVNkxnoifHK5n/cmeomdpmObeWAb/OVFKM05/eu3bU47TstrSQbJdfRQCXjRRmgQpZdOOf9wOXGaPrEvzT95xuXU86v6Mr+ze/QtwlvlCJw7TmxjXRhlzUKWJCwhkc7mmX20ioRd6HtjfZSxiR7i8Xai0UDVj7tpWaRTeba3Uiwv7XD/7iJffzXLvZ+fs7eXsY2RGsaaEAITE6/iYmikiytXhxge7cJVr77EgSTLxPvbuXJtiInpOIW7ZXKlIlq1wkLnb1lIZNIF7v6yiGFZpFI5rt8aYWS4m+7eNiIRvxOFfGmMpsX+fpatjX0WFrZ4cHeJb7+e4/7dRXb3s4dFr820zf29oy0a5MbNER7eX2Z3N8NO5qBmVkCSJDRhG8ePH60hBORzBTbWdxmf6KW3r5329iDuKo6qZQnSB3kSiQOWFxPMPrKpbz99v8D29r7jALf+YgVDXq7dHObWgzE2NvbI7RYRiKpOoiRJqEKlpOvMP90EIVEolNja3GdiMk5ffwexzjDeKt1whBBkMkV2k2lWlnaYe7zKd18/4V/fPWF9NelEzBvQKE8BIQS7yQyzj9b45qs5Mpk8u3sZFua3GB3rZmAgRm9flM4uu5i/ka7Cy0in89y/u8iDe0tkMwXHsa/SYACQUWjvCNHb135u6tOnhSxLuFUZTZGxhHnMVmwQXW+G+vDKpBNE7E9CdziNToAAYVmoikQs7OXd8W4+vtx/8poAYdjR/uIslB7YjoCxi134W+aI6/9S9L8Ze7ZVLI+WbKcZOlCr9lVruRNGvJve1++UDtRkcqdZXDgCYFtWioRNtqz8q/dxc86+Il1YZU1AiBcZuAeZLA8fLpM6yLG8lGDmyiATU3F6422EQvaHvRKl1A2TXK5IYss2th49XOHh/WUWFjZJ7ecQ1O6pL7CjeiYWHe0h3v9wkpu3R4lEmv9g+P0ert8a5sO5aRJbB8wvb2AhakbnFWRMLPZSWe7+9JyDvRxLi9tcvjLE8EiXXSgdsmkGtmEvMAyTbLbI1uYe8882efRwlblHqywtJkgdZBFYKA7fu5bBd4EjuD0aV64P8sGdKRaebnIwm8O0LGQhVVeTRcbAIlvIM/tohVymwMrSDpeuDDA+0UtffwfhiA9NU5FlCYFNXcnnyiS2D1heSvB4dpVHD1aYf7pOMpmxheuQcCTsUCXZvn4tyB6qqsL0pX7evzPJ7OwKe+kMhm4hhIRSVS1XQgiJfLnEs6cb5PMl1laSzFwZYGIqzuBgJ5E2P2635oixCUzTolgss5NIs7q6y9zsKo8eLPPk8TqJ7RSGMJ32wBbiUKVXtCQ5almCrc19Fp9vs7m5RzJ3QPkbg4VnW/T1tTM61s3oeA+DQ510dkeIhH14/W48Hhcut4amKsiKTZWyLIFlCQzdoFAok80WWVpM8Pe/3eOXn5+TyxVRq9Td2KOSCIa89Mbb6Y3X7jD2a0GWJNyqgqbIlAzT+SrVMaxPQgf61RyAOus6URBLCIplg1jIy83RTj6Y6qX/pEX+5i6Untj8/+IT0FfA2rcLfiXNKWitmEcO7aYZA/eVSac8T43O/4koM02c60aGcCsM5aqTTnt+XqMDUHW5Zh2XUzgAosH8ZrZxQlw4Ahc4dyiKjBB2ZL/CcM9kC8w/22RvN8Pq8g6PHiwT6wwTDvvw+Ny4NAVLCAr5Eul0gd2dNFubKZaXEmxt7FHUdbsjUZ02mqYwAQh5/Vy+PsQnn11harrvxB/0kdFu/vjJZVaWEhykcuwfZDGEaRsQL29KcsSIhCCTzfN4do3d3QzLSzv09EaJxUKEwj68PjeqomCYJsVCmfRBnuSOrZOxspIkuXNAqawfblRVFYIhH5ZlkUnnMa0qvc8vANif7d7eKLffG2f+6QapVI61tR0MLDQhvZIZEM41k4VEoVhiYX6L/b0sqytJHt5fpqurjXCbD5/PjculYlqCcqlMOl1kdyfN5uY+q6tJNtd3yReKVBpPypKMx6OhqiqWZVEq6RiGaEnsoL0jyPVbo9x5ss7+bpb5+S3KQkeuNj7seghZSJT0MsuLCQ5SWTbWdnn8aJXunjYibX4CAQ8ul4olQC/pZLJFdpMZtrdSrK4mWV/dJZOtiPbZ/3k0DbfHhYStfq3rxpnrBUzTYmN9l/W1JJZlISGx6ygEb6ztsryUYO7xGl1dEdpjIWKdYWKxEG3RAIGQD5/Xpg1JkoRpWhi6ST5XZHcvw+bGHgtPt/jl5+esruyg6ybqS/UVlhDoGPgVN2PjPYxN9BCONKYSvm4osoRbU+2WsCWd30O60NbOEGiqwkBniDvTcSaaqPc62oBhOwGFu5D/FsrPbWoQAlBBrmT+jnOA3mZKy9t87G873p5zf+EIXODcIIRAlmW8XjeqJlMolCmVDCdDICgbOjuJA7KZAktLCTxeF36fB6/PZRsklnUYxSvkSxQLOoVCiZJpNKRd2JQgC6/qYnIyzh8/nuHW7TGi7ScvkgyFfFy9PsTHf7pCInHATz8skCnmbWqEkKp+e20NBSiZOlub+xwc2OJVXp8Ln9+Dz+tCVRUMw6RQKJPLFSnkyxQKZYqFMrplUMk5mFiEw34uXx0gmy1y/+4SJauE6+LxrQlFUZicivPp59dIbB+QTufYT2cxESjiVT0IsKdJQqJsGSSTabLZIstLCbw+N16fG5/fhdul2dHykn6oYFu5ZiXDdtwkBAYW4YCPweFOZFkmsZ1C3zUR2KI5rSiuHRnp4pM/XSWxmWI/lSexs4+JhVKFunZ8fAYm+/s5Cvky62u7eLwufD43/oAbt1tDCEGpaJDLFclVxlcsUyzrCCdSbmLh9/ro7Yvi93scilSKkq4jn3F8hmHrjqytJimXDEflFwxM0rk8pWWdxPYBbreK12kJ2t0doa09QCjkw+fzoLmPOQJlk1y2QDKZZn1tl82NfXZ305SK+uF5OQ6BTSeMxcK8+/4E0zP9LRVBbBUUWcKjKbhUOydqZ5tqdGE5MR3ohBH7c6YDVdYxLQtVlunpCHB9pJOp/nZCzdZuCB30JSj8bDsC5UVH0EoAipMFqFFs3Sgi/MqkM5yjRue/mYhxqyLirYqYvzLprOfnLDhBdqzZLEfV+SfMBrQsy3NyXFgSFzg3WAgUCUJhH7HOEIZhsb21T2LnAAsL1fnAZwtFDgp2pFFFQVNVVEW2I3NlAx3zkBKjIDtdSqrvs+IAWAi8LhfjY3E+++Ian3x2hf6BjlOn97t72vjDxzPs72cp5MvMzq6Qc6K/ipCrRucVSUHBLtY8yOVI5bKAhIaCptpF7KZpoRsmOnaPZdlhLMvImJhYQMBrd3r5819vMP9sk8ePVjF088IRaIC2aJD3PphgN3lAKpXlwd0ldlMZDCxkIdeg0cjONRPkikXSxTzsg4KCS7H70VuWQNfta3b8vqxQjEws3KrG5HQfH9yZIpMp8N3Xc6T2s/Yz0SJqVyDo5cbNEXZ30uzt5fjp+2ds76TQMVEajE8IQb5UIlsqYqVsMTCXrKJpdvZONywMy8DEQsIev4KEiS0QqMkqw6Nd3H5/ElWReXBvib297CGl5iwoFMqsruywvJwgb5XQKnuX7OMuGwbFbBkzayHtSng3XKwu7+Cr0INcqq0YLtkRZNO0KBd1srkiB6kchXIJ4RRxv+wE6MJ+ewS9PmauDPLRxzOMjnafaTznBUWW8blV3Nqb1db0PGGYAq9LZioe5fZYN91NZ2osKM9D/hvbCdDXbLVbqSJi9VtCFUP0Aq8Zb9e5v7AkLnBuqHTr8QfcTEzG6eyKsDC/yb++e8rebsaOqDuGlMrRy9gwTAzDdP46UiytaMRWcwIqdQh2xFLG59YYm+jlk8+u8m9/vcH0pb4ztR5UFJnRsR7+9Pk1SkUdWZaYm10jlytiOhEG+9iqRGKd8VXaEQqEbfw7YxSIF8ZfWUpCIuz3MT3Tz5///SZ/+vwqSBIul4bIWzULYC9gQ5Kgp7eNDz+aJpctoqkK9+4usr+btQ0+YdNOal0zGdnh+dswTNMRL4Lj9yWHU+wlAy4Pw6PdfPLZVT7+dIYnT9Z5eH8ZJFvErJVVHh2xEO9+MGFz3VWZH76fZ2c7RdnSkUQlp1QtayU5YmtHSgSmZWKWjsb38nNpd9EBn+qir7+Djz6+xCefXWN3N8Pq6o5TP3H2ERYLOsVCGdMwD2txLCwkcTgalGNScYZpkUrlSafzzrU8Gm8leCqE3WrSEhUtkKPrbquOV94egpDHy/SlAf746QzXbwwTaXvzaEFgZwT8bgWvZrdvfdH0OG0moN5K55UJqLPu8aCqsGl1Aa+L8d4w4/E2vE11jjKhvArZr6Dwnd0KVOgvZQBOcljnxXs/4/zKvNeiE1DvUH6l83M4+xQZp5fnn2lcp8l4NZgPTVzX0+PCEbjAuaHycVUVhf7BDj78wyWmZ/oRQnD/3hKJrRRF007Pqy/FSSu3vM21rv+yrmQBTCfL0BYNMurw+r/4yw2u3xwhcIq+8C/D7Va5dHnAVpVWFTweF0+frpPYPkDHLp5Ua3QUkpzRVI73+CNdaT1aoSQIBBoqHZ1hpi8N8OlnV/i3v95geKSLn39acDorSYfvjgtfoDYkSWJ0rAf+ItBcCm6PxoN7K6xv7FIyy8jINa7ZkRENHBb5Hr8vJaeI0I4h2zoVbWE/kxNxPrgzzZ///SZTl+KkMwW8Xs1ZuvUv8/6BGJ9+dtURvlL55acFVlZ2KBi6ozz8alecihCexJExfPzojo/PwqY6SUDQ52VstId33x/nL/9xk2s3Rnl4fwWf1304vrOOUJIg3tfO1HQ/m9t7HOzmKVh2+1y1Is8mvXhtLCxMS7y0f3G4TMWBkA8Lm49gOe8OgIDfy6Wpfr748w0++ewKff0db6yzrSoyfo+Gx3WULbFxAkPuhUknMNSboYK8MPuExtFLywsElgCvS6U74mOoM0ysGWE8YUH5GeS/hsKPdltQBLayba1MSq3zd950l1YYik1cw5M4h7Xmt+r8NLv/VhrKjY69mbFVvf/rbeM8nJvWfUsuHAEAS4BhgW5hy2NDIx0BCcte5w2TnX/TIJxoXCDoYWo6zvRMP5Jsq3vev7vE5voemVwBo2yiO+f+MPLvGLvSSy+To9hdpYGhhCorBL0+YrEQU5f6ee+DCT76ZIYrV4YIhs/uBFTg97u5cnUQRZMJBr18980cj+6vsL2VIpcvopsGljjqKnRkar3KQ678rGROVGQ8mobf57VVja8OcuePl7jz0TSTU/FDg8S2Y0xK2AXTL7egNtEBu3CzmS41hmFvC3RKovorwcCuWWgo0HcKWKaFXjYolXR0dEzsDj8vLONcbdk5BusEz53brTEx2YeiKPj9XtraQ9z9+Tkba7tkswXKunFYWC7XuWa17j1NVvH6XETbAkxd6uPOR9O8f2eaa9eH8Ac8aKqCJMsOnaiMifrK+OxrBvoJxwagaQpDI11IsoTX66Ktzc9PPy6wsrxDJlOgVNYpn3J8EhKapOD3egiFfYyP9/L+nUnu/GGKd94dJ9oe4tnTDWTZuTec8SniRSPLQAcE5bKBaVp1v2F+v4f3PpjCNAWPHizz7OkG21v7FAplyiWDsnF0vY4/Z7JTOVR9ZEe/mU6NUqX7l4JMwOMhHPYzMdnLR5/M8Pm/XWf6Un9T2h+/FjRFJuDR8DlR8d/yl8iywLQEvVEvV4diDHeGUeVGlCgL9HUofG9TgowEOFf8t9f6+7d89S9QHa27h9/ct9zrxGH70MqHpH7K8DAJK1+0D20EIWzhFwCvz02sM8yfvrhGW1uAeF8Hc7OrLD3fZmsrRWo/h24aDWgFR06ChUBFwuNxEesKMzTUydR0H9dujnDznVFGx3sInFpqvja8PhczMwP4vC46YkH6+jt4PLvG4sKWbbDkS5iiPj3iyBSTAAtVUghHfHR2RRga7mJyOs6td0a5fmuUgcHOQydA0xQCAQ8KLpvjXGUvpnNmFKU5xVdFkdFQMFHQqM6XrdA9VLWBQN8pIMkSiqqgaSqKqRxGfY/juCOgqidXslU1hZGxHtweF+G2AL9ygagAACAASURBVH397Ty6v8LC/Abr63tk0wVMhypU50iPOaj2sfice3pgqJOJiR5uvDPKrXfGGB7twu/ce6oq4/O7cXs05KyKVmV8ptMeVjnF2MDuKT8wGMPlUgmFfPT2tfPg/hLPnm6yvpLkIF3AtMwTjU9CwuPWaO8IMTAUY3S0m+s3R7h1e5SJyThtTuG9LEt4fS7cHg0ppzqc/lej7gJx1Bq4zmEEgh6u3xwhGg0wOtbN3Owqi4vbbG7ssbWZYidxQMa5XkdH/SKOcgEvm0hHT56CQFMUIm0B+gdjTE72cuvdMd59b4LJ6b7D6/emQpElAh4Nr9uWrBOiES2kXsT2BBH7k0R5T1UY/OqflkML6usIcXu8m8HOUP39gk0BKt6F4n0w9rGDfBq1b75GEfPax3jqjEmzEeFGkf7XqZzbaP2qi59y/GeKmL+0obOc4prLiWoTG2/01ONy/pacDld1uiaeBBeOgASSX0PuDaCMRpAO3EiKXNfAF6YFwkLuDyIFNNshuEBdWI4cvKLIDAzE8HpdxPs7mJqK83h2lYX5LTbW90ilsuRzZUrFMrpu2rxswzpsI6goMppLweXW8HpdhEI+2tuDDI10cfnKADNXBhkZ66a7pw3XGZRHG8Hj0Rif6CUU9jE03MXE1CoP7i6xML/J7k6GdDpHPl+mVNTtiLNp2a3vJJBlGU2VcblU3G4XHq9GOOKnpzfC6FgvUzMDTF/qY3ikk1hn2OntbqMjFuL6jRFCYd+RK/HSvVq2DAyzzPhkb8OIpk3D6ODWrXGKZhmvWl00ybBMJAmGhrrpjbdXFdg6LaLRIJNTcUzTIpsvokivOhqVTlOyJDE90084cnIFUU1TGBzqxOd3MzgcY2Kyl3u/LPL0yTrbWynSqTz5fIlioXyY+bCOXTNFkXFpCm6PC6/XRSDoJRYLMTzcxfTlAS5d6WdsvIeurrYXznskEmBqup98rsTeQQZNUpBeeoGXLTsjMDFp31PSKd4pimKrDnu9LvoHY4xP9HL3l+fMPV63O1ft58gdjk8/Gp8AWZFQZAVNs+lTHo+GP+Ah2hFicDDGpZl+Zi4PMjHVS1d3Gz7/0X0SDHkZm+jlxq0UvTtRVFl5hX6jW3Zh9dR0H+3tQRS19gdMUWTaov7/v707fY7cSO88/k0cdV+8z2YfUndLGs1ImhnN7bG9E+EXG/ti/+CNjViH1461vd7xrO3VaMaypJG6W32R3TzrALAvElUsklUAqgiSRfL3UZRIIlEoAFVN5pP5ZCa1+hbLq00ev7/BN1+/5Msvv+OLPz7jqy9f8Pw7O9vY0VGHdrvL0VGXTrtHEAQEQUgQhvRn1newU7na3x0epZKd8rRSKTA3V2PzziIffLjFR5/c44MPt1hbn6cyY4uHjeK5hkrRo+TH0xhnreid+PEiAoAJKp0nNo/e3h8LVS163Fms8+5ai1La7/bgrV0n4PCfoP0lRF1SewKmqghOKbfXSksHmuD18jqnPF4r7/fiws45LYDK87X62w04ZXBrds2LHCgQMAZnpYL/o1VMzSfa7YCfHAjQtSlB3vsLOCtV8BQIZDGc8rC01KTZrLK6OseDd1f59ptXPHu2w9On2zyPewcO9o84anc4OurS7QR2AZ2SR7Vaota0aUDr6wusrrbYuLPAvfvLbGwu5DIeIAvPc9nYWGBhvs7q2hz3H6zwzdev+O7ZDk+fvOT5d295s7PP3v4R7aMuYRDalV4LLuVygXqtRHOuxuJik9W1OdY2WtzZWuLO1hKra/OUSmf/ed6/v8J/+a8/4dXLt4NtpyvN/bnTH72/Qa2WfC8cY/j4hw/soku9YOw0iWEQgrGV9ncertFoTF4RH8UY2Lq7xG/+6mM+/OgenXYX44yYCz+uJBgDK6tzrE8yd/ip11tebjK/UGNlucXm1iIffXWfZ0+3efLkNd8922Hn9Z5NqTns2AHdxgyCz1qlGL9nDVZW51hbn2NzY56t+8tsbi1SrZ5tRV7fXODP//JD3nl3lYODNs6I6wviQcj37ttF51x3+pae+YU6c/M1lpbtirgf/uAe3z3d5sm3r3n2bIftV7vs7h1ydNCh2+tBZHtMCkWfSqVIs1VjYaHG8kqLtfU5NjYXuHtvmTt3l2g2z77vy8stfvqLx6ystNh9e4hxzJnZufrX1z9WliDd913W1udZXmlx994K7763ztNvX/PsyQ7ffbfDyxdv2dneY3t7jzfbe+zuHg2CuHYc6Ng1OBwKvk+h4FGtl5ibq9Kar7G03GRjY4HNzUXu3l/m/oMVFiZdmOoKucZQ8u2sQf2V1Yd7Qm6KIIwoeA7LzQrrc1VqpbTpQkPo/gkO/088ReiBbUEdOyYA8quZTuq8r6vyqyuftuw85fG/cLcO/jyYjFPnplAg4Bic1SreT9dxH84RdYL0lJ/ARuHOfBlnrYZJaN2S8QoFj42NeeYXajx6vMHu3iHPn7/h6bev2X61F1eg7dz6na4NBEolj2qtTKNVYXVljvXNBebna1RrJSqV4pXM910qF7h7b5mlpSbf+7DNzvYeT5685tmTbba399jbO+RoKBDwfZdKpUi9UWZuvs7KSovllRatuSrVapFSuTC2Irh5Z5HmXI1ex043GnH2oxqFtuJcrhapVpNbNh3H4XsfbrF1dyle92H0577fWOf5Nogpl/P5BWSMYWNzgdZcjW7X5sfH41hPnUD/CeAXPOrnDPY812VtfY5ms8L772+ys33A06evefLtNtuv3vL27QFHh1263R44ZtBSXquWmJ+vs7TSYnW1xcJinWq1RDnhs7e80qJWL/PRJ/cJeiFD41yPLy+erKdU9qnWyid6gaZhjBm87sPH6+y+PeDpk22efPOaVy93ebt7wOFBh26vCyF4BZdi0adaLdGas5XklZUmS8tNavUylUqBQmF069P8fI2PP3nAe+9tEvRswDjqMwkMAnnfz/6nx3Ud5hdq1BslNjcXOTrs8ObNAa9f7vJ6e49XL9+w/XqP3TeHHB7ZtUo67a4NcjD4notf8CgWfGqNEvMLdRYW6iyvzrG2NsfcXNWuFZHTZ/qyOI5DyXcp+S6uE6c8nYkExrXsT5tClPTctNSapHSgcb0BtgHJdx1WWxVW5yoU0n7Hh23ofAlHn0G4Q3Kq7wTnnDVlJu1epd5/sqW6JB5mwvciSypPputKKD9RdI5ymJH7M+6zkXc60KmDmDgQ8ObAUSCQG6dZxFR8onvNDB+wY8Z1MAUHzvlH+zYzjs2zrlSKzC/WWV2f5969ZQ7223Q6Pbq9Ht1uEFegjE2pKfqU4rSgRqsyEyvsuq5DvVGm3iizutZifXOBt2/sok3tdpduLyCK05scz6HgexRLPpVKiXqjnFph7yuVC5TyrLAYBud9VXK/poyMMVRrJaq1EotLTdbW53jn3QMO9tscHXXodW2aCca+v57vUix4VColao0y9Xo507oUxaJH8YoGnfb/bS0uNmzv24NV9veP4lWAg8HAXcczeK5DoVigXC5Sq5do1Mt4GQJrv+DRLHgjewvy5Psevm+DwKXlJu07i+wftO1ifPtt23PY7dHrhQS9gCAem+Q6Dq7n4Lk2mKtUi7ZXsVGmeg1SgMYxBkqFfiBwc/8GhVFIwXNYaVVYalTwkv7NRT07KLj7H9B7Zn82N62aE536KpfrCu97FNpxAW4d/EVw8vn9ddP+hUzOAJ6D8c67DI7koVjwWFpuxrnL8SwmQ8FZfyrOUekjs6TRKFOvl4jCs9cA8XUMHldzjnJStVaiUi3Gc86Pec+Y/c/eOOWK7W0af30AZmTq0iwqlnyKJZ+5uar9dxZBRDSYCnW4F6m/tsBN+3dXKngUfS9+z+w22ymQ1GKb0qI/dlNKS2Vi/SitlXT886IowvMcFhoVFhvl5LS58A20P4PO1xAd2Ya9ke/zhKkZubeYZ3/ps4UZ7nXW9yLXXo7Eg6Z//nJpMY+ff2H3Jxq1MV0evRxRFHetGvAa4C+Ak8+EBgoEZCbZltbr/ZfaGINxr/c13Db9SuJNdROv7zb/OysXPMpxatDAqMrvpOlAWSq+w9snTQfKmNoRERGGEZ7jsFArMV8vJfcAd5/ZmYK6f4qPMSpomKAiPEsV5TzTXS7zugZF1ygdaOz9STrGeYK/LNceP4xjAwFvIbcxAje3P1FEROQGK3h2UbFKycNzh9eJvjkMhqLn0aoWqSbNVhZ17LoB7S/s1KE4uU2vKDI7XDtjkNfMbYyA/pWIiIhcQwZoVQssN8qUCy5hFJ4MBgaNmEmtzEm9AeNSIYZSVNJaT0cVJYp7A2yuFwXfpVku0KwWx4+FiELovbDjAsL94xSKE10jp1p0k9I+0spHbpqifLgoMe0kilNDksoTnj5pb8CZY01Yfma/KcsH+2XoDUi7/qnvTwSEKed43vuTcNgT5SZeQ6AaTx+az+QoSg3Crqza6wb0gtDOWpKllzkCN54L3vMuf6YaERGRhVqJOws1vnr+lr2jzqkpm1LSTMaaoNKTuXyy59lAwFAvFVhqVpKnDY2COBB4AVGPxDbO81x6nsfIvF9SADDBcfI6p5m7Pzm93lTpQHm+VpbyCHDArYBXI6/06VsfCERRxNs3B4OVbTudHk5Kvml/YNrcfI07mws056rnmvdbRERkGkuNMveXG/zuq5d8+3p/+vUtJ8kqmiYDacLnhHbCLprlAitzFSrFpMWTuhC8jlOCghEpQeetKV5VeVqT8XnN6nWr/GR5/DkwLjgVO0bAqaY8NzsFAmHE8+92+Kd//CN//Pwpe7tHeL6bOKCuvyLno/c28H/9AbV6SYGAiIhcuvl6kXvLdZoVOyNUGEY4blJb4YjKR5Y0htSW0YRKTdaBnkPfhmGE60Ct7LNYL1MqJvS8Rz0bBAQ7p3oEJkiJyZIyc2bTlPcySinvl2UaRJq4w5iXuaDrGhSdoxzOcV0Tlo/5ceLyM5vyvj/xZ8EpQWHJDhTOaXwAXLNAoD/lXUj8yPBhCcNoMF3eKGEIL56/5bf/9AV//3ef82pnj4LnJc5M0On1CKKQnZ19Hj9a5979ZQrXdzpqERG5pgqey0qzwly1iO+5gx7raz051FBDeKXo0aoVKSauaRFA8MY+sCtKi0wnOvV1RkQBuE2ovAvFDfL8jF+rQOA8xv1SjIjY3z/i2ZPX/PsfnvHi7RsKxk8MBNphl5CQrfVF9vaPCOOFa84cO7KtGmEQEmD3MdH444bxoJQwCM/M8S0iIjJKteQzXy/TKBfYPWzbvx9n/oadoxWTKKVelNbyneF5J+pfEf1Bz6WCR71coJg0Fi/qQrh7PFD4dGrQZbT45tUiDBxPF5lUnniA1NMYtfvYJ+XRy5GpF4Rs15b2Wcz6WR35vk+RznPR9yeydUP8eai8D8W1lHOczLUKBFzHLhdf8D2ibkihkHD6EfS6HoWih+e7iSuABkFEp9Ozq22GHUIikpYX69IFQjrtnl2Zc+w52Ep9rxfSo9c/rbFsINCjG6ceiYiIpCl4Dov1EvO1IgftDp1eiHtmxpzxP+aeDjRJKlD/x1MVIbs4nP2bXy74eEmrJ4dHEB5A1I6f7yac3qymAw3f63MGAVNXhMfveqPSgca+70nHuOx0oFPHNZ5dRKz8ALzW+GNN4doEAp7r0GxVuHd/hZcv3tJpdygmzSIAHB50qDfLbG4tUq2VcMb8InEcg+e5FAoezpFHgeTUoCiKCAhTA4xiyWdpucnWvSUqL2zukOeN/2UWhhH7vTpbW0vUG+Ubt/CPiIjkz3cdFhslFhslnm7vE0bBVZ9SblzH4LlOwt/DMO4NOLLfX/u0IDUCyrD4M+3WoLAC/mJu04b2XZtAwC94bGwu8PNfvsfa+hy9bg/PTz79bqdHqVLg0eMNlpaauJe8+mRrvsYPf/wOlXKB3d1DgLHBCNgA47DdYX11nq17y4lBhoiICPTHCVRZqlfw3O3B2LiRdedMrZhT9gSkFJ3ZYURPwOndjAHHYXwgELYhfBv3BgCY2eoJGBSlpV5dUov52H0m6Ck4s98tSwfK2qOW9foTPzshGB/8ZSisgVtOOdbkrk0gUCh4bN5ZpFYr8dEn9+zMCCkV5TCMcD2Her1Ma66G617ufP8Liw1+/sv3+OB7d+h2bQtNcit/RK8bUqkWWd+Y10xEIiKSyncd1uYqLDfLuMYQhP3KzYw3JuXR+B21IdiFqBNvmPFrPiNLRVQuxjW491FgZwsqrkBpA5z8Z6a5NoGA6zo0mxWazcpVn0pmtWqJ2jurV30aF6I/TV04aIU4+4+pP7NTv3VKRETy5ziGxXqJ1bkK1aI3ei2BrK3Xk7Sunth8nlbVLH8fxr1uB6IjiLrHu5y5/gl7A9JafHNrEY4roqm37qLHBZz3/iTvPn6/WRgXkLRpygvNtScksOMDiutQvAPmFgcCMlv6U7n253aIRnzg+6VJ07eKiMj5VYoea3MV1uaqvNg9pBeEGCI73u3C04EmqDBFw1+zPC+l1TYKIOzYFIozEcAVpQNlqgheh3Sgi7o/OV5XXuVZA4C0z22Wz3Xm648DPKcKxU3bI5Dz+ABQICBTMMZQLHpUqyWcjoODwTmzkiP4YY+C41GpFCkUPA1+FhG5IMYY7izW+Oj+Ii92D/nq+Vsw4Fzy2LhMcm0YCm0wMOspHjIjolNfZ1QU2EDAa0L5HSjdB7dxIS+lQEAm5nkua+vzvPfBJu1OF2PMyFmWur0A33O5c3eJxaUmfuKCMCIich4rrQo/erDEH57u8KcXb+mF0fEiuxeSDpR2RuftCZg2iJkilSePlu5BUZYW4Rx6WLK2mOeR6pRHykwmOaY5ndk05r7n0cuTazoQcQ8XNh2o8SmU7qY8b3oKBGRixZLPh9+/SxhEdHs9DGBGJKUGvRDXc5hfrPPOwzVKKdO9iojI9CoFn7tLDdbnqpQLHvvt3vjZg4CpUzByWCcg83MnNqvpQMP3+pxBQN4V5bTy3NKhyJAOlaFg6jSnpABoVtKBhvY1vg0Aah9BYTnl+dNTICATKxYLfPjRXdY35o9XVR7xl8b+ATKUyj7z843UdR9EROR86uUCq60qS80y3Vd79IJQM9DNlBlPSZEZEAJuvIDYPShtXshsQX0KBGRivu+ysbnA6trc8e+0cbNUGJu76jiO/hiJiFywou9xZ6nG3eUGr/eO2Nlr4zjRqTFa5xiMOWk60KX1BKQd6irTgaLJe1HOUz5z10+GnoCM7//EvRxpPQEJz7/sdKDB9z3wGnZsQOUdu5jYBVIgIBMzxo4T8Dzl/IuIzBLfMzxen+MHdxf5/Nttnu8c4LtOQnrQBVLjN2Pz0uUSXMN7H/UDgSbUfwjV98FcbDaFmmhFRERuCMcYNhdq/ODuIluLdSpF294XnWhxZLpxAYmDXIfKzuw2bWt31kpc/IJRNOYpSWMWsrzOec4/LacfJnpPps6PP3taU5ef2e+iewPS7s+pcxr9w5jyMftE5ygf7JfWE3T68xGnWnsNKL8L9U/itQMutqquQEBEROSGubNQ45P7S9xfbuI4hl4YplSUEyo1k64TkLWiNLY8r5bctLSQi6zoJQUmp14oMQAYF1xNWD686TzlJzafsyI8cUV57IlMGNwkfdbPWQ6TXdfwOUU9u05A5RE0f3ahMwUNUyAgIiJyw7SqRX787jKP1udwHUMQBFd9SiIyVghE4Jah+n07Zah3MesGnKZAQERE5IYpFTwerLZ4tNFisVHGdx3CMJysnT21YX5Ei+y5egJI2J4iS0t3Hi3CkG9Ld2IPzfA5naP8zKbbfn+SDplw3Unlg/3SXmzUdcU/uHFKUPV7cUrQ5QzjVSAgIiJyA7WqRT6+v8Sn766wUC/RCULCsF8DOVFzP+nEeIBRFZsRFa2sFaXEAGCKICAtJeTMpous6A3ft6R9knYZcV+nLR+56SrvT4byLPdn+PN2JngZ2jjV/Rn9kucOfoaDm1HPM54NAub/Cuofg3N5061r1iAREZEbyDGGh6stfv3BBs93DtjZ79ALwsEaL3IRpghmJEfX7P5HHbtwWHEDmj+H1q+guHapp6AeARERkRuqVi7wwZ15PnlnmbtLDXzPoRtEmRqkU3eIGKQ2p7foJ5UnbB+ssjpF4HLp6S4ZTibxxqe1ZGcsH7lpivLhostMB0oqTyy7yPuTYOp0oHiWIH8eGj+xgUDx4lYQHkc9AiIiIjfYUqPCLx6v8d32Pt+92eftQQfXNbjn7RW46MbXrBWxK9c/UfWyXI1r8SEZEkHUhSi0PQGtX8Pcb6DyLldRLVcgICIicoM5juHR2hw/e7zGVy926fae0+4FhJEtA7K1ao74dsyGjOXjWqDj1uNokor1UGU86/lFKeXD55P0uoPypJ6NxBcY+e1U5SP3mbD8zObz3J8M5VPfnxFPupL7M0504svghygAHNsT0Pw5LP5nqLx/qeMChikQEBERueE8z+Hj+0vst3s4Dvz2i+e0uwGEdixBslMVsawVxIlTgThOsenXoUbV69NezpzeMO7l86jgpqW7JO2ScwBwZtMU5Sc2X0IAkPgyacHnrN+fURviR2EZ6p/C3F9C5eGVBQGgQGAgiiL76P+X9HtqsM91644SEZHbaqFe5s8+WKcXBHS7Af/y9Sv2j7oUfRdHWS0iFycKGAwMLm3ZnoDmr6H2ITiVKz01BQIcB63DDREZYvyTPYIiIiIzrlUt8vNH67Q7AUfdgN9/85owCgkwOMacynIf0eIando+Uqa/oKc2n20dnn6IQGJLXvpRU1u6+/9L6fHI0tI9cr8pUlXyaOkeFM1QT8DI/dJ6A2bl/vQriREYB5wq+Csw9xd2mtDyA3DKyce6BAoE6PciTtEcYjQ0SERErg+DYW2+yq8+2CCIIjzH8K9fv+SwG1D0HVzTn0zwCtKBhvaaOABIO7/c010SrjPxEEoHSr0/qdedFEjMyv2Jg4CoDRjwlqH6PtR/BK2fQfkhGDf5WJfk1gcCxkC1VmJ9fYF3H67SelWlWPQTcybbnS5hELG5tUCtVsJxNAuriIhcH3cW6/zmB1sUXYeS7/H5k9e8OWjTCQIcBzz9XUugVICrM8v3PoIoBHo2CDA+eHNQXIXKhzYdqP4xFJau+kRPUCBgHFZWWvzoJ+/Smq+wt3uI67nHMymM0OsGhGHEw8frrKzP4Xn6hSkiItfLaqvKbz66y0KjzH//56/5hz8+5dXuIb0wjMfAGcy5ewISykb0BGQ/5gRyTXfJIR1olnoCBkUzlg50puwC7k/m1x9XPnxOw58PB9wC+AvHvQDVj6C8BW4t5XUu360PBBzHsLYxx8+L7/HhD7bo9QK74mJCzk8U2l9etUaZlZUWnjcb3TsiIiJZGQPz9RI/f2+datFnqVXm/375gt8/2eb120MMBt9xcF0z1XpeqWa5cfeEUxXRmZMlpz7paTOQDjTyVLImil3m9cefhSgCwrgHIISwh00BqkP5HlQeQfGu/Vp5BIWVlGu4Orc+EDAGGs0KjebVjtoWERG5CuWCx48frrK2UOPucpPmv3zDv379kr2DDu1uj25oV0B1jLGzC5nTI+smHRcQja/7DbZEZBuFF516mJNFiefRL05pjb6wiu4U5YMfo+NK6G0LBNKu76Kuf7DKtRPn9/vgeODE37sVKG5C8yfQ+BQK6+BWbYrQDLv1gYCIiMht5zqGrcU65YLHcqPC4815Pv/mFZ9/+5qn2/t0ekFc1TaYuOI0qD6dqa8npaGcrRRGI34atMEP1/GzyrWCm5aykrTLRaUDGfuN6QcD/YJxiy5MW1EeroiPCsrGtdibk9uzTK945qXG3PuI0duHy5NezwyVTxycRPHsPyXb8u+2wJ8DfxEKq1BctysFl+6Avzwzg4HT5B4I2AUBI8IwIsQ+TMKbEmK7V8JQ8/KLiIhcpaVGmflqia3lBo835vjjk22+fP6Wb1++5cnrPV7vHnHUDYCTf7NHVeZHbuoHAmMXCrNbj9o9PNehE4/Jk74IogDcsp2K0m3aymk/OBjZon72ECkb4s3T3vdTzwtJ79wZeU4Jn6PJDnbqsFkOEtr7TAS44Phgiva+u1VwG+A17WDgwqJN/SmszMR0oJPKPRDo5xH20+z7j7H7x/+3z9NknCIiIlfJdQ0b8zUWG2U+ebDM670j/u3rV/zjH57y+ZPXvNo9IgxCekFIEEaEkX0kGrNOwLifjnwbCFRLPr6bcUKO/iFMxnNJPE5Sb8AEPQEj95uihX64VTrqgLMM1U+h8oGtoJ4JBCbtRhklp+dfehyXEghkEsR5/6FN7XHKtuLv1sEtAi4Yz5aZOFDgek4ck3sg4DiGQsGnWPIpuj6+6+I647tH3KAH3Yhi0cdznYsZkCQiIiKZGQMl36XkuzQqRVrVEpsLdZ5u7/F674iDow4HR12OugHdICQIwtMJQydN2Ljb6wU4juH9O4vMN8q4btbKQR7pQEnHOZvaNPb1s6b7pJUPb4oiiHo2PaV4D6ofgykxCAQmeq3zGveezHAPTuZTi457BPoVfVO4wBO7OrkHArVaiTtbi3zwwR2Wl5t4nps4z36vF3B01OHdR+u05mqak19ERGTGtKpFWveX+MH9JdrdgL2jDoftHoed3iAQsLIHAknCKJ7Mo1pksVHGS5jSO38zXJEdnJtjAwBTAedmVlDlcuQeCCwuNvjkRw+Ym6uyt3uI4xocM75yH4Qh3U7Ana1FNu4s4PvXY3CFiIjIbVT0XYp+magOQRgRhdFQQ3u+lWjjGFzH2Gm9R+6Q8WWzznOflg6U+vxxu6Z1iUxSrtQJyU/ugcDCUp0f/vgdHr+3QbcXxGMFxn9o+wOLK5UiC0sNzckvIiJyDRiwLfWX2lp/EfLIp78K/elDRaaXeyBQrZaoVkt5H1ZERERkhGjoMSIoSVsnIM+8/yy9AXkMHh647kGYXDWtIyAiIiI3T6Z0oKQgGZcizAAAEUdJREFUIOcA4MymKcpPSJuXUSSdRuaKiIiIXBdR3PMxWOFWZHrqERAREZGbI+uiU2N7DC5yHYApywfiXoCoA92X0P6TnUoUmNnxAhOlOqUcyLjgVO2iXgqCcqFAQERERK6/iRYUyxAEzFI60GCzsdOF9t7A3v+E9h85rsplGPScWgfPkE41cpeE6ZvGXV/a/Tt9yKgHbg3qn0DtR3aBLzk3BQIiIiIi14XxINyD/d8ebzvXQmlDi5GNPM7wYmUZBlafKT/1fM5+O3Lj6QAi6EJh3vaAVD4AFAjkQYGAiIiI3BApMwSlDiAed4grHBgcnS6PK9ZREK9+ywSBQOKLXMLA6YSKfsIhIYSoC2GHwYq/kgsFAiIiInIL3JTKY3+wsG8fUZQ8eVBa+XAr/sj9TlXez+yTVJ4QAJjTG5LKI8C1vQHGG3eiMgUFAiIiInK9DfL+x1QQz90iTkL5Ba0TEKWUXxvX/fxvNgUCIiIico2lpQNl3Wfa8nGnct6BwedM95mZdKBxm6ZNl8owKFoy0zoCIiIicgMlDZAVEVCPgIiIiNxEebWIT91iPnrXyQYGj9rnEnsCRu6XVt7fOO3A4LT7oxWV86RAQERERG6OLKlAibtcRkV53FMuIQg4VxpUluDnAoKAiKFxIOrhyZNSg0REROQGUWXx6lzGvdf7myf1CIiIiMg1ZuKp9SMgBJM4l+YFt4hPO4B2xtKBksoTr2uCnoDzvH6W9SAkE/UIiIiIyA2gyuHVUMrOdaYeAREREbnGslRCL3pg8Hmn0kyQemk5jAtIfK2kaTxDiMKhbWboqxnaL+mwE/Z2GJPS6yOTUCAgIiIi11OmxugZSwdKG1x8ZvO0Le05BjcnNvWPGwIhJ98AA1GcqkXEyNl9zjswOoqUGpQjBQIiIiJyvaleePGifut/gK3ge+DWwa2A49vKeXgEvT37NerFLfceGGWizyoFAiIiInIDzWA6UJbyvKYSzfq6WXoo+q/lFMAUwC2B04TCin24VYgC6O1A+yl0n0PQDwg62J6DuLdg6uvSWISLoEBAREREbpAcZ8gZufs5ZsBJmyHoUmYQGn6ttI3GVvDDLjgVKG5B5aH96i+BNw9eHUwRCCE4tMFA9yV0voODz+DwM+hu22MZN59zVzCQGwUCIiIiInJW1AMimwJUfgiNn0LtIyg9AK+V8LwudF7A3j/D7jzs/c4GBgTxDhrsOysUCIiIiMgNEKeNXMk6AIlPSk/3yS0daNoZhMakA4U98GpQ+R60/hLqPwZ/GZxi8ssYH4rrNmWotGV7Dnb+GjpPbKqQ8TgRDGTp5RgMElZvQJ4UCIiIiIjIsSi0lW6nAqWH0Pw1NH4JheXJjuM17QPXpg3t/Dfo7IProl6B2aBAQERERK65oZbukfXLK+oJGBRd8LiAcw+MPrVrFAKObc1v/ALqn04eBAyrPIbmL6H9JxsQ0MUOIHamHPOgXoG8aD4nERERucYmSJfJax2ArOlASZX8tPLBfhnTfZKCgLTyE+fUnyGoGI8L+BSKGynnkMIYqL4HrT+HyiPAQBgkX5vWC7gUCgREREREJBYCrh0MXLprZwgyOSSQ+PN2jEH5sZ1lSPn+M0GpQSIiInJN9Re5SkkfuckDg6dOBxp1/REQglOy04P6C3bgby4ce7zCkp2FKDy012hgooHDkiv1CIiIiMj1FPUgatu57geVyVMtzSPXAZig/MymhJbs6JzlkJ4SM5hBZ9xhhmZPSio/cU7DxaFdOKywYmf7SZv7fxJOAdyGDQSMd/bFMwU/ChTypEBARERErqkQOzd9eNUnckNEQGAr6d4ceA2b358bY8ceuGUgxwBDpqbUIBEREbmejAcU4lbrEa34Z9yQdKCk8sRd0npC4jQr49oKuymS6zSfJl5d2PSnD+2nL2XsCVCHQO7UIyAiIiLXkymBW4vz2FVDPJ/o1PchF9PTotr8LFGPgIiIiFxPpgLuApgyJ1qNz7ignoBB0TnK4YoGBo8px9gxF71dCA+SDjq5KIKoC2EHG2SYDIcf0RMwmHFIi5Kdl3oERERE5HpyK1BYBbdqfx45JeWEQcCZQySk+yRV8tPKB/tlTPdJquSnlY/49uRJ9gMJg10FuAPdl9Ddjgdi5yQKINi3j6iX8f6MOl/JiwIBERERuZ6MB+4cuC0wBdRCPIno1Nc+B8Ij6HwH3Vd2FqG8hIfQ3bGPsIPer6unQEBERESuL6cM3gI4LTsIdVTFNWtDcpbW5xMt/VOUD/ZLmSY0MdVpgvKxpzKq3NgBvVEXei+h8xR6bxLOcQLhERx9De1v4x6BMJ6RaEwwcOb+9Pd1wDjjnycTUSAgIiIi15fxwVsGfxnwhwKBcRXl6NSDUxXlhAp8WgU/jwDgotcJOL3xTLkB4jECh7+H/X+G4O34882q/Q28+WvY/zebFmTGVEHP3J+hngtjwPHj2YwkDwoERERE5PoyBShsQmE9npayh/LIk2TpHnFsZf3gD7DzP2D/X+NUnil1X8LuP8Cbv4X2n+JpRCecr8YYG/Q5FTs2RHKhQEBERESuL8cHfwMKd+KFqtJazE/Juk+GLJ5cBganlU8yMPhMqlOY8hpxmXFsxbv3GvZ/Bzt/Awf/b7pgoLsNb/9XHAQ84XgV6FGpPeN6WsK456cJXguc0uTnISNp+lARERG5xgx481B8AIUtm8YSduwMOOPST26lSXpJ4op61IPOC9j9eztuoP0d1L4PxbX0Q4RdOPoP2P1HGwQcfAZhe/KegCi05+EvQeUxlLb0vuZIgYCIiIhcb44PhbtQ/REEb+DoC2zr9+kK44RTiZ7ZNK48p56AtJb+qaYIHbMx7brA3tcosgN8e2/g8CvovYLmT+0AbeMPDfjt5/aHEBzA0Vfw5m/g7d/C0be2Mg9x+tbpc8nQS1FYh/qPoXQ3YV+ZlAIBERERuf78Zaj8EDrfQOcZBHu2gnk6AyXPinIWWdcJSCpPe/7YXaMJ9hm12QEC2xvQfWVn/on24fBzWzH3F8Cp2oCBCIJDG4h1ntuxAAf/bmceCju2J2BUS37iwOl40TG3BuW7UH3PpgZJbhQIiIiIyPXnFKB4Fyo/sDPUHH1mW6Zv7foCI4KAqY4RD+w1kQ0EDj6Doy9tOpa/AE7N9gwQ2XUCejs2aAjeQNCzPQDOlLP8RG0wJZsOVHnfLh6ntKBcKRAQERGRm8EpQfkDm9cevIHwPziuCI8LBqLEH5NbzBPKs8oj3SfPXo6x1xWvMRAaCNoQPofua+y8/vG9jUI7GDjq2a9mqCzL+Z0Q2F38BlQ/hNr34sHgkicFAiIiInJz+KtQ+xTCN7ZFufMM6NlW6yjOZR8nj3z/rAHC2ONMGJhkCQKypjmlXX8UV+yjyFb2ww7H0xOZ44dx4rEAI4KA1FQp4kCiZ2cJqn4AjZ9A6cHkA40lle6oiIiI3BzGtwNKo19B1IG3fwe95/G0lSMGqt44WedNPQdjgDhd6MzL94OCaUTHPQpOCarvw9xfQO1D8OrTn6+MpUBAREREbhZTgtJjm7MeHML+b6H7AsyomYTIXm/OtN95ZxBKOkzaoN+804HSyk9V+FODgCwDp4P4/bsHzZ/ZGYoKyynPk2kpEBAREZGbpz9eIDJ2QOv+P0D7Szu/vVMaPY2lXJFoaFxB2a4XMPdn0PozKG5e9cndaAoERERE5GZyG1D9yKaVOL4dzNp5Ek97H8T57sM9BOccGJw6fuC8U4mOO4VzTH+aOi4gpRzOed1xLwDY96v8EOb+3D7KWjPgoikQEBERkZvLKUHpXdsD4DZh7+/h6N/tCsRRGO+UkM5y4RXhoeOnzSA0NgiYdp2Ac5QPis8bBIT2qzdnxwI0f2UHB5e3GJnGJblSICAiIiI3mynYMQNuyy48tve/7ToD7W8hPLCV1cGCV9dpzYELHhR8IaLjaUbpgVOB0n2ofQyNT6H2ERRXr/okbw0FAiIiInI7+MtQ/wUUtmDvf9negfZXdhViojggiAe8RhDnECUf88LTgcaVjxgcnCUuuKyegDPPj883wqZkmZINvIpbMP+foPVrOx7Aq6YcV/KkQEBERERuCWNboMuP7OJUhVU4/INNFTr6ArrfQRjEqxH3F8M6PTPOmW9Gu9B0oFMFU40bGPeUvAOf6HjdAQLAgLcI5Xeh8o59L+ofQ/l+ysnJRVAgICIiIrdP4Q74KzZl6PD3cPA7+7X7wk45Gh3FM9lE8QJZDrOTsz7rKUH99QDiMRjGA7cKbg38eag8gvoPof4DKKyDU7za073FFAiIiIjI7WQKULwDXssOKG5/DYf/BgefQfcJdLeBNscpLafTcaZZOTfHgcEj95tiBqHM6yiM2zE6+bW/nzH2Hnstm/ZTeWQHBFfetWsDeC2u15iMm0eBgIiIiNxixk5b6TZsUFDchNID6DyzvQPd76Dzrf052I+nHXU5Th1yjr+f9Yb63MTpPoT20f8+ir93K1BYi+/nuh2bUVq3i4SV37G9AzITFAiIiIiIgE1hKd2HwoZNDQrewtGf4OBf7KMfDDCU896fAadfCbYHGj2+AM4xMPjUk/NaT2Bs+dD3Yb8nIp7qk/jaBjMteTY4Mh4YHworUHsfaj+0YwH8FjgFMEW7j8wMvRsiIiIiA45de4CSnW7UW4TiBlS+D93n8eM1BK+htx0/diA4iHsLAFyI4t6C4VjgTD3cnCyYap2AMRunCgBGBAJRf7afuPWf0Fb6nRr4Tbs2gz8P/gL4i+Av2UCguGYHY3vNUScsM0KBgIiIiMg4TgWK9+wjakP3lU0Z6r2C3mv7c28bum8g3LVTkYb7tucgOISow2Dl3DMzDo0abzAqZz463p4pEDjdsxCe3C/ql59+3unXdmwLv1cBpwpezab1eA2b3+/N2Ye/AIU4CPCX7YxMci0oEBARERHJwhRt7ru/FFfwexB2Ierain/3BXSexGMKntjeg2AXgg7HOfQhg5QiAo7z7eFkBT4aegyVnYkTTm3sr38wKp4w8f8GayT09+2Pc3CHZkdy4oG+dTuwt7Aej5+4Y6/frdhy44Hj24DB8ZmdmZUkCwUCIiIiIpkZW+k1vv3RHSoq3bVpQr04bSh4E/cMHNnAIWxD2ImDiDiAiDp2W78s7AK940Aj6sU9CiGE/fQcTs7g06/gY2xKktMfzOzaE+yfrxvn8Jt+vn6/Il+IK/KF+Pu43CnGvQCNuOU/TgFSnv+NoXdSREREJA/Gj9NjloY2hnEF/8hW9vsVf+JKf9S224NDCA+OA4WwHQcKvaFHeJxmNDKtJ27Jd9w4j9/HDuSNK/duMa7gl+zDlIYq/8OBwNB2tfDfaAoERERERC6Mc1zxBs5Ovdmv3Afx7EPB8fbhqTn7aUJj5/IfTvXpz+rjMAgQjIPtHRjuKRiaBnWmFkyTy6JAQEREROTS9CvqzuBHkaui0E9ERERE5BZSICAiIiIicgspEBARERERuYUUCIiIiIiI3EIKBEREREREbiEFAiIiIiIit5ACARERERGRW0iBgIiIiIjILaRAQERERETkFlIgICIiIiJyCykQEBERERG5hRQIiIiIiIjcQgoERERERERuIQUCIiIiIiK3kAIBEREREZFbSIGAiIiIiMgtpEBAREREROQWUiAgIiIiInILKRAQEREREbmFFAiIiIiIiNxCCgRERERERG4hBQIiIiIiIreQAgERERERkVtIgYCIiIiIyC2kQEBERERE5BZSICAiIiIicgspEBARERERuYUcAMdRPCAiIiIictO5rosxBgDHGEO1Wr3iUxIRERERkYvWbDbxPA8ALwgCPv/8cz777LMrPi0REREREblIX3zxBW/evAHAuK4bPXz4kNXV1Ss+LRERERERuUgHBwd8/vnn7OzsYIDoqk9IREREREQu1/8HdkP3XuOu7K8AAAAASUVORK5CYII=;" vertex="1" parent="22">
                    <mxGeometry x="127" y="158" width="124.35" height="52" as="geometry"/>
                </mxCell>
                <mxCell id="13" value="Ambiente de tratamento de dados" style="rounded=1;whiteSpace=wrap;html=1;" vertex="1" parent="22">
                    <mxGeometry x="110.68000000000006" y="278" width="157" height="42" as="geometry"/>
                </mxCell>
                <mxCell id="27" value="Checagem do input antes de enviar" style="rounded=1;whiteSpace=wrap;html=1;" vertex="1" parent="22">
                    <mxGeometry x="436" y="212" width="111" height="42" as="geometry"/>
                </mxCell>
                <mxCell id="11" value="Representação" style="html=1;" edge="1" parent="1" source="10" target="5">
                    <mxGeometry relative="1" as="geometry"/>
                </mxCell>
                <mxCell id="28" value="ORM tem metadado da tabela que pode ser utilizadas" style="rounded=1;whiteSpace=wrap;html=1;" vertex="1" parent="1">
                    <mxGeometry x="893" y="922" width="111" height="42" as="geometry"/>
                </mxCell>
            </root>
        </mxGraphModel>
    </diagram>
</mxfile>